<?xml version="1.0" encoding="UTF-8" standalone="no"?>
<!DOCTYPE svg PUBLIC "-//W3C//DTD SVG 1.1//EN"
 "http://www.w3.org/Graphics/SVG/1.1/DTD/svg11.dtd">
<!-- Generated by graphviz version 2.38.0 (20140413.2041)
 -->
<!-- Title: doorsensornodes Pages: 1 -->
<svg width="2186pt" height="1050pt"
 viewBox="0.00 0.00 2186.00 1050.00" xmlns="http://www.w3.org/2000/svg" xmlns:xlink="http://www.w3.org/1999/xlink">
<g id="graph0" class="graph" transform="scale(1 1) rotate(0) translate(4 1046)">
<title>doorsensornodes</title>
<polygon fill="white" stroke="none" points="-4,4 -4,-1046 2182,-1046 2182,4 -4,4"/>
<g id="clust1" class="cluster"><title>clustervex</title>
<path fill="Khaki" stroke="black" d="M1060,-19C1060,-19 1255,-19 1255,-19 1261,-19 1267,-25 1267,-31 1267,-31 1267,-167 1267,-167 1267,-173 1261,-179 1255,-179 1255,-179 1060,-179 1060,-179 1054,-179 1048,-173 1048,-167 1048,-167 1048,-31 1048,-31 1048,-25 1054,-19 1060,-19"/>
<text text-anchor="middle" x="1157.5" y="-154.2" font-family="UbuntuMono" font-size="26.00">vex.realraum.at</text>
</g>
<g id="clust2" class="cluster"><title>clustermqtt</title>
<path fill="Khaki" stroke="black" d="M506,-219.5C506,-219.5 1260,-219.5 1260,-219.5 1266,-219.5 1272,-225.5 1272,-231.5 1272,-231.5 1272,-1018 1272,-1018 1272,-1024 1266,-1030 1260,-1030 1260,-1030 506,-1030 506,-1030 500,-1030 494,-1024 494,-1018 494,-1018 494,-231.5 494,-231.5 494,-225.5 500,-219.5 506,-219.5"/>
<text text-anchor="middle" x="883" y="-1005.2" font-family="UbuntuMono" font-size="26.00">mqtt.realraum.at &#160;aka &#160;smsgw.realraum.at</text>
</g>
<g id="clust3" class="cluster"><title>clustertuer</title>
<path fill="Khaki" stroke="black" d="M1949,-478C1949,-478 2158,-478 2158,-478 2164,-478 2170,-484 2170,-490 2170,-490 2170,-998 2170,-998 2170,-1004 2164,-1010 2158,-1010 2158,-1010 1949,-1010 1949,-1010 1943,-1010 1937,-1004 1937,-998 1937,-998 1937,-490 1937,-490 1937,-484 1943,-478 1949,-478"/>
<text text-anchor="middle" x="2053.5" y="-985.2" font-family="UbuntuMono" font-size="26.00">tuer.realraum.at</text>
</g>
<g id="clust4" class="cluster"><title>clusterlicht</title>
<path fill="Khaki" stroke="black" d="M1292,-23C1292,-23 1606,-23 1606,-23 1612,-23 1618,-29 1618,-35 1618,-35 1618,-390 1618,-390 1618,-396 1612,-402 1606,-402 1606,-402 1292,-402 1292,-402 1286,-402 1280,-396 1280,-390 1280,-390 1280,-35 1280,-35 1280,-29 1286,-23 1292,-23"/>
<text text-anchor="middle" x="1449" y="-377.2" font-family="UbuntuMono" font-size="26.00">licht.realraum.at</text>
</g>
<g id="clust5" class="cluster"><title>clusterkiosk1</title>
<path fill="Khaki" stroke="black" d="M1638,-8C1638,-8 1874,-8 1874,-8 1880,-8 1886,-14 1886,-20 1886,-20 1886,-363.5 1886,-363.5 1886,-369.5 1880,-375.5 1874,-375.5 1874,-375.5 1638,-375.5 1638,-375.5 1632,-375.5 1626,-369.5 1626,-363.5 1626,-363.5 1626,-20 1626,-20 1626,-14 1632,-8 1638,-8"/>
<text text-anchor="middle" x="1756" y="-350.7" font-family="UbuntuMono" font-size="26.00">kiosk1.realraum.at</text>
</g>
<g id="clust6" class="cluster"><title>clustersmallkiosk</title>
<path fill="Khaki" stroke="black" d="M1292,-651C1292,-651 1582,-651 1582,-651 1588,-651 1594,-657 1594,-663 1594,-663 1594,-799 1594,-799 1594,-805 1588,-811 1582,-811 1582,-811 1292,-811 1292,-811 1286,-811 1280,-805 1280,-799 1280,-799 1280,-663 1280,-663 1280,-657 1286,-651 1292,-651"/>
<text text-anchor="middle" x="1437" y="-786.2" font-family="UbuntuMono" font-size="26.00">smallkiosk.realraum.at</text>
</g>
<g id="clust7" class="cluster"><title>clusterlaser</title>
<path fill="Khaki" stroke="black" d="M1614,-651C1614,-651 1917,-651 1917,-651 1923,-651 1929,-657 1929,-663 1929,-663 1929,-799 1929,-799 1929,-805 1923,-811 1917,-811 1917,-811 1614,-811 1614,-811 1608,-811 1602,-805 1602,-799 1602,-799 1602,-663 1602,-663 1602,-657 1608,-651 1614,-651"/>
<text text-anchor="middle" x="1765.5" y="-786.2" font-family="UbuntuMono" font-size="26.00">lasercutter.realraum.at</text>
</g>
<g id="clust8" class="cluster"><title>clusterolgafreezer</title>
<path fill="Khaki" stroke="black" d="M20,-859C20,-859 323,-859 323,-859 329,-859 335,-865 335,-871 335,-871 335,-1022 335,-1022 335,-1028 329,-1034 323,-1034 323,-1034 20,-1034 20,-1034 14,-1034 8,-1028 8,-1022 8,-1022 8,-871 8,-871 8,-865 14,-859 20,-859"/>
<text text-anchor="middle" x="171.5" y="-1009.2" font-family="UbuntuMono" font-size="26.00">olgafreezer.realraum.at</text>
</g>
<g id="clust9" class="cluster"><title>clusterthinkpi</title>
<path fill="Khaki" stroke="black" d="M1906,-227C1906,-227 2155,-227 2155,-227 2161,-227 2167,-233 2167,-239 2167,-239 2167,-433 2167,-433 2167,-439 2161,-445 2155,-445 2155,-445 1906,-445 1906,-445 1900,-445 1894,-439 1894,-433 1894,-433 1894,-239 1894,-239 1894,-233 1900,-227 1906,-227"/>
<text text-anchor="start" x="1902" y="-420.2" font-family="UbuntuMono" font-size="26.00">dhcp&#45;12.realraum.at</text>
<text text-anchor="middle" x="2030.5" y="-391.2" font-family="UbuntuMono" font-size="26.00">thinkpi.realraum.at</text>
</g>
<!-- apache -->
<g id="node1" class="node"><title>apache</title>
<g id="a_node1"><a xlink:href="http://realraum.at/status.json" xlink:title="{Apache Webserver|http://realraum.at/|serves status.json}" target="_graphviz">
<path fill="Crimson" stroke="Black" d="M1143.5,-27.5C1143.5,-27.5 1240.5,-27.5 1240.5,-27.5 1246.5,-27.5 1252.5,-33.5 1252.5,-39.5 1252.5,-39.5 1252.5,-84.5 1252.5,-84.5 1252.5,-90.5 1246.5,-96.5 1240.5,-96.5 1240.5,-96.5 1143.5,-96.5 1143.5,-96.5 1137.5,-96.5 1131.5,-90.5 1131.5,-84.5 1131.5,-84.5 1131.5,-39.5 1131.5,-39.5 1131.5,-33.5 1137.5,-27.5 1143.5,-27.5"/>
<text text-anchor="middle" x="1192" y="-81.3" font-family="Times,serif" font-size="14.00">Apache Webserver</text>
<polyline fill="none" stroke="Black" points="1131.5,-73.5 1252.5,-73.5 "/>
<text text-anchor="middle" x="1192" y="-58.3" font-family="Times,serif" font-size="14.00">http://realraum.at/</text>
<polyline fill="none" stroke="Black" points="1131.5,-50.5 1252.5,-50.5 "/>
<text text-anchor="middle" x="1192" y="-35.3" font-family="Times,serif" font-size="14.00">serves status.json</text>
</a>
</g>
</g>
<!-- smstools -->
<g id="node2" class="node"><title>smstools</title>
<path fill="DarkRed" stroke="white" d="M697,-516.5C697,-516.5 879,-516.5 879,-516.5 885,-516.5 891,-522.5 891,-528.5 891,-528.5 891,-550.5 891,-550.5 891,-556.5 885,-562.5 879,-562.5 879,-562.5 697,-562.5 697,-562.5 691,-562.5 685,-556.5 685,-550.5 685,-550.5 685,-528.5 685,-528.5 685,-522.5 691,-516.5 697,-516.5"/>
<text text-anchor="middle" x="788" y="-547.3" font-family="Times,serif" font-size="14.00" fill="white">smstools</text>
<polyline fill="none" stroke="white" points="685,-539.5 891,-539.5 "/>
<text text-anchor="middle" x="788" y="-524.3" font-family="Times,serif" font-size="14.00" fill="white">Send SMS via T68i and HOT&#45;Sim</text>
</g>
<!-- mosquito -->
<g id="node3" class="node"><title>mosquito</title>
<path fill="Crimson" stroke="Black" d="M1156.5,-516.5C1156.5,-516.5 1227.5,-516.5 1227.5,-516.5 1233.5,-516.5 1239.5,-522.5 1239.5,-528.5 1239.5,-528.5 1239.5,-550.5 1239.5,-550.5 1239.5,-556.5 1233.5,-562.5 1227.5,-562.5 1227.5,-562.5 1156.5,-562.5 1156.5,-562.5 1150.5,-562.5 1144.5,-556.5 1144.5,-550.5 1144.5,-550.5 1144.5,-528.5 1144.5,-528.5 1144.5,-522.5 1150.5,-516.5 1156.5,-516.5"/>
<text text-anchor="middle" x="1192" y="-547.3" font-family="Times,serif" font-size="14.00">Mosquito</text>
<polyline fill="none" stroke="Black" points="1144.5,-539.5 1239.5,-539.5 "/>
<text text-anchor="middle" x="1192" y="-524.3" font-family="Times,serif" font-size="14.00">MQTT broker</text>
</g>
<!-- r3_metaevt_maker -->
<g id="node5" class="node"><title>r3_metaevt_maker</title>
<g id="a_node5"><a xlink:href="https://github.com/realraum/door_and_sensors/tree/master/r3-metaevt-maker" xlink:title="{r³&#45;MetaEvt&#45;Makert|ClientID: metaevt|creates MQTT messages\lbased on other MQTT messages\l}" target="_graphviz">
<path fill="DarkRed" stroke="white" d="M920,-228C920,-228 1090,-228 1090,-228 1096,-228 1102,-234 1102,-240 1102,-240 1102,-300 1102,-300 1102,-306 1096,-312 1090,-312 1090,-312 920,-312 920,-312 914,-312 908,-306 908,-300 908,-300 908,-240 908,-240 908,-234 914,-228 920,-228"/>
<text text-anchor="middle" x="1005" y="-296.8" font-family="Times,serif" font-size="14.00" fill="white">r³&#45;MetaEvt&#45;Makert</text>
<polyline fill="none" stroke="white" points="908,-289 1102,-289 "/>
<text text-anchor="middle" x="1005" y="-273.8" font-family="Times,serif" font-size="14.00" fill="white">ClientID: metaevt</text>
<polyline fill="none" stroke="white" points="908,-266 1102,-266 "/>
<text text-anchor="start" x="916" y="-250.8" font-family="Times,serif" font-size="14.00" fill="white">creates MQTT messages</text>
<text text-anchor="start" x="916" y="-235.8" font-family="Times,serif" font-size="14.00" fill="white">based on other MQTT messages</text>
</a>
</g>
</g>
<!-- mosquito&#45;&gt;r3_metaevt_maker -->
<g id="edge14" class="edge"><title>mosquito&#45;&gt;r3_metaevt_maker</title>
<path fill="none" stroke="green" d="M1153.97,-516.226C1136.84,-503.327 1117.42,-486.095 1103,-468 1066.76,-422.542 1036.39,-363.066 1019.15,-321.405"/>
<polygon fill="green" stroke="green" points="1022.35,-319.978 1015.37,-312.009 1015.86,-322.593 1022.35,-319.978"/>
</g>
<!-- r3_spaceapistatus -->
<g id="node6" class="node"><title>r3_spaceapistatus</title>
<g id="a_node6"><a xlink:href="https://github.com/realraum/door_and_sensors/tree/master/r3-spaceapistatus" xlink:title="{r³&#45;SpaceAPIStatus|create SpaceAPI JSON\lfrom sensordata\l}" target="_graphviz">
<path fill="DarkRed" stroke="white" d="M1132.5,-239.5C1132.5,-239.5 1251.5,-239.5 1251.5,-239.5 1257.5,-239.5 1263.5,-245.5 1263.5,-251.5 1263.5,-251.5 1263.5,-288.5 1263.5,-288.5 1263.5,-294.5 1257.5,-300.5 1251.5,-300.5 1251.5,-300.5 1132.5,-300.5 1132.5,-300.5 1126.5,-300.5 1120.5,-294.5 1120.5,-288.5 1120.5,-288.5 1120.5,-251.5 1120.5,-251.5 1120.5,-245.5 1126.5,-239.5 1132.5,-239.5"/>
<text text-anchor="middle" x="1192" y="-285.3" font-family="Times,serif" font-size="14.00" fill="white">r³&#45;SpaceAPIStatus</text>
<polyline fill="none" stroke="white" points="1120.5,-277.5 1263.5,-277.5 "/>
<text text-anchor="start" x="1128.5" y="-262.3" font-family="Times,serif" font-size="14.00" fill="white">create SpaceAPI JSON</text>
<text text-anchor="start" x="1128.5" y="-247.3" font-family="Times,serif" font-size="14.00" fill="white">from sensordata</text>
</a>
</g>
</g>
<!-- mosquito&#45;&gt;r3_spaceapistatus -->
<g id="edge16" class="edge"><title>mosquito&#45;&gt;r3_spaceapistatus</title>
<path fill="none" stroke="green" d="M1192,-516.153C1192,-470.879 1192,-367.794 1192,-310.773"/>
<polygon fill="green" stroke="green" points="1195.5,-310.686 1192,-300.686 1188.5,-310.686 1195.5,-310.686"/>
</g>
<!-- r3_xmppbot -->
<g id="node7" class="node"><title>r3_xmppbot</title>
<g id="a_node7"><a xlink:href="https://github.com/realraum/door_and_sensors/tree/master/r3-spaceapistatus" xlink:title="{r³&#45;XMPPBot|ClientID: xmppbot| xmpp://realrauminfo@realraum.at}" target="_graphviz">
<path fill="DarkRed" stroke="white" d="M513.5,-235.5C513.5,-235.5 694.5,-235.5 694.5,-235.5 700.5,-235.5 706.5,-241.5 706.5,-247.5 706.5,-247.5 706.5,-292.5 706.5,-292.5 706.5,-298.5 700.5,-304.5 694.5,-304.5 694.5,-304.5 513.5,-304.5 513.5,-304.5 507.5,-304.5 501.5,-298.5 501.5,-292.5 501.5,-292.5 501.5,-247.5 501.5,-247.5 501.5,-241.5 507.5,-235.5 513.5,-235.5"/>
<text text-anchor="middle" x="604" y="-289.3" font-family="Times,serif" font-size="14.00" fill="white">r³&#45;XMPPBot</text>
<polyline fill="none" stroke="white" points="501.5,-281.5 706.5,-281.5 "/>
<text text-anchor="middle" x="604" y="-266.3" font-family="Times,serif" font-size="14.00" fill="white">ClientID: xmppbot</text>
<polyline fill="none" stroke="white" points="501.5,-258.5 706.5,-258.5 "/>
<text text-anchor="middle" x="604" y="-243.3" font-family="Times,serif" font-size="14.00" fill="white">xmpp://realrauminfo@realraum.at</text>
</a>
</g>
</g>
<!-- mosquito&#45;&gt;r3_xmppbot -->
<g id="edge17" class="edge"><title>mosquito&#45;&gt;r3_xmppbot</title>
<path fill="none" stroke="green" d="M1144.28,-528.189C1086.53,-515.808 986.293,-494.633 900,-478 817.989,-462.193 784.412,-491.449 715,-445 667.857,-413.453 636.572,-354.384 619.56,-313.895"/>
<polygon fill="green" stroke="green" points="622.762,-312.476 615.743,-304.539 616.28,-315.12 622.762,-312.476"/>
</g>
<!-- dostuff_switch_lights -->
<g id="node8" class="node"><title>dostuff_switch_lights</title>
<g id="a_node8"><a xlink:href="https://github.com/realraum/door_and_sensors/blob/master/scripts/dostuff_switch_lights.py" xlink:title="{dostuff_switch_lights.py|turns mqtt messages\linto http calls to golightctrl}" target="_graphviz">
<path fill="DarkRed" stroke="white" d="M736.5,-239.5C736.5,-239.5 877.5,-239.5 877.5,-239.5 883.5,-239.5 889.5,-245.5 889.5,-251.5 889.5,-251.5 889.5,-288.5 889.5,-288.5 889.5,-294.5 883.5,-300.5 877.5,-300.5 877.5,-300.5 736.5,-300.5 736.5,-300.5 730.5,-300.5 724.5,-294.5 724.5,-288.5 724.5,-288.5 724.5,-251.5 724.5,-251.5 724.5,-245.5 730.5,-239.5 736.5,-239.5"/>
<text text-anchor="middle" x="807" y="-285.3" font-family="Times,serif" font-size="14.00" fill="white">dostuff_switch_lights.py</text>
<polyline fill="none" stroke="white" points="724.5,-277.5 889.5,-277.5 "/>
<text text-anchor="start" x="732.5" y="-262.3" font-family="Times,serif" font-size="14.00" fill="white">turns mqtt messages</text>
<text text-anchor="middle" x="807" y="-247.3" font-family="Times,serif" font-size="14.00" fill="white">into http calls to golightctrl</text>
</a>
</g>
</g>
<!-- mosquito&#45;&gt;dostuff_switch_lights -->
<g id="edge18" class="edge"><title>mosquito&#45;&gt;dostuff_switch_lights</title>
<path fill="none" stroke="green" d="M1144.36,-534.382C1081.59,-526.697 970.771,-505.044 899,-445 856.718,-409.627 831.191,-349.735 818.092,-310.276"/>
<polygon fill="green" stroke="green" points="821.412,-309.166 815.028,-300.711 814.746,-311.302 821.412,-309.166"/>
</g>
<!-- play_sound_status -->
<g id="node18" class="node"><title>play_sound_status</title>
<g id="a_node18"><a xlink:href="https://github.com/realraum/door_and_sensors/blob/master/scripts/play-sound-status.py" xlink:title="{play_sound_status.py|read play_sound_status.cfg\lplay jingle when\luser unlocks door\l}" target="_graphviz">
<path fill="DarkRed" stroke="white" d="M1300,-232C1300,-232 1440,-232 1440,-232 1446,-232 1452,-238 1452,-244 1452,-244 1452,-296 1452,-296 1452,-302 1446,-308 1440,-308 1440,-308 1300,-308 1300,-308 1294,-308 1288,-302 1288,-296 1288,-296 1288,-244 1288,-244 1288,-238 1294,-232 1300,-232"/>
<text text-anchor="middle" x="1370" y="-292.8" font-family="Times,serif" font-size="14.00" fill="white">play_sound_status.py</text>
<polyline fill="none" stroke="white" points="1288,-285 1452,-285 "/>
<text text-anchor="start" x="1296" y="-269.8" font-family="Times,serif" font-size="14.00" fill="white">read play_sound_status.cfg</text>
<text text-anchor="start" x="1296" y="-254.8" font-family="Times,serif" font-size="14.00" fill="white">play jingle when</text>
<text text-anchor="start" x="1296" y="-239.8" font-family="Times,serif" font-size="14.00" fill="white">user unlocks door</text>
</a>
</g>
</g>
<!-- mosquito&#45;&gt;play_sound_status -->
<g id="edge28" class="edge"><title>mosquito&#45;&gt;play_sound_status</title>
<path fill="none" stroke="green" d="M1214.67,-516.346C1232.57,-498.162 1257.53,-471.226 1276,-445 1304.77,-404.157 1331.2,-353.535 1348.66,-317.442"/>
<polygon fill="green" stroke="green" points="1351.95,-318.662 1353.12,-308.131 1345.64,-315.637 1351.95,-318.662"/>
</g>
<!-- arduinosensors -->
<g id="node20" class="node"><title>arduinosensors</title>
<g id="a_node20"><a xlink:href="https://github.com/realraum/door_and_sensors/blob/master/scripts/arduinosensors.py" xlink:title="{ArduinoSensors.py|ClientID: pillar}" target="_graphviz">
<path fill="DarkRed" stroke="white" d="M1646.5,-247C1646.5,-247 1743.5,-247 1743.5,-247 1749.5,-247 1755.5,-253 1755.5,-259 1755.5,-259 1755.5,-281 1755.5,-281 1755.5,-287 1749.5,-293 1743.5,-293 1743.5,-293 1646.5,-293 1646.5,-293 1640.5,-293 1634.5,-287 1634.5,-281 1634.5,-281 1634.5,-259 1634.5,-259 1634.5,-253 1640.5,-247 1646.5,-247"/>
<text text-anchor="middle" x="1695" y="-277.8" font-family="Times,serif" font-size="14.00" fill="white">ArduinoSensors.py</text>
<polyline fill="none" stroke="white" points="1634.5,-270 1755.5,-270 "/>
<text text-anchor="middle" x="1695" y="-254.8" font-family="Times,serif" font-size="14.00" fill="white">ClientID: pillar</text>
</a>
</g>
</g>
<!-- mosquito&#45;&gt;arduinosensors -->
<g id="edge23" class="edge"><title>mosquito&#45;&gt;arduinosensors</title>
<path fill="none" stroke="green" d="M1239.64,-533.683C1338.99,-522.774 1563.93,-493.306 1622,-445 1665.35,-408.942 1683.41,-342.716 1690.59,-303.187"/>
<polygon fill="green" stroke="green" points="1694.05,-303.713 1692.26,-293.27 1687.14,-302.548 1694.05,-303.713"/>
</g>
<!-- ircbot -->
<g id="node25" class="node"><title>ircbot</title>
<g id="a_node25"><a xlink:href="https://github.com/realraum/r3bot-mqtt" xlink:title="{IRC r3bot&#45;mqtt|ClientID: ircchanbot|Limnoria IRC Bot Plugin}" target="_graphviz">
<path fill="DarkRed" stroke="white" d="M1914,-235.5C1914,-235.5 2046,-235.5 2046,-235.5 2052,-235.5 2058,-241.5 2058,-247.5 2058,-247.5 2058,-292.5 2058,-292.5 2058,-298.5 2052,-304.5 2046,-304.5 2046,-304.5 1914,-304.5 1914,-304.5 1908,-304.5 1902,-298.5 1902,-292.5 1902,-292.5 1902,-247.5 1902,-247.5 1902,-241.5 1908,-235.5 1914,-235.5"/>
<text text-anchor="middle" x="1980" y="-289.3" font-family="Times,serif" font-size="14.00" fill="white">IRC r3bot&#45;mqtt</text>
<polyline fill="none" stroke="white" points="1902,-281.5 2058,-281.5 "/>
<text text-anchor="middle" x="1980" y="-266.3" font-family="Times,serif" font-size="14.00" fill="white">ClientID: ircchanbot</text>
<polyline fill="none" stroke="white" points="1902,-258.5 2058,-258.5 "/>
<text text-anchor="middle" x="1980" y="-243.3" font-family="Times,serif" font-size="14.00" fill="white">Limnoria IRC Bot Plugin</text>
</a>
</g>
</g>
<!-- mosquito&#45;&gt;ircbot -->
<g id="edge29" class="edge"><title>mosquito&#45;&gt;ircbot</title>
<path fill="none" stroke="green" d="M1239.84,-537.719C1379.7,-534.582 1784.65,-519.154 1890,-445 1933.94,-414.076 1957.92,-355.059 1969.84,-314.396"/>
<polygon fill="green" stroke="green" points="1973.22,-315.312 1972.55,-304.738 1966.48,-313.422 1973.22,-315.312"/>
</g>
<!-- backdoorcx_sensor_node -->
<g id="node4" class="node"><title>backdoorcx_sensor_node</title>
<g id="a_node4"><a xlink:href="https://github.com/realraum/door_and_sensors/tree/master/backdoorcx_sensor_node" xlink:title="{backdoorcx_sensor_node|ClientID: backdoorcx}" target="_graphviz">
<path fill="DarkRed" stroke="white" d="M1122,-671C1122,-671 1252,-671 1252,-671 1258,-671 1264,-677 1264,-683 1264,-683 1264,-705 1264,-705 1264,-711 1258,-717 1252,-717 1252,-717 1122,-717 1122,-717 1116,-717 1110,-711 1110,-705 1110,-705 1110,-683 1110,-683 1110,-677 1116,-671 1122,-671"/>
<text text-anchor="middle" x="1187" y="-701.8" font-family="Times,serif" font-size="14.00" fill="white">backdoorcx_sensor_node</text>
<polyline fill="none" stroke="white" points="1110,-694 1264,-694 "/>
<text text-anchor="middle" x="1187" y="-678.8" font-family="Times,serif" font-size="14.00" fill="white">ClientID: backdoorcx</text>
</a>
</g>
</g>
<!-- backdoorcx_sensor_node&#45;&gt;mosquito -->
<g id="edge13" class="edge"><title>backdoorcx_sensor_node&#45;&gt;mosquito</title>
<path fill="none" stroke="green" d="M1187.73,-670.825C1188.57,-645.075 1189.97,-602.372 1190.94,-572.904"/>
<polygon fill="green" stroke="green" points="1194.44,-572.811 1191.27,-562.702 1187.45,-572.581 1194.44,-572.811"/>
</g>
<!-- r3_metaevt_maker&#45;&gt;mosquito -->
<g id="edge15" class="edge"><title>r3_metaevt_maker&#45;&gt;mosquito</title>
<path fill="none" stroke="green" d="M1028.89,-312.009C1049.69,-353.716 1081.94,-419.001 1121,-468 1133.06,-483.126 1148.6,-497.65 1162.16,-509.543"/>
<polygon fill="green" stroke="green" points="1160.03,-512.324 1169.88,-516.226 1164.61,-507.033 1160.03,-512.324"/>
</g>
<!-- r3_spaceapistatus&#45;&gt;apache -->
<g id="edge10" class="edge"><title>r3_spaceapistatus&#45;&gt;apache</title>
<path fill="none" stroke="black" stroke-dasharray="1,5" d="M1192,-239.485C1192,-204.689 1192,-146.545 1192,-106.564"/>
<polygon fill="black" stroke="black" points="1195.5,-106.563 1192,-96.5631 1188.5,-106.563 1195.5,-106.563"/>
<text text-anchor="middle" x="1201" y="-190.8" font-family="Times,serif" font-size="14.00">ssh</text>
</g>
<!-- golightctrl -->
<g id="node17" class="node"><title>golightctrl</title>
<g id="a_node17"><a xlink:href="https://github.com/realraum/deckenlichtschalter/tree/master/linux/golightctrl" xlink:title="{goLightCtrl|http://licht.realraum.at|Power&#45;,Light&#45;,Stereo&#45;\lcontrol Frontend\lserializes rf433 tx\l}" target="_graphviz">
<path fill="Crimson" stroke="Black" d="M1482.5,-220.5C1482.5,-220.5 1597.5,-220.5 1597.5,-220.5 1603.5,-220.5 1609.5,-226.5 1609.5,-232.5 1609.5,-232.5 1609.5,-307.5 1609.5,-307.5 1609.5,-313.5 1603.5,-319.5 1597.5,-319.5 1597.5,-319.5 1482.5,-319.5 1482.5,-319.5 1476.5,-319.5 1470.5,-313.5 1470.5,-307.5 1470.5,-307.5 1470.5,-232.5 1470.5,-232.5 1470.5,-226.5 1476.5,-220.5 1482.5,-220.5"/>
<text text-anchor="middle" x="1540" y="-304.3" font-family="Times,serif" font-size="14.00">goLightCtrl</text>
<polyline fill="none" stroke="Black" points="1470.5,-296.5 1609.5,-296.5 "/>
<text text-anchor="middle" x="1540" y="-281.3" font-family="Times,serif" font-size="14.00">http://licht.realraum.at</text>
<polyline fill="none" stroke="Black" points="1470.5,-273.5 1609.5,-273.5 "/>
<text text-anchor="start" x="1478.5" y="-258.3" font-family="Times,serif" font-size="14.00">Power&#45;,Light&#45;,Stereo&#45;</text>
<text text-anchor="start" x="1478.5" y="-243.3" font-family="Times,serif" font-size="14.00">control Frontend</text>
<text text-anchor="start" x="1478.5" y="-228.3" font-family="Times,serif" font-size="14.00">serializes rf433 tx</text>
</a>
</g>
</g>
<!-- dostuff_switch_lights&#45;&gt;golightctrl -->
<g id="edge32" class="edge"><title>dostuff_switch_lights&#45;&gt;golightctrl</title>
<path fill="none" stroke="Blue" d="M816.295,-300.649C828.775,-335.745 854.67,-391.537 899,-416 1008.34,-476.341 1353.72,-479.932 1461,-416 1492.52,-397.215 1512.23,-360.999 1524.08,-329.338"/>
<polygon fill="Blue" stroke="Blue" points="1527.46,-330.277 1527.51,-319.683 1520.86,-327.934 1527.46,-330.277"/>
<text text-anchor="middle" x="1133" y="-456.8" font-family="Times,serif" font-size="14.00">HTTP</text>
</g>
<!-- olga_freezer_sensordata_forwarder -->
<g id="node9" class="node"><title>olga_freezer_sensordata_forwarder</title>
<g id="a_node9"><a xlink:href="https://github.com/realraum/door_and_sensors/blob/master/scripts/olga_freezer_sensordata_forwarder.py" xlink:title="{olga_freezer_sensordata_forwarder.py|ClientID: olgafreezer|Temperature\lOverTemp Alarm\lSensorLost Alarm\l}" target="_graphviz">
<path fill="DarkRed" stroke="white" d="M582.5,-644.5C582.5,-644.5 783.5,-644.5 783.5,-644.5 789.5,-644.5 795.5,-650.5 795.5,-656.5 795.5,-656.5 795.5,-731.5 795.5,-731.5 795.5,-737.5 789.5,-743.5 783.5,-743.5 783.5,-743.5 582.5,-743.5 582.5,-743.5 576.5,-743.5 570.5,-737.5 570.5,-731.5 570.5,-731.5 570.5,-656.5 570.5,-656.5 570.5,-650.5 576.5,-644.5 582.5,-644.5"/>
<text text-anchor="middle" x="683" y="-728.3" font-family="Times,serif" font-size="14.00" fill="white">olga_freezer_sensordata_forwarder.py</text>
<polyline fill="none" stroke="white" points="570.5,-720.5 795.5,-720.5 "/>
<text text-anchor="middle" x="683" y="-705.3" font-family="Times,serif" font-size="14.00" fill="white">ClientID: olgafreezer</text>
<polyline fill="none" stroke="white" points="570.5,-697.5 795.5,-697.5 "/>
<text text-anchor="start" x="578.5" y="-682.3" font-family="Times,serif" font-size="14.00" fill="white">Temperature</text>
<text text-anchor="start" x="578.5" y="-667.3" font-family="Times,serif" font-size="14.00" fill="white">OverTemp Alarm</text>
<text text-anchor="start" x="578.5" y="-652.3" font-family="Times,serif" font-size="14.00" fill="white">SensorLost Alarm</text>
</a>
</g>
</g>
<!-- olga_freezer_sensordata_forwarder&#45;&gt;smstools -->
<g id="edge11" class="edge"><title>olga_freezer_sensordata_forwarder&#45;&gt;smstools</title>
<path fill="none" stroke="black" d="M716.511,-644.329C733.001,-620.379 752.379,-592.235 766.798,-571.294"/>
<polygon fill="black" stroke="black" points="769.862,-573.015 772.65,-562.793 764.097,-569.045 769.862,-573.015"/>
</g>
<!-- olga_freezer_sensordata_forwarder&#45;&gt;mosquito -->
<g id="edge19" class="edge"><title>olga_freezer_sensordata_forwarder&#45;&gt;mosquito</title>
<path fill="none" stroke="green" d="M795.543,-646.892C798.383,-645.9 801.206,-644.934 804,-644 919.479,-605.381 1057.99,-571.282 1134.35,-553.511"/>
<polygon fill="green" stroke="green" points="1135.3,-556.884 1144.25,-551.217 1133.72,-550.064 1135.3,-556.884"/>
</g>
<!-- apcupsd_mqtt_notify -->
<g id="node10" class="node"><title>apcupsd_mqtt_notify</title>
<g id="a_node10"><a xlink:href="https://github.com/realraum/door_and_sensors/blob/master/scripts/apcupsd-mqtt-notify.py" xlink:title="{apcupsd&#45;mqtt&#45;notify.py|ClientID: &#45;|repackage as mqtt\lsend SMS on powerloss}" target="_graphviz">
<path fill="DarkRed" stroke="white" d="M954.5,-652C954.5,-652 1079.5,-652 1079.5,-652 1085.5,-652 1091.5,-658 1091.5,-664 1091.5,-664 1091.5,-724 1091.5,-724 1091.5,-730 1085.5,-736 1079.5,-736 1079.5,-736 954.5,-736 954.5,-736 948.5,-736 942.5,-730 942.5,-724 942.5,-724 942.5,-664 942.5,-664 942.5,-658 948.5,-652 954.5,-652"/>
<text text-anchor="middle" x="1017" y="-720.8" font-family="Times,serif" font-size="14.00" fill="white">apcupsd&#45;mqtt&#45;notify.py</text>
<polyline fill="none" stroke="white" points="942.5,-713 1091.5,-713 "/>
<text text-anchor="middle" x="1017" y="-697.8" font-family="Times,serif" font-size="14.00" fill="white">ClientID: &#45;</text>
<polyline fill="none" stroke="white" points="942.5,-690 1091.5,-690 "/>
<text text-anchor="start" x="950.5" y="-674.8" font-family="Times,serif" font-size="14.00" fill="white">repackage as mqtt</text>
<text text-anchor="middle" x="1017" y="-659.8" font-family="Times,serif" font-size="14.00" fill="white">send SMS on powerloss</text>
</a>
</g>
</g>
<!-- apcupsd_mqtt_notify&#45;&gt;smstools -->
<g id="edge12" class="edge"><title>apcupsd_mqtt_notify&#45;&gt;smstools</title>
<path fill="none" stroke="black" d="M955.331,-651.932C915.519,-625.42 864.792,-591.639 829.68,-568.257"/>
<polygon fill="black" stroke="black" points="831.37,-565.177 821.106,-562.547 827.49,-571.003 831.37,-565.177"/>
</g>
<!-- apcupsd_mqtt_notify&#45;&gt;mosquito -->
<g id="edge20" class="edge"><title>apcupsd_mqtt_notify&#45;&gt;mosquito</title>
<path fill="none" stroke="green" d="M1064.36,-651.731C1094.21,-625.719 1132.02,-592.772 1158.71,-569.508"/>
<polygon fill="green" stroke="green" points="1161.04,-572.126 1166.28,-562.917 1156.44,-566.849 1161.04,-572.126"/>
</g>
<!-- xbeesensors -->
<g id="node11" class="node"><title>xbeesensors</title>
<g id="a_node11"><a xlink:href="https://github.com/realraum/door_and_sensors/blob/master/scripts/xbeesensors.py" xlink:title="{XbeeSensors.py|ClientID: xbee|remote Temp\lremote Humidity\l}" target="_graphviz">
<path fill="DarkRed" stroke="white" d="M825.5,-652C825.5,-652 912.5,-652 912.5,-652 918.5,-652 924.5,-658 924.5,-664 924.5,-664 924.5,-724 924.5,-724 924.5,-730 918.5,-736 912.5,-736 912.5,-736 825.5,-736 825.5,-736 819.5,-736 813.5,-730 813.5,-724 813.5,-724 813.5,-664 813.5,-664 813.5,-658 819.5,-652 825.5,-652"/>
<text text-anchor="middle" x="869" y="-720.8" font-family="Times,serif" font-size="14.00" fill="white">XbeeSensors.py</text>
<polyline fill="none" stroke="white" points="813.5,-713 924.5,-713 "/>
<text text-anchor="middle" x="869" y="-697.8" font-family="Times,serif" font-size="14.00" fill="white">ClientID: xbee</text>
<polyline fill="none" stroke="white" points="813.5,-690 924.5,-690 "/>
<text text-anchor="start" x="821.5" y="-674.8" font-family="Times,serif" font-size="14.00" fill="white">remote Temp</text>
<text text-anchor="start" x="821.5" y="-659.8" font-family="Times,serif" font-size="14.00" fill="white">remote Humidity</text>
</a>
</g>
</g>
<!-- xbeesensors&#45;&gt;mosquito -->
<g id="edge26" class="edge"><title>xbeesensors&#45;&gt;mosquito</title>
<path fill="none" stroke="green" d="M920.218,-651.908C924.452,-649.094 928.742,-646.42 933,-644 998.789,-606.611 1080.77,-576.301 1134.66,-558.361"/>
<polygon fill="green" stroke="green" points="1135.98,-561.61 1144.39,-555.156 1133.79,-554.961 1135.98,-561.61"/>
</g>
<!-- backdoorminimus -->
<g id="node12" class="node"><title>backdoorminimus</title>
<polygon fill="DodgerBlue" stroke="black" points="1132.5,-871.5 1132.5,-947.5 1241.5,-947.5 1241.5,-871.5 1132.5,-871.5"/>
<text text-anchor="middle" x="1187" y="-932.3" font-family="Times,serif" font-size="14.00">Minimus32</text>
<polyline fill="none" stroke="black" points="1132.5,-924.5 1241.5,-924.5 "/>
<text text-anchor="start" x="1140.5" y="-909.3" font-family="Times,serif" font-size="14.00">BackdoorAjar</text>
<text text-anchor="start" x="1140.5" y="-894.3" font-family="Times,serif" font-size="14.00">GasAlert</text>
<text text-anchor="start" x="1140.5" y="-879.3" font-family="Times,serif" font-size="14.00">CX Temperature</text>
</g>
<!-- backdoorminimus&#45;&gt;backdoorcx_sensor_node -->
<g id="edge4" class="edge"><title>backdoorminimus&#45;&gt;backdoorcx_sensor_node</title>
<path fill="none" stroke="red" d="M1187,-871.311C1187,-830.578 1187,-765.912 1187,-727.249"/>
<polygon fill="red" stroke="red" points="1190.5,-727.075 1187,-717.075 1183.5,-727.075 1190.5,-727.075"/>
<text text-anchor="middle" x="1213.5" y="-830.3" font-family="Times,serif" font-size="14.00">ttyACM0</text>
</g>
<!-- YellowUPS -->
<g id="node13" class="node"><title>YellowUPS</title>
<polygon fill="DodgerBlue" stroke="black" points="972.5,-879 972.5,-940 1061.5,-940 1061.5,-879 972.5,-879"/>
<text text-anchor="middle" x="1017" y="-924.8" font-family="Times,serif" font-size="14.00">YellowUPS</text>
<polyline fill="none" stroke="black" points="972.5,-917 1061.5,-917 "/>
<text text-anchor="start" x="980.5" y="-901.8" font-family="Times,serif" font-size="14.00">PowerInfo</text>
<text text-anchor="start" x="980.5" y="-886.8" font-family="Times,serif" font-size="14.00">BatteryTemp</text>
</g>
<!-- YellowUPS&#45;&gt;apcupsd_mqtt_notify -->
<g id="edge7" class="edge"><title>YellowUPS&#45;&gt;apcupsd_mqtt_notify</title>
<path fill="none" stroke="red" d="M1017,-878.814C1017,-844.591 1017,-787.741 1017,-746.311"/>
<polygon fill="red" stroke="red" points="1020.5,-746.133 1017,-736.133 1013.5,-746.133 1020.5,-746.133"/>
<text text-anchor="middle" x="1030.5" y="-830.3" font-family="Times,serif" font-size="14.00">APC</text>
</g>
<!-- door_client -->
<g id="node14" class="node"><title>door_client</title>
<g id="a_node14"><a xlink:href="https://github.com/realraum/door_and_sensors/tree/master/door_client" xlink:title="\N" target="_graphviz">
<path fill="DarkRed" stroke="white" d="M1979,-891.5C1979,-891.5 2033,-891.5 2033,-891.5 2039,-891.5 2045,-897.5 2045,-903.5 2045,-903.5 2045,-915.5 2045,-915.5 2045,-921.5 2039,-927.5 2033,-927.5 2033,-927.5 1979,-927.5 1979,-927.5 1973,-927.5 1967,-921.5 1967,-915.5 1967,-915.5 1967,-903.5 1967,-903.5 1967,-897.5 1973,-891.5 1979,-891.5"/>
<text text-anchor="middle" x="2006" y="-905.8" font-family="Times,serif" font-size="14.00" fill="white">door_client</text>
</a>
</g>
</g>
<!-- door_daemon -->
<g id="node15" class="node"><title>door_daemon</title>
<g id="a_node15"><a xlink:href="https://github.com/realraum/door_and_sensors/tree/master/door_daemon" xlink:title="{door_daemon|ClientID: frontdoor}" target="_graphviz">
<path fill="DarkRed" stroke="white" d="M1957,-671C1957,-671 2055,-671 2055,-671 2061,-671 2067,-677 2067,-683 2067,-683 2067,-705 2067,-705 2067,-711 2061,-717 2055,-717 2055,-717 1957,-717 1957,-717 1951,-717 1945,-711 1945,-705 1945,-705 1945,-683 1945,-683 1945,-677 1951,-671 1957,-671"/>
<text text-anchor="middle" x="2006" y="-701.8" font-family="Times,serif" font-size="14.00" fill="white">door_daemon</text>
<polyline fill="none" stroke="white" points="1945,-694 2067,-694 "/>
<text text-anchor="middle" x="2006" y="-678.8" font-family="Times,serif" font-size="14.00" fill="white">ClientID: frontdoor</text>
</a>
</g>
</g>
<!-- door_client&#45;&gt;door_daemon -->
<g id="edge30" class="edge"><title>door_client&#45;&gt;door_daemon</title>
<path fill="none" stroke="DeepPink" d="M2006,-891.389C2006,-855.771 2006,-773.165 2006,-727.245"/>
<polygon fill="DeepPink" stroke="DeepPink" points="2009.5,-727.222 2006,-717.222 2002.5,-727.222 2009.5,-727.222"/>
<text text-anchor="middle" x="2019" y="-830.3" font-family="Times,serif" font-size="14.00">RPC</text>
</g>
<!-- door_daemon&#45;&gt;mosquito -->
<g id="edge21" class="edge"><title>door_daemon&#45;&gt;mosquito</title>
<path fill="none" stroke="green" d="M1979.56,-670.987C1966.36,-661.157 1949.68,-650.374 1933,-644 1691.65,-551.782 1378,-540.385 1250.11,-539.887"/>
<polygon fill="green" stroke="green" points="1249.78,-536.387 1239.77,-539.87 1249.77,-543.387 1249.78,-536.387"/>
</g>
<!-- teenstep -->
<g id="node16" class="node"><title>teenstep</title>
<g id="a_node16"><a xlink:href="https://github.com/realraum/teenstep" xlink:title="{r³&#45;TeenStep|Custom ATMega32U Board\lwith StepperDriver\lreads RFID Cards\lcontrols DoorLock\lreads AJAR Sensor\l}" target="_graphviz">
<polygon fill="DodgerBlue" stroke="black" points="1959.5,-486.5 1959.5,-592.5 2132.5,-592.5 2132.5,-486.5 1959.5,-486.5"/>
<text text-anchor="middle" x="2046" y="-577.3" font-family="Times,serif" font-size="14.00">r³&#45;TeenStep</text>
<polyline fill="none" stroke="black" points="1959.5,-569.5 2132.5,-569.5 "/>
<text text-anchor="start" x="1967.5" y="-554.3" font-family="Times,serif" font-size="14.00">Custom ATMega32U Board</text>
<text text-anchor="start" x="1967.5" y="-539.3" font-family="Times,serif" font-size="14.00">with StepperDriver</text>
<text text-anchor="start" x="1967.5" y="-524.3" font-family="Times,serif" font-size="14.00">reads RFID Cards</text>
<text text-anchor="start" x="1967.5" y="-509.3" font-family="Times,serif" font-size="14.00">controls DoorLock</text>
<text text-anchor="start" x="1967.5" y="-494.3" font-family="Times,serif" font-size="14.00">reads AJAR Sensor</text>
</a>
</g>
</g>
<!-- door_daemon&#45;&gt;teenstep -->
<g id="edge9" class="edge"><title>door_daemon&#45;&gt;teenstep</title>
<path fill="none" stroke="red" d="M1991.16,-670.761C1981.96,-654.087 1973.26,-630.824 1981,-611 1982.28,-607.722 1983.79,-604.504 1985.49,-601.36"/>
<polygon fill="red" stroke="red" points="1988.55,-603.07 1990.72,-592.701 1982.56,-599.449 1988.55,-603.07"/>
<text text-anchor="middle" x="2007.5" y="-614.8" font-family="Times,serif" font-size="14.00">ttyACM0</text>
</g>
<!-- teenstep&#45;&gt;door_daemon -->
<g id="edge8" class="edge"><title>teenstep&#45;&gt;door_daemon</title>
<path fill="none" stroke="red" d="M2044.07,-592.573C2042.84,-603.735 2040.94,-615.366 2038,-626 2034.66,-638.109 2029.22,-650.708 2023.77,-661.669"/>
<polygon fill="red" stroke="red" points="2020.52,-660.337 2019.03,-670.827 2026.74,-663.555 2020.52,-660.337"/>
<text text-anchor="middle" x="2067.5" y="-614.8" font-family="Times,serif" font-size="14.00">ttyACM0</text>
</g>
<!-- golightctrl&#45;&gt;mosquito -->
<g id="edge22" class="edge"><title>golightctrl&#45;&gt;mosquito</title>
<path fill="none" stroke="green" d="M1529.16,-319.713C1518.15,-358.565 1497.4,-411.796 1461,-445 1401.61,-499.18 1309.15,-522.254 1249.58,-531.879"/>
<polygon fill="green" stroke="green" points="1248.94,-528.437 1239.59,-533.418 1250,-535.356 1248.94,-528.437"/>
</g>
<!-- ceilingteensy -->
<g id="node19" class="node"><title>ceilingteensy</title>
<g id="a_node19"><a xlink:href="https://github.com/realraum/deckenlichtschalter/tree/master/teensy2" xlink:title="{Teensy2|Ceilinglights\lRF433 TX}" target="_graphviz">
<polygon fill="DodgerBlue" stroke="black" points="1467,-31.5 1467,-92.5 1553,-92.5 1553,-31.5 1467,-31.5"/>
<text text-anchor="middle" x="1510" y="-77.3" font-family="Times,serif" font-size="14.00">Teensy2</text>
<polyline fill="none" stroke="black" points="1467,-69.5 1553,-69.5 "/>
<text text-anchor="start" x="1475" y="-54.3" font-family="Times,serif" font-size="14.00">Ceilinglights</text>
<text text-anchor="middle" x="1510" y="-39.3" font-family="Times,serif" font-size="14.00">RF433 TX</text>
</a>
</g>
</g>
<!-- golightctrl&#45;&gt;ceilingteensy -->
<g id="edge5" class="edge"><title>golightctrl&#45;&gt;ceilingteensy</title>
<path fill="none" stroke="red" d="M1483.36,-220.2C1479.22,-214.475 1475.64,-208.383 1473,-202 1459.48,-169.353 1472.21,-130.328 1486.3,-101.951"/>
<polygon fill="red" stroke="red" points="1489.57,-103.245 1491.1,-92.7604 1483.37,-100.007 1489.57,-103.245"/>
<text text-anchor="middle" x="1499.5" y="-190.8" font-family="Times,serif" font-size="14.00">ttyACM0</text>
</g>
<!-- ceilingteensy&#45;&gt;golightctrl -->
<g id="edge6" class="edge"><title>ceilingteensy&#45;&gt;golightctrl</title>
<path fill="none" stroke="red" d="M1514.33,-92.7509C1518.8,-123.407 1525.87,-172.003 1531.47,-210.41"/>
<polygon fill="red" stroke="red" points="1528.02,-211.051 1532.93,-220.442 1534.95,-210.042 1528.02,-211.051"/>
<text text-anchor="middle" x="1556.5" y="-190.8" font-family="Times,serif" font-size="14.00">ttyACM1</text>
</g>
<!-- arduinosensors&#45;&gt;mosquito -->
<g id="edge24" class="edge"><title>arduinosensors&#45;&gt;mosquito</title>
<path fill="none" stroke="green" d="M1692.69,-293.076C1687,-335.195 1668.11,-426.52 1609,-468 1551.91,-508.063 1349.91,-527.489 1249.51,-534.845"/>
<polygon fill="green" stroke="green" points="1249.26,-531.354 1239.54,-535.561 1249.76,-538.336 1249.26,-531.354"/>
</g>
<!-- pillararduino -->
<g id="node21" class="node"><title>pillararduino</title>
<polygon fill="DodgerBlue" stroke="black" points="1657,-16.5 1657,-107.5 1785,-107.5 1785,-16.5 1657,-16.5"/>
<text text-anchor="middle" x="1721" y="-92.3" font-family="Times,serif" font-size="14.00">Arduino</text>
<polyline fill="none" stroke="black" points="1657,-84.5 1785,-84.5 "/>
<text text-anchor="start" x="1665" y="-69.3" font-family="Times,serif" font-size="14.00">Lightlevel</text>
<text text-anchor="start" x="1665" y="-54.3" font-family="Times,serif" font-size="14.00">RF433 TX</text>
<text text-anchor="start" x="1665" y="-39.3" font-family="Times,serif" font-size="14.00">YamahaStereo IR tx</text>
<text text-anchor="start" x="1665" y="-24.3" font-family="Times,serif" font-size="14.00">BoreDoooomButton</text>
</g>
<!-- arduinosensors&#45;&gt;pillararduino -->
<g id="edge2" class="edge"><title>arduinosensors&#45;&gt;pillararduino</title>
<path fill="none" stroke="red" d="M1681.93,-246.688C1673.93,-230.372 1665.93,-207.587 1670,-187 1674.72,-163.129 1684.09,-138.078 1693.52,-116.791"/>
<polygon fill="red" stroke="red" points="1696.74,-118.155 1697.7,-107.603 1690.37,-115.257 1696.74,-118.155"/>
<text text-anchor="middle" x="1694" y="-190.8" font-family="Times,serif" font-size="14.00">ttyUSB0</text>
</g>
<!-- pillararduino&#45;&gt;arduinosensors -->
<g id="edge1" class="edge"><title>pillararduino&#45;&gt;arduinosensors</title>
<path fill="none" stroke="red" d="M1725.77,-107.545C1727.61,-135.022 1728.04,-170.846 1722,-202 1719.67,-213.998 1715.21,-226.571 1710.56,-237.542"/>
<polygon fill="red" stroke="red" points="1707.35,-236.156 1706.49,-246.716 1713.75,-238.997 1707.35,-236.156"/>
<text text-anchor="middle" x="1749" y="-190.8" font-family="Times,serif" font-size="14.00">ttyUSB0</text>
</g>
<!-- smallkioskdht11query -->
<g id="node22" class="node"><title>smallkioskdht11query</title>
<g id="a_node22"><a xlink:href="https://github.com/realraum/door_and_sensors/blob/master/scripts/dht11sensor.py" xlink:title="{dht11sensor.py|ClientID: smallkiosk|Temp,Humidity}" target="_graphviz">
<path fill="DarkRed" stroke="white" d="M1300.5,-659.5C1300.5,-659.5 1407.5,-659.5 1407.5,-659.5 1413.5,-659.5 1419.5,-665.5 1419.5,-671.5 1419.5,-671.5 1419.5,-716.5 1419.5,-716.5 1419.5,-722.5 1413.5,-728.5 1407.5,-728.5 1407.5,-728.5 1300.5,-728.5 1300.5,-728.5 1294.5,-728.5 1288.5,-722.5 1288.5,-716.5 1288.5,-716.5 1288.5,-671.5 1288.5,-671.5 1288.5,-665.5 1294.5,-659.5 1300.5,-659.5"/>
<text text-anchor="middle" x="1354" y="-713.3" font-family="Times,serif" font-size="14.00" fill="white">dht11sensor.py</text>
<polyline fill="none" stroke="white" points="1288.5,-705.5 1419.5,-705.5 "/>
<text text-anchor="middle" x="1354" y="-690.3" font-family="Times,serif" font-size="14.00" fill="white">ClientID: smallkiosk</text>
<polyline fill="none" stroke="white" points="1288.5,-682.5 1419.5,-682.5 "/>
<text text-anchor="middle" x="1354" y="-667.3" font-family="Times,serif" font-size="14.00" fill="white">Temp,Humidity</text>
</a>
</g>
</g>
<!-- smallkioskdht11query&#45;&gt;mosquito -->
<g id="edge25" class="edge"><title>smallkioskdht11query&#45;&gt;mosquito</title>
<path fill="none" stroke="green" d="M1318.05,-659.155C1289.59,-632.366 1250.25,-595.336 1223.13,-569.804"/>
<polygon fill="green" stroke="green" points="1225.5,-567.231 1215.82,-562.925 1220.7,-572.328 1225.5,-567.231"/>
</g>
<!-- laserctl -->
<g id="node23" class="node"><title>laserctl</title>
<g id="a_node23"><a xlink:href="https://github.com/realraum/laserctl/tree/master/raspberry/laser" xlink:title="{lasermon.py|ClientID: lasercutter|LaserCardEvent}" target="_graphviz">
<path fill="DarkRed" stroke="white" d="M1622,-659.5C1622,-659.5 1726,-659.5 1726,-659.5 1732,-659.5 1738,-665.5 1738,-671.5 1738,-671.5 1738,-716.5 1738,-716.5 1738,-722.5 1732,-728.5 1726,-728.5 1726,-728.5 1622,-728.5 1622,-728.5 1616,-728.5 1610,-722.5 1610,-716.5 1610,-716.5 1610,-671.5 1610,-671.5 1610,-665.5 1616,-659.5 1622,-659.5"/>
<text text-anchor="middle" x="1674" y="-713.3" font-family="Times,serif" font-size="14.00" fill="white">lasermon.py</text>
<polyline fill="none" stroke="white" points="1610,-705.5 1738,-705.5 "/>
<text text-anchor="middle" x="1674" y="-690.3" font-family="Times,serif" font-size="14.00" fill="white">ClientID: lasercutter</text>
<polyline fill="none" stroke="white" points="1610,-682.5 1738,-682.5 "/>
<text text-anchor="middle" x="1674" y="-667.3" font-family="Times,serif" font-size="14.00" fill="white">LaserCardEvent</text>
</a>
</g>
</g>
<!-- laserctl&#45;&gt;mosquito -->
<g id="edge27" class="edge"><title>laserctl&#45;&gt;mosquito</title>
<path fill="none" stroke="green" d="M1627.07,-659.438C1617.74,-653.724 1607.79,-648.266 1598,-644 1479.54,-592.355 1329.98,-562.546 1249.52,-549.137"/>
<polygon fill="green" stroke="green" points="1250.02,-545.672 1239.59,-547.506 1248.89,-552.58 1250.02,-545.672"/>
</g>
<!-- olgafreezerarduino -->
<g id="node24" class="node"><title>olgafreezerarduino</title>
<g id="a_node24"><a xlink:href="https://github.com/realraum/olgafreezer_httpPOEtempsensor" xlink:title="{Seeduino (POE, ENC28J60)|olgafreezer.realraum.at|Temperatures&#45;\ldisplay and alert\l}" target="_graphviz">
<polygon fill="DodgerBlue" stroke="black" points="154,-867.5 154,-951.5 326,-951.5 326,-867.5 154,-867.5"/>
<text text-anchor="middle" x="240" y="-936.3" font-family="Times,serif" font-size="14.00">Seeduino (POE, ENC28J60)</text>
<polyline fill="none" stroke="black" points="154,-928.5 326,-928.5 "/>
<text text-anchor="middle" x="240" y="-913.3" font-family="Times,serif" font-size="14.00">olgafreezer.realraum.at</text>
<polyline fill="none" stroke="black" points="154,-905.5 326,-905.5 "/>
<text text-anchor="start" x="162" y="-890.3" font-family="Times,serif" font-size="14.00">Temperatures&#45;</text>
<text text-anchor="start" x="162" y="-875.3" font-family="Times,serif" font-size="14.00">display and alert</text>
</a>
</g>
</g>
<!-- olgafreezerarduino&#45;&gt;olga_freezer_sensordata_forwarder -->
<g id="edge31" class="edge"><title>olgafreezerarduino&#45;&gt;olga_freezer_sensordata_forwarder</title>
<path fill="none" stroke="Blue" d="M288.26,-867.349C309.109,-850.886 334.342,-832.637 359,-819 422.793,-783.719 498.69,-754.081 560.985,-732.637"/>
<polygon fill="Blue" stroke="Blue" points="562.135,-735.942 570.468,-729.399 559.874,-729.318 562.135,-735.942"/>
<text text-anchor="middle" x="376" y="-830.3" font-family="Times,serif" font-size="14.00">HTTP</text>
</g>
<!-- outsidexbee -->
<g id="node26" class="node"><title>outsidexbee</title>
<polygon fill="DodgerBlue" stroke="black" points="344,-879 344,-940 486,-940 486,-879 344,-879"/>
<text text-anchor="middle" x="415" y="-924.8" font-family="Times,serif" font-size="14.00">Xbee TunnelFIO Node</text>
<polyline fill="none" stroke="black" points="344,-917 486,-917 "/>
<text text-anchor="start" x="352" y="-901.8" font-family="Times,serif" font-size="14.00">Temperature</text>
<text text-anchor="start" x="352" y="-886.8" font-family="Times,serif" font-size="14.00">Humidity</text>
</g>
<!-- outsidexbee&#45;&gt;xbeesensors -->
<g id="edge3" class="edge"><title>outsidexbee&#45;&gt;xbeesensors</title>
<path fill="none" stroke="red" stroke-dasharray="1,5" d="M452.953,-878.9C464.322,-871.324 477.188,-863.933 490,-859 621.748,-808.273 687.952,-891.397 804,-811 826.599,-795.344 842.239,-769.15 852.503,-745.612"/>
<polygon fill="red" stroke="red" points="855.862,-746.647 856.444,-736.068 849.392,-743.975 855.862,-746.647"/>
<text text-anchor="start" x="791" y="-837.8" font-family="Times,serif" font-size="14.00">ttyUSB1</text>
<text text-anchor="middle" x="815" y="-822.8" font-family="Times,serif" font-size="14.00">ZigBee</text>
</g>
</g>
</svg>
