<?xml version="1.0" encoding="UTF-8" standalone="no"?>
<!DOCTYPE svg PUBLIC "-//W3C//DTD SVG 1.1//EN"
 "http://www.w3.org/Graphics/SVG/1.1/DTD/svg11.dtd">
<!-- Generated by graphviz version 2.38.0 (20140413.2041)
 -->
<!-- Title: doorsensornodes Pages: 1 -->
<svg width="282pt" height="114pt"
 viewBox="0.00 0.00 282.00 114.00" xmlns="http://www.w3.org/2000/svg" xmlns:xlink="http://www.w3.org/1999/xlink">
<g id="graph0" class="graph" transform="scale(1 1) rotate(0) translate(4 110)">
<title>doorsensornodes</title>
<polygon fill="white" stroke="none" points="-4,4 -4,-110 278,-110 278,4 -4,4"/>
<g id="clust1" class="cluster"><title>clusterGraph</title>
<path fill="Khaki" stroke="black" d="M20,-8C20,-8 254,-8 254,-8 260,-8 266,-14 266,-20 266,-20 266,-86 266,-86 266,-92 260,-98 254,-98 254,-98 20,-98 20,-98 14,-98 8,-92 8,-86 8,-86 8,-20 8,-20 8,-14 14,-8 20,-8"/>
<text text-anchor="middle" x="137" y="-73.2" font-family="UbuntuMono" font-size="26.00">domain.name</text>
</g>
<!-- aservernode -->
<g id="node1" class="node"><title>aservernode</title>
<path fill="Crimson" stroke="Black" d="M188.5,-16.5C188.5,-16.5 245.5,-16.5 245.5,-16.5 251.5,-16.5 257.5,-22.5 257.5,-28.5 257.5,-28.5 257.5,-40.5 257.5,-40.5 257.5,-46.5 251.5,-52.5 245.5,-52.5 245.5,-52.5 188.5,-52.5 188.5,-52.5 182.5,-52.5 176.5,-46.5 176.5,-40.5 176.5,-40.5 176.5,-28.5 176.5,-28.5 176.5,-22.5 182.5,-16.5 188.5,-16.5"/>
<text text-anchor="middle" x="217" y="-30.8" font-family="Times,serif" font-size="14.00">ServerNode</text>
</g>
<!-- anode -->
<g id="node2" class="node"><title>anode</title>
<path fill="DarkRed" stroke="white" d="M116,-16.5C116,-16.5 146,-16.5 146,-16.5 152,-16.5 158,-22.5 158,-28.5 158,-28.5 158,-40.5 158,-40.5 158,-46.5 152,-52.5 146,-52.5 146,-52.5 116,-52.5 116,-52.5 110,-52.5 104,-46.5 104,-40.5 104,-40.5 104,-28.5 104,-28.5 104,-22.5 110,-16.5 116,-16.5"/>
<text text-anchor="middle" x="131" y="-30.8" font-family="Times,serif" font-size="14.00" fill="white">Node</text>
</g>
<!-- ahardware -->
<g id="node3" class="node"><title>ahardware</title>
<polygon fill="DodgerBlue" stroke="black" points="16,-16.5 16,-52.5 86,-52.5 86,-16.5 16,-16.5"/>
<text text-anchor="middle" x="51" y="-30.8" font-family="Times,serif" font-size="14.00">Hardware</text>
</g>
</g>
</svg>
