<?xml version="1.0" encoding="UTF-8" standalone="no"?>
<!DOCTYPE svg PUBLIC "-//W3C//DTD SVG 1.1//EN"
 "http://www.w3.org/Graphics/SVG/1.1/DTD/svg11.dtd">
<!-- Generated by graphviz version 2.38.0 (20140413.2041)
 -->
<!-- Title: %3 Pages: 1 -->
<svg width="306pt" height="149pt"
 viewBox="0.00 0.00 306.00 149.00" xmlns="http://www.w3.org/2000/svg" xmlns:xlink="http://www.w3.org/1999/xlink">
<g id="graph0" class="graph" transform="scale(1 1) rotate(0) translate(4 145)">
<title>%3</title>
<polygon fill="white" stroke="none" points="-4,4 -4,-145 302,-145 302,4 -4,4"/>
<!-- key -->
<g id="node1" class="node"><title>key</title>
<text text-anchor="start" x="74" y="-123.3" font-family="Times,serif" font-size="14.00">Serial</text>
<text text-anchor="start" x="10" y="-104.3" font-family="Times,serif" font-size="14.00">Serial via ZigBee</text>
<text text-anchor="start" x="66" y="-85.3" font-family="Times,serif" font-size="14.00">MQTT</text>
<text text-anchor="start" x="54" y="-66.3" font-family="Times,serif" font-size="14.00">Shell call</text>
<text text-anchor="start" x="13" y="-47.3" font-family="Times,serif" font-size="14.00">Shell call via ssh</text>
<text text-anchor="start" x="80" y="-28.3" font-family="Times,serif" font-size="14.00">RPC</text>
<text text-anchor="start" x="72" y="-9.3" font-family="Times,serif" font-size="14.00">HTTP</text>
</g>
<!-- key2 -->
<g id="node2" class="node"><title>key2</title>
<text text-anchor="start" x="269" y="-123.3" font-family="Times,serif" font-size="14.00"> </text>
<text text-anchor="start" x="269" y="-104.3" font-family="Times,serif" font-size="14.00"> </text>
<text text-anchor="start" x="269" y="-85.3" font-family="Times,serif" font-size="14.00"> </text>
<text text-anchor="start" x="269" y="-66.3" font-family="Times,serif" font-size="14.00"> </text>
<text text-anchor="start" x="269" y="-47.3" font-family="Times,serif" font-size="14.00"> </text>
<text text-anchor="start" x="269" y="-28.3" font-family="Times,serif" font-size="14.00"> </text>
<text text-anchor="start" x="269" y="-9.3" font-family="Times,serif" font-size="14.00"> </text>
</g>
<!-- key&#45;&gt;key2 -->
<g id="edge1" class="edge"><title>key:i1:e&#45;&gt;key2:i1:w</title>
<path fill="none" stroke="red" d="M108,-127.5C108,-127.5 221.194,-127.5 256.568,-127.5"/>
<polygon fill="red" stroke="red" points="257,-131 267,-127.5 257,-124 257,-131"/>
</g>
<!-- key&#45;&gt;key2 -->
<g id="edge2" class="edge"><title>key:i2:e&#45;&gt;key2:i2:w</title>
<path fill="none" stroke="red" stroke-dasharray="1,5" d="M108,-108.5C108,-108.5 221.194,-108.5 256.568,-108.5"/>
<polygon fill="red" stroke="red" points="257,-112 267,-108.5 257,-105 257,-112"/>
</g>
<!-- key&#45;&gt;key2 -->
<g id="edge3" class="edge"><title>key:i3:e&#45;&gt;key2:i3:w</title>
<path fill="none" stroke="green" d="M108,-89.5C108,-89.5 221.194,-89.5 256.568,-89.5"/>
<polygon fill="green" stroke="green" points="257,-93.0001 267,-89.5 257,-86.0001 257,-93.0001"/>
</g>
<!-- key&#45;&gt;key2 -->
<g id="edge4" class="edge"><title>key:i4:e&#45;&gt;key2:i4:w</title>
<path fill="none" stroke="black" d="M108,-69.5C108,-69.5 221.194,-69.5 256.568,-69.5"/>
<polygon fill="black" stroke="black" points="257,-73.0001 267,-69.5 257,-66.0001 257,-73.0001"/>
</g>
<!-- key&#45;&gt;key2 -->
<g id="edge5" class="edge"><title>key:i5:e&#45;&gt;key2:i5:w</title>
<path fill="none" stroke="black" stroke-dasharray="1,5" d="M108,-50.5C108,-50.5 221.194,-50.5 256.568,-50.5"/>
<polygon fill="black" stroke="black" points="257,-54.0001 267,-50.5 257,-47.0001 257,-54.0001"/>
</g>
<!-- key&#45;&gt;key2 -->
<g id="edge6" class="edge"><title>key:i6:e&#45;&gt;key2:i6:w</title>
<path fill="none" stroke="DeepPink" d="M108,-31.5C108,-31.5 221.194,-31.5 256.568,-31.5"/>
<polygon fill="DeepPink" stroke="DeepPink" points="257,-35.0001 267,-31.5 257,-28.0001 257,-35.0001"/>
</g>
<!-- key&#45;&gt;key2 -->
<g id="edge7" class="edge"><title>key:i7:e&#45;&gt;key2:i7:w</title>
<path fill="none" stroke="Blue" d="M108,-12.5C108,-12.5 221.194,-12.5 256.568,-12.5"/>
<polygon fill="Blue" stroke="Blue" points="257,-16.0001 267,-12.5 257,-9.0001 257,-16.0001"/>
</g>
</g>
</svg>
