<?xml version="1.0" encoding="UTF-8" standalone="no"?>
<!DOCTYPE svg PUBLIC "-//W3C//DTD SVG 1.1//EN"
 "http://www.w3.org/Graphics/SVG/1.1/DTD/svg11.dtd">
<!-- Generated by graphviz version 2.38.0 (20140413.2041)
 -->
<!-- Title: doorsensornodes Pages: 1 -->
<svg width="2988pt" height="2068pt"
 viewBox="0.00 0.00 2988.01 2067.66" xmlns="http://www.w3.org/2000/svg" xmlns:xlink="http://www.w3.org/1999/xlink">
<g id="graph0" class="graph" transform="scale(1 1) rotate(0) translate(4 2063.66)">
<title>doorsensornodes</title>
<polygon fill="white" stroke="none" points="-4,4 -4,-2063.66 2984.01,-2063.66 2984.01,4 -4,4"/>
<!-- apache -->
<g id="node1" class="node"><title>apache</title>
<g id="a_node1"><a xlink:href="http://realraum.at/status.json" xlink:title="{Apache Webserver|http://realraum.at/|serves status.json}" target="_graphviz">
<path fill="Crimson" stroke="Black" d="M12,-1252.32C12,-1252.32 109,-1252.32 109,-1252.32 115,-1252.32 121,-1258.32 121,-1264.32 121,-1264.32 121,-1309.32 121,-1309.32 121,-1315.32 115,-1321.32 109,-1321.32 109,-1321.32 12,-1321.32 12,-1321.32 6,-1321.32 -1.98952e-13,-1315.32 -1.98952e-13,-1309.32 -1.98952e-13,-1309.32 -1.98952e-13,-1264.32 -1.98952e-13,-1264.32 -1.98952e-13,-1258.32 6,-1252.32 12,-1252.32"/>
<text text-anchor="middle" x="60.5" y="-1306.12" font-family="Times,serif" font-size="14.00">Apache Webserver</text>
<polyline fill="none" stroke="Black" points="-1.98952e-13,-1298.32 121,-1298.32 "/>
<text text-anchor="middle" x="60.5" y="-1283.12" font-family="Times,serif" font-size="14.00">http://realraum.at/</text>
<polyline fill="none" stroke="Black" points="-1.98952e-13,-1275.32 121,-1275.32 "/>
<text text-anchor="middle" x="60.5" y="-1260.12" font-family="Times,serif" font-size="14.00">serves status.json</text>
</a>
</g>
</g>
<!-- smstools -->
<g id="node2" class="node"><title>smstools</title>
<path fill="DarkRed" stroke="white" d="M1251.77,-293.348C1251.77,-293.348 1433.77,-293.348 1433.77,-293.348 1439.77,-293.348 1445.77,-299.348 1445.77,-305.348 1445.77,-305.348 1445.77,-327.348 1445.77,-327.348 1445.77,-333.348 1439.77,-339.348 1433.77,-339.348 1433.77,-339.348 1251.77,-339.348 1251.77,-339.348 1245.77,-339.348 1239.77,-333.348 1239.77,-327.348 1239.77,-327.348 1239.77,-305.348 1239.77,-305.348 1239.77,-299.348 1245.77,-293.348 1251.77,-293.348"/>
<text text-anchor="middle" x="1342.77" y="-324.148" font-family="Times,serif" font-size="14.00" fill="white">smstools</text>
<polyline fill="none" stroke="white" points="1239.77,-316.348 1445.77,-316.348 "/>
<text text-anchor="middle" x="1342.77" y="-301.148" font-family="Times,serif" font-size="14.00" fill="white">Send SMS via T68i and HOT&#45;Sim</text>
</g>
<!-- mosquito -->
<g id="node3" class="node"><title>mosquito</title>
<path fill="Crimson" stroke="Black" d="M1783.19,-1165.82C1783.19,-1165.82 1854.19,-1165.82 1854.19,-1165.82 1860.19,-1165.82 1866.19,-1171.82 1866.19,-1177.82 1866.19,-1177.82 1866.19,-1199.82 1866.19,-1199.82 1866.19,-1205.82 1860.19,-1211.82 1854.19,-1211.82 1854.19,-1211.82 1783.19,-1211.82 1783.19,-1211.82 1777.19,-1211.82 1771.19,-1205.82 1771.19,-1199.82 1771.19,-1199.82 1771.19,-1177.82 1771.19,-1177.82 1771.19,-1171.82 1777.19,-1165.82 1783.19,-1165.82"/>
<text text-anchor="middle" x="1818.69" y="-1196.62" font-family="Times,serif" font-size="14.00">Mosquito</text>
<polyline fill="none" stroke="Black" points="1771.19,-1188.82 1866.19,-1188.82 "/>
<text text-anchor="middle" x="1818.69" y="-1173.62" font-family="Times,serif" font-size="14.00">MQTT broker</text>
</g>
<!-- r3_metaevt_maker -->
<g id="node5" class="node"><title>r3_metaevt_maker</title>
<g id="a_node5"><a xlink:href="https://github.com/realraum/door_and_sensors/tree/master/r3-metaevt-maker" xlink:title="{r³&#45;MetaEvt&#45;Makert|ClientID: metaevt|creates MQTT messages\lbased on other MQTT messages\l}" target="_graphviz">
<path fill="DarkRed" stroke="white" d="M992.672,-1975.16C992.672,-1975.16 1162.67,-1975.16 1162.67,-1975.16 1168.67,-1975.16 1174.67,-1981.16 1174.67,-1987.16 1174.67,-1987.16 1174.67,-2047.16 1174.67,-2047.16 1174.67,-2053.16 1168.67,-2059.16 1162.67,-2059.16 1162.67,-2059.16 992.672,-2059.16 992.672,-2059.16 986.672,-2059.16 980.672,-2053.16 980.672,-2047.16 980.672,-2047.16 980.672,-1987.16 980.672,-1987.16 980.672,-1981.16 986.672,-1975.16 992.672,-1975.16"/>
<text text-anchor="middle" x="1077.67" y="-2043.96" font-family="Times,serif" font-size="14.00" fill="white">r³&#45;MetaEvt&#45;Makert</text>
<polyline fill="none" stroke="white" points="980.672,-2036.16 1174.67,-2036.16 "/>
<text text-anchor="middle" x="1077.67" y="-2020.96" font-family="Times,serif" font-size="14.00" fill="white">ClientID: metaevt</text>
<polyline fill="none" stroke="white" points="980.672,-2013.16 1174.67,-2013.16 "/>
<text text-anchor="start" x="988.672" y="-1997.96" font-family="Times,serif" font-size="14.00" fill="white">creates MQTT messages</text>
<text text-anchor="start" x="988.672" y="-1982.96" font-family="Times,serif" font-size="14.00" fill="white">based on other MQTT messages</text>
</a>
</g>
</g>
<!-- mosquito&#45;&gt;r3_metaevt_maker -->
<g id="edge14" class="edge"><title>mosquito&#45;&gt;r3_metaevt_maker</title>
<path fill="none" stroke="green" d="M1794.64,-1211.94C1687.4,-1323.79 1252.76,-1809.22 1117.8,-1967.26"/>
<polygon fill="green" stroke="green" points="1115.04,-1965.1 1111.22,-1974.98 1120.37,-1969.64 1115.04,-1965.1"/>
</g>
<!-- r3_spaceapistatus -->
<g id="node6" class="node"><title>r3_spaceapistatus</title>
<g id="a_node6"><a xlink:href="https://github.com/realraum/door_and_sensors/tree/master/r3-spaceapistatus" xlink:title="{r³&#45;SpaceAPIStatus|create SpaceAPI JSON\lfrom sensordata\l}" target="_graphviz">
<path fill="DarkRed" stroke="white" d="M205,-1256.32C205,-1256.32 324,-1256.32 324,-1256.32 330,-1256.32 336,-1262.32 336,-1268.32 336,-1268.32 336,-1305.32 336,-1305.32 336,-1311.32 330,-1317.32 324,-1317.32 324,-1317.32 205,-1317.32 205,-1317.32 199,-1317.32 193,-1311.32 193,-1305.32 193,-1305.32 193,-1268.32 193,-1268.32 193,-1262.32 199,-1256.32 205,-1256.32"/>
<text text-anchor="middle" x="264.5" y="-1302.12" font-family="Times,serif" font-size="14.00" fill="white">r³&#45;SpaceAPIStatus</text>
<polyline fill="none" stroke="white" points="193,-1294.32 336,-1294.32 "/>
<text text-anchor="start" x="201" y="-1279.12" font-family="Times,serif" font-size="14.00" fill="white">create SpaceAPI JSON</text>
<text text-anchor="start" x="201" y="-1264.12" font-family="Times,serif" font-size="14.00" fill="white">from sensordata</text>
</a>
</g>
</g>
<!-- mosquito&#45;&gt;r3_spaceapistatus -->
<g id="edge16" class="edge"><title>mosquito&#45;&gt;r3_spaceapistatus</title>
<path fill="none" stroke="green" d="M1770.9,-1191.83C1550.13,-1205.75 627.815,-1263.91 346.39,-1281.66"/>
<polygon fill="green" stroke="green" points="346.012,-1278.17 336.252,-1282.3 346.453,-1285.16 346.012,-1278.17"/>
</g>
<!-- r3_xmppbot -->
<g id="node7" class="node"><title>r3_xmppbot</title>
<g id="a_node7"><a xlink:href="https://github.com/realraum/door_and_sensors/tree/master/r3-spaceapistatus" xlink:title="{r³&#45;XMPPBot|ClientID: xmppbot| xmpp://realrauminfo@realraum.at}" target="_graphviz">
<path fill="DarkRed" stroke="white" d="M830.743,-1761.63C830.743,-1761.63 1011.74,-1761.63 1011.74,-1761.63 1017.74,-1761.63 1023.74,-1767.63 1023.74,-1773.63 1023.74,-1773.63 1023.74,-1818.63 1023.74,-1818.63 1023.74,-1824.63 1017.74,-1830.63 1011.74,-1830.63 1011.74,-1830.63 830.743,-1830.63 830.743,-1830.63 824.743,-1830.63 818.743,-1824.63 818.743,-1818.63 818.743,-1818.63 818.743,-1773.63 818.743,-1773.63 818.743,-1767.63 824.743,-1761.63 830.743,-1761.63"/>
<text text-anchor="middle" x="921.243" y="-1815.43" font-family="Times,serif" font-size="14.00" fill="white">r³&#45;XMPPBot</text>
<polyline fill="none" stroke="white" points="818.743,-1807.63 1023.74,-1807.63 "/>
<text text-anchor="middle" x="921.243" y="-1792.43" font-family="Times,serif" font-size="14.00" fill="white">ClientID: xmppbot</text>
<polyline fill="none" stroke="white" points="818.743,-1784.63 1023.74,-1784.63 "/>
<text text-anchor="middle" x="921.243" y="-1769.43" font-family="Times,serif" font-size="14.00" fill="white">xmpp://realrauminfo@realraum.at</text>
</a>
</g>
</g>
<!-- mosquito&#45;&gt;r3_xmppbot -->
<g id="edge17" class="edge"><title>mosquito&#45;&gt;r3_xmppbot</title>
<path fill="none" stroke="green" d="M1784.6,-1211.89C1649.84,-1303.08 1153.2,-1639.16 980.723,-1755.88"/>
<polygon fill="green" stroke="green" points="978.588,-1753.09 972.268,-1761.6 982.512,-1758.89 978.588,-1753.09"/>
</g>
<!-- dostuff_switch_lights -->
<g id="node8" class="node"><title>dostuff_switch_lights</title>
<g id="a_node8"><a xlink:href="https://github.com/realraum/door_and_sensors/blob/master/scripts/dostuff_switch_lights.py" xlink:title="{dostuff_switch_lights.py|turns mqtt messages\linto http calls to golightctrl}" target="_graphviz">
<path fill="DarkRed" stroke="white" d="M1748.19,-1354.32C1748.19,-1354.32 1889.19,-1354.32 1889.19,-1354.32 1895.19,-1354.32 1901.19,-1360.32 1901.19,-1366.32 1901.19,-1366.32 1901.19,-1403.32 1901.19,-1403.32 1901.19,-1409.32 1895.19,-1415.32 1889.19,-1415.32 1889.19,-1415.32 1748.19,-1415.32 1748.19,-1415.32 1742.19,-1415.32 1736.19,-1409.32 1736.19,-1403.32 1736.19,-1403.32 1736.19,-1366.32 1736.19,-1366.32 1736.19,-1360.32 1742.19,-1354.32 1748.19,-1354.32"/>
<text text-anchor="middle" x="1818.69" y="-1400.12" font-family="Times,serif" font-size="14.00" fill="white">dostuff_switch_lights.py</text>
<polyline fill="none" stroke="white" points="1736.19,-1392.32 1901.19,-1392.32 "/>
<text text-anchor="start" x="1744.19" y="-1377.12" font-family="Times,serif" font-size="14.00" fill="white">turns mqtt messages</text>
<text text-anchor="middle" x="1818.69" y="-1362.12" font-family="Times,serif" font-size="14.00" fill="white">into http calls to golightctrl</text>
</a>
</g>
</g>
<!-- mosquito&#45;&gt;dostuff_switch_lights -->
<g id="edge18" class="edge"><title>mosquito&#45;&gt;dostuff_switch_lights</title>
<path fill="none" stroke="green" d="M1818.69,-1212.07C1818.69,-1244.56 1818.69,-1304.03 1818.69,-1343.99"/>
<polygon fill="green" stroke="green" points="1815.19,-1344.2 1818.69,-1354.2 1822.19,-1344.2 1815.19,-1344.2"/>
</g>
<!-- play_sound_status -->
<g id="node18" class="node"><title>play_sound_status</title>
<g id="a_node18"><a xlink:href="https://github.com/realraum/door_and_sensors/blob/master/scripts/play-sound-status.py" xlink:title="{play_sound_status.py|read play_sound_status.cfg\lplay jingle when\luser unlocks door\l}" target="_graphviz">
<path fill="DarkRed" stroke="white" d="M758.283,-1519.71C758.283,-1519.71 898.283,-1519.71 898.283,-1519.71 904.283,-1519.71 910.283,-1525.71 910.283,-1531.71 910.283,-1531.71 910.283,-1583.71 910.283,-1583.71 910.283,-1589.71 904.283,-1595.71 898.283,-1595.71 898.283,-1595.71 758.283,-1595.71 758.283,-1595.71 752.283,-1595.71 746.283,-1589.71 746.283,-1583.71 746.283,-1583.71 746.283,-1531.71 746.283,-1531.71 746.283,-1525.71 752.283,-1519.71 758.283,-1519.71"/>
<text text-anchor="middle" x="828.283" y="-1580.51" font-family="Times,serif" font-size="14.00" fill="white">play_sound_status.py</text>
<polyline fill="none" stroke="white" points="746.283,-1572.71 910.283,-1572.71 "/>
<text text-anchor="start" x="754.283" y="-1557.51" font-family="Times,serif" font-size="14.00" fill="white">read play_sound_status.cfg</text>
<text text-anchor="start" x="754.283" y="-1542.51" font-family="Times,serif" font-size="14.00" fill="white">play jingle when</text>
<text text-anchor="start" x="754.283" y="-1527.51" font-family="Times,serif" font-size="14.00" fill="white">user unlocks door</text>
</a>
</g>
</g>
<!-- mosquito&#45;&gt;play_sound_status -->
<g id="edge28" class="edge"><title>mosquito&#45;&gt;play_sound_status</title>
<path fill="none" stroke="green" d="M1770.92,-1206.61C1615.92,-1264.34 1125.19,-1447.12 919.935,-1523.57"/>
<polygon fill="green" stroke="green" points="918.529,-1520.36 910.38,-1527.13 920.972,-1526.92 918.529,-1520.36"/>
</g>
<!-- arduinosensors -->
<g id="node20" class="node"><title>arduinosensors</title>
<g id="a_node20"><a xlink:href="https://github.com/realraum/door_and_sensors/blob/master/scripts/arduinosensors.py" xlink:title="{ArduinoSensors.py|ClientID: pillar}" target="_graphviz">
<path fill="DarkRed" stroke="white" d="M846.002,-1226.9C846.002,-1226.9 943.002,-1226.9 943.002,-1226.9 949.002,-1226.9 955.002,-1232.9 955.002,-1238.9 955.002,-1238.9 955.002,-1260.9 955.002,-1260.9 955.002,-1266.9 949.002,-1272.9 943.002,-1272.9 943.002,-1272.9 846.002,-1272.9 846.002,-1272.9 840.002,-1272.9 834.002,-1266.9 834.002,-1260.9 834.002,-1260.9 834.002,-1238.9 834.002,-1238.9 834.002,-1232.9 840.002,-1226.9 846.002,-1226.9"/>
<text text-anchor="middle" x="894.502" y="-1257.7" font-family="Times,serif" font-size="14.00" fill="white">ArduinoSensors.py</text>
<polyline fill="none" stroke="white" points="834.002,-1249.9 955.002,-1249.9 "/>
<text text-anchor="middle" x="894.502" y="-1234.7" font-family="Times,serif" font-size="14.00" fill="white">ClientID: pillar</text>
</a>
</g>
</g>
<!-- mosquito&#45;&gt;arduinosensors -->
<g id="edge23" class="edge"><title>mosquito&#45;&gt;arduinosensors</title>
<path fill="none" stroke="green" d="M1771.06,-1188.77C1619.2,-1194.27 1145.93,-1225.34 965.425,-1241.39"/>
<polygon fill="green" stroke="green" points="964.893,-1237.92 955.248,-1242.31 965.522,-1244.89 964.893,-1237.92"/>
</g>
<!-- ircbot -->
<g id="node25" class="node"><title>ircbot</title>
<g id="a_node25"><a xlink:href="https://github.com/realraum/r3bot-mqtt" xlink:title="{IRC r3bot&#45;mqtt|ClientID: ircchanbot|Limnoria IRC Bot Plugin}" target="_graphviz">
<path fill="DarkRed" stroke="white" d="M784.331,-907.265C784.331,-907.265 916.331,-907.265 916.331,-907.265 922.331,-907.265 928.331,-913.265 928.331,-919.265 928.331,-919.265 928.331,-964.265 928.331,-964.265 928.331,-970.265 922.331,-976.265 916.331,-976.265 916.331,-976.265 784.331,-976.265 784.331,-976.265 778.331,-976.265 772.331,-970.265 772.331,-964.265 772.331,-964.265 772.331,-919.265 772.331,-919.265 772.331,-913.265 778.331,-907.265 784.331,-907.265"/>
<text text-anchor="middle" x="850.331" y="-961.065" font-family="Times,serif" font-size="14.00" fill="white">IRC r3bot&#45;mqtt</text>
<polyline fill="none" stroke="white" points="772.331,-953.265 928.331,-953.265 "/>
<text text-anchor="middle" x="850.331" y="-938.065" font-family="Times,serif" font-size="14.00" fill="white">ClientID: ircchanbot</text>
<polyline fill="none" stroke="white" points="772.331,-930.265 928.331,-930.265 "/>
<text text-anchor="middle" x="850.331" y="-915.065" font-family="Times,serif" font-size="14.00" fill="white">Limnoria IRC Bot Plugin</text>
</a>
</g>
</g>
<!-- mosquito&#45;&gt;ircbot -->
<g id="edge29" class="edge"><title>mosquito&#45;&gt;ircbot</title>
<path fill="none" stroke="green" d="M1771,-1176.65C1617.98,-1137.61 1137.76,-1015.1 938.422,-964.24"/>
<polygon fill="green" stroke="green" points="939.124,-960.807 928.569,-961.726 937.393,-967.59 939.124,-960.807"/>
</g>
<!-- backdoorcx_sensor_node -->
<g id="node4" class="node"><title>backdoorcx_sensor_node</title>
<g id="a_node4"><a xlink:href="https://github.com/realraum/door_and_sensors/tree/master/backdoorcx_sensor_node" xlink:title="{backdoorcx_sensor_node|ClientID: backdoorcx}" target="_graphviz">
<path fill="DarkRed" stroke="white" d="M1002.78,-689.388C1002.78,-689.388 1132.78,-689.388 1132.78,-689.388 1138.78,-689.388 1144.78,-695.388 1144.78,-701.388 1144.78,-701.388 1144.78,-723.388 1144.78,-723.388 1144.78,-729.388 1138.78,-735.388 1132.78,-735.388 1132.78,-735.388 1002.78,-735.388 1002.78,-735.388 996.783,-735.388 990.783,-729.388 990.783,-723.388 990.783,-723.388 990.783,-701.388 990.783,-701.388 990.783,-695.388 996.783,-689.388 1002.78,-689.388"/>
<text text-anchor="middle" x="1067.78" y="-720.188" font-family="Times,serif" font-size="14.00" fill="white">backdoorcx_sensor_node</text>
<polyline fill="none" stroke="white" points="990.783,-712.388 1144.78,-712.388 "/>
<text text-anchor="middle" x="1067.78" y="-697.188" font-family="Times,serif" font-size="14.00" fill="white">ClientID: backdoorcx</text>
</a>
</g>
</g>
<!-- backdoorcx_sensor_node&#45;&gt;mosquito -->
<g id="edge13" class="edge"><title>backdoorcx_sensor_node&#45;&gt;mosquito</title>
<path fill="none" stroke="green" d="M1104.25,-735.529C1228.84,-814.576 1637.37,-1073.78 1773.84,-1160.37"/>
<polygon fill="green" stroke="green" points="1772.11,-1163.42 1782.43,-1165.82 1775.86,-1157.51 1772.11,-1163.42"/>
</g>
<!-- r3_metaevt_maker&#45;&gt;mosquito -->
<g id="edge15" class="edge"><title>r3_metaevt_maker&#45;&gt;mosquito</title>
<path fill="none" stroke="green" d="M1119.67,-1975.09C1256.66,-1829.21 1687.43,-1347.41 1794.47,-1219.95"/>
<polygon fill="green" stroke="green" points="1797.32,-1221.99 1801.05,-1212.07 1791.95,-1217.51 1797.32,-1221.99"/>
</g>
<!-- r3_spaceapistatus&#45;&gt;apache -->
<g id="edge10" class="edge"><title>r3_spaceapistatus&#45;&gt;apache</title>
<path fill="none" stroke="black" stroke-dasharray="1,5" d="M192.864,-1286.82C172.92,-1286.82 151.272,-1286.82 131.372,-1286.82"/>
<polygon fill="black" stroke="black" points="131.144,-1283.32 121.144,-1286.82 131.144,-1290.32 131.144,-1283.32"/>
<text text-anchor="middle" x="153.118" y="-1290.62" font-family="Times,serif" font-size="14.00">ssh</text>
</g>
<!-- golightctrl -->
<g id="node17" class="node"><title>golightctrl</title>
<g id="a_node17"><a xlink:href="https://github.com/realraum/deckenlichtschalter/tree/master/linux/golightctrl" xlink:title="{goLightCtrl|http://licht.realraum.at|Power&#45;,Light&#45;,Stereo&#45;\lcontrol Frontend\lserializes rf433 tx\l}" target="_graphviz">
<path fill="Crimson" stroke="Black" d="M1930.93,-1237.32C1930.93,-1237.32 2045.93,-1237.32 2045.93,-1237.32 2051.93,-1237.32 2057.93,-1243.32 2057.93,-1249.32 2057.93,-1249.32 2057.93,-1324.32 2057.93,-1324.32 2057.93,-1330.32 2051.93,-1336.32 2045.93,-1336.32 2045.93,-1336.32 1930.93,-1336.32 1930.93,-1336.32 1924.93,-1336.32 1918.93,-1330.32 1918.93,-1324.32 1918.93,-1324.32 1918.93,-1249.32 1918.93,-1249.32 1918.93,-1243.32 1924.93,-1237.32 1930.93,-1237.32"/>
<text text-anchor="middle" x="1988.43" y="-1321.12" font-family="Times,serif" font-size="14.00">goLightCtrl</text>
<polyline fill="none" stroke="Black" points="1918.93,-1313.32 2057.93,-1313.32 "/>
<text text-anchor="middle" x="1988.43" y="-1298.12" font-family="Times,serif" font-size="14.00">http://licht.realraum.at</text>
<polyline fill="none" stroke="Black" points="1918.93,-1290.32 2057.93,-1290.32 "/>
<text text-anchor="start" x="1926.93" y="-1275.12" font-family="Times,serif" font-size="14.00">Power&#45;,Light&#45;,Stereo&#45;</text>
<text text-anchor="start" x="1926.93" y="-1260.12" font-family="Times,serif" font-size="14.00">control Frontend</text>
<text text-anchor="start" x="1926.93" y="-1245.12" font-family="Times,serif" font-size="14.00">serializes rf433 tx</text>
</a>
</g>
</g>
<!-- dostuff_switch_lights&#45;&gt;golightctrl -->
<g id="edge32" class="edge"><title>dostuff_switch_lights&#45;&gt;golightctrl</title>
<path fill="none" stroke="Blue" d="M1871.93,-1354.08C1884.01,-1347.1 1897.1,-1339.55 1909.98,-1332.11"/>
<polygon fill="Blue" stroke="Blue" points="1911.95,-1335.02 1918.86,-1326.98 1908.45,-1328.95 1911.95,-1335.02"/>
<text text-anchor="middle" x="1873.96" y="-1331.89" font-family="Times,serif" font-size="14.00">HTTP</text>
</g>
<!-- olga_freezer_sensordata_forwarder -->
<g id="node9" class="node"><title>olga_freezer_sensordata_forwarder</title>
<g id="a_node9"><a xlink:href="https://github.com/realraum/door_and_sensors/blob/master/scripts/olga_freezer_sensordata_forwarder.py" xlink:title="{olga_freezer_sensordata_forwarder.py|ClientID: olgafreezer|Temperature\lOverTemp Alarm\lSensorLost Alarm\l}" target="_graphviz">
<path fill="DarkRed" stroke="white" d="M1479.25,-331.416C1479.25,-331.416 1680.25,-331.416 1680.25,-331.416 1686.25,-331.416 1692.25,-337.416 1692.25,-343.416 1692.25,-343.416 1692.25,-418.416 1692.25,-418.416 1692.25,-424.416 1686.25,-430.416 1680.25,-430.416 1680.25,-430.416 1479.25,-430.416 1479.25,-430.416 1473.25,-430.416 1467.25,-424.416 1467.25,-418.416 1467.25,-418.416 1467.25,-343.416 1467.25,-343.416 1467.25,-337.416 1473.25,-331.416 1479.25,-331.416"/>
<text text-anchor="middle" x="1579.75" y="-415.216" font-family="Times,serif" font-size="14.00" fill="white">olga_freezer_sensordata_forwarder.py</text>
<polyline fill="none" stroke="white" points="1467.25,-407.416 1692.25,-407.416 "/>
<text text-anchor="middle" x="1579.75" y="-392.216" font-family="Times,serif" font-size="14.00" fill="white">ClientID: olgafreezer</text>
<polyline fill="none" stroke="white" points="1467.25,-384.416 1692.25,-384.416 "/>
<text text-anchor="start" x="1475.25" y="-369.216" font-family="Times,serif" font-size="14.00" fill="white">Temperature</text>
<text text-anchor="start" x="1475.25" y="-354.216" font-family="Times,serif" font-size="14.00" fill="white">OverTemp Alarm</text>
<text text-anchor="start" x="1475.25" y="-339.216" font-family="Times,serif" font-size="14.00" fill="white">SensorLost Alarm</text>
</a>
</g>
</g>
<!-- olga_freezer_sensordata_forwarder&#45;&gt;smstools -->
<g id="edge11" class="edge"><title>olga_freezer_sensordata_forwarder&#45;&gt;smstools</title>
<path fill="none" stroke="black" d="M1467.16,-350.239C1457.13,-347.506 1447.04,-344.757 1437.18,-342.072"/>
<polygon fill="black" stroke="black" points="1437.98,-338.662 1427.42,-339.411 1436.14,-345.416 1437.98,-338.662"/>
</g>
<!-- olga_freezer_sensordata_forwarder&#45;&gt;mosquito -->
<g id="edge19" class="edge"><title>olga_freezer_sensordata_forwarder&#45;&gt;mosquito</title>
<path fill="none" stroke="green" d="M1594.43,-430.54C1638.97,-581.14 1771.81,-1030.3 1808.94,-1155.88"/>
<polygon fill="green" stroke="green" points="1805.65,-1157.09 1811.85,-1165.69 1812.37,-1155.11 1805.65,-1157.09"/>
</g>
<!-- apcupsd_mqtt_notify -->
<g id="node10" class="node"><title>apcupsd_mqtt_notify</title>
<g id="a_node10"><a xlink:href="https://github.com/realraum/door_and_sensors/blob/master/scripts/apcupsd-mqtt-notify.py" xlink:title="{apcupsd&#45;mqtt&#45;notify.py|ClientID: &#45;|repackage as mqtt\lsend SMS on powerloss}" target="_graphviz">
<path fill="DarkRed" stroke="white" d="M1454.68,-101.403C1454.68,-101.403 1579.68,-101.403 1579.68,-101.403 1585.68,-101.403 1591.68,-107.403 1591.68,-113.403 1591.68,-113.403 1591.68,-173.403 1591.68,-173.403 1591.68,-179.403 1585.68,-185.403 1579.68,-185.403 1579.68,-185.403 1454.68,-185.403 1454.68,-185.403 1448.68,-185.403 1442.68,-179.403 1442.68,-173.403 1442.68,-173.403 1442.68,-113.403 1442.68,-113.403 1442.68,-107.403 1448.68,-101.403 1454.68,-101.403"/>
<text text-anchor="middle" x="1517.18" y="-170.203" font-family="Times,serif" font-size="14.00" fill="white">apcupsd&#45;mqtt&#45;notify.py</text>
<polyline fill="none" stroke="white" points="1442.68,-162.403 1591.68,-162.403 "/>
<text text-anchor="middle" x="1517.18" y="-147.203" font-family="Times,serif" font-size="14.00" fill="white">ClientID: &#45;</text>
<polyline fill="none" stroke="white" points="1442.68,-139.403 1591.68,-139.403 "/>
<text text-anchor="start" x="1450.68" y="-124.203" font-family="Times,serif" font-size="14.00" fill="white">repackage as mqtt</text>
<text text-anchor="middle" x="1517.18" y="-109.203" font-family="Times,serif" font-size="14.00" fill="white">send SMS on powerloss</text>
</a>
</g>
</g>
<!-- apcupsd_mqtt_notify&#45;&gt;smstools -->
<g id="edge12" class="edge"><title>apcupsd_mqtt_notify&#45;&gt;smstools</title>
<path fill="none" stroke="black" d="M1474.51,-185.71C1443.22,-216.737 1401.48,-258.135 1373.44,-285.939"/>
<polygon fill="black" stroke="black" points="1370.9,-283.524 1366.27,-293.05 1375.83,-288.494 1370.9,-283.524"/>
</g>
<!-- apcupsd_mqtt_notify&#45;&gt;mosquito -->
<g id="edge20" class="edge"><title>apcupsd_mqtt_notify&#45;&gt;mosquito</title>
<path fill="none" stroke="green" d="M1529.37,-185.679C1578.96,-357.636 1765,-1002.66 1809.21,-1155.98"/>
<polygon fill="green" stroke="green" points="1805.9,-1157.12 1812.03,-1165.75 1812.63,-1155.18 1805.9,-1157.12"/>
</g>
<!-- xbeesensors -->
<g id="node11" class="node"><title>xbeesensors</title>
<g id="a_node11"><a xlink:href="https://github.com/realraum/door_and_sensors/blob/master/scripts/xbeesensors.py" xlink:title="{XbeeSensors.py|ClientID: xbee|remote Temp\lremote Humidity\l}" target="_graphviz">
<path fill="DarkRed" stroke="white" d="M2024.71,-289.653C2024.71,-289.653 2111.71,-289.653 2111.71,-289.653 2117.71,-289.653 2123.71,-295.653 2123.71,-301.653 2123.71,-301.653 2123.71,-361.653 2123.71,-361.653 2123.71,-367.653 2117.71,-373.653 2111.71,-373.653 2111.71,-373.653 2024.71,-373.653 2024.71,-373.653 2018.71,-373.653 2012.71,-367.653 2012.71,-361.653 2012.71,-361.653 2012.71,-301.653 2012.71,-301.653 2012.71,-295.653 2018.71,-289.653 2024.71,-289.653"/>
<text text-anchor="middle" x="2068.21" y="-358.453" font-family="Times,serif" font-size="14.00" fill="white">XbeeSensors.py</text>
<polyline fill="none" stroke="white" points="2012.71,-350.653 2123.71,-350.653 "/>
<text text-anchor="middle" x="2068.21" y="-335.453" font-family="Times,serif" font-size="14.00" fill="white">ClientID: xbee</text>
<polyline fill="none" stroke="white" points="2012.71,-327.653 2123.71,-327.653 "/>
<text text-anchor="start" x="2020.71" y="-312.453" font-family="Times,serif" font-size="14.00" fill="white">remote Temp</text>
<text text-anchor="start" x="2020.71" y="-297.453" font-family="Times,serif" font-size="14.00" fill="white">remote Humidity</text>
</a>
</g>
</g>
<!-- xbeesensors&#45;&gt;mosquito -->
<g id="edge26" class="edge"><title>xbeesensors&#45;&gt;mosquito</title>
<path fill="none" stroke="green" d="M2055.92,-373.868C2012.52,-522.966 1866.96,-1023.01 1828.22,-1156.07"/>
<polygon fill="green" stroke="green" points="1824.85,-1155.13 1825.42,-1165.71 1831.57,-1157.08 1824.85,-1155.13"/>
</g>
<!-- backdoorminimus -->
<g id="node12" class="node"><title>backdoorminimus</title>
<polygon fill="DodgerBlue" stroke="black" points="847.461,-556.425 847.461,-632.425 956.461,-632.425 956.461,-556.425 847.461,-556.425"/>
<text text-anchor="middle" x="901.961" y="-617.225" font-family="Times,serif" font-size="14.00">Minimus32</text>
<polyline fill="none" stroke="black" points="847.461,-609.425 956.461,-609.425 "/>
<text text-anchor="start" x="855.461" y="-594.225" font-family="Times,serif" font-size="14.00">BackdoorAjar</text>
<text text-anchor="start" x="855.461" y="-579.225" font-family="Times,serif" font-size="14.00">GasAlert</text>
<text text-anchor="start" x="855.461" y="-564.225" font-family="Times,serif" font-size="14.00">CX Temperature</text>
</g>
<!-- backdoorminimus&#45;&gt;backdoorcx_sensor_node -->
<g id="edge4" class="edge"><title>backdoorminimus&#45;&gt;backdoorcx_sensor_node</title>
<path fill="none" stroke="red" d="M955.799,-632.724C978.841,-649.116 1005.31,-667.948 1026.73,-683.186"/>
<polygon fill="red" stroke="red" points="1024.8,-686.105 1034.98,-689.05 1028.86,-680.401 1024.8,-686.105"/>
<text text-anchor="middle" x="964.766" y="-661.755" font-family="Times,serif" font-size="14.00">ttyACM0</text>
</g>
<!-- YellowUPS -->
<g id="node13" class="node"><title>YellowUPS</title>
<polygon fill="DodgerBlue" stroke="black" points="1503.3,-0.5 1503.3,-61.5 1592.3,-61.5 1592.3,-0.5 1503.3,-0.5"/>
<text text-anchor="middle" x="1547.8" y="-46.3" font-family="Times,serif" font-size="14.00">YellowUPS</text>
<polyline fill="none" stroke="black" points="1503.3,-38.5 1592.3,-38.5 "/>
<text text-anchor="start" x="1511.3" y="-23.3" font-family="Times,serif" font-size="14.00">PowerInfo</text>
<text text-anchor="start" x="1511.3" y="-8.3" font-family="Times,serif" font-size="14.00">BatteryTemp</text>
</g>
<!-- YellowUPS&#45;&gt;apcupsd_mqtt_notify -->
<g id="edge7" class="edge"><title>YellowUPS&#45;&gt;apcupsd_mqtt_notify</title>
<path fill="none" stroke="red" d="M1539.43,-61.7145C1536.91,-70.975 1534.07,-81.4069 1531.28,-91.6412"/>
<polygon fill="red" stroke="red" points="1527.89,-90.7798 1528.64,-101.348 1534.64,-92.62 1527.89,-90.7798"/>
<text text-anchor="middle" x="1521.86" y="-80.4778" font-family="Times,serif" font-size="14.00">APC</text>
</g>
<!-- door_client -->
<g id="node14" class="node"><title>door_client</title>
<g id="a_node14"><a xlink:href="https://github.com/realraum/door_and_sensors/tree/master/door_client" xlink:title="\N" target="_graphviz">
<path fill="DarkRed" stroke="white" d="M2712.23,-582.308C2712.23,-582.308 2766.23,-582.308 2766.23,-582.308 2772.23,-582.308 2778.23,-588.308 2778.23,-594.308 2778.23,-594.308 2778.23,-606.308 2778.23,-606.308 2778.23,-612.308 2772.23,-618.308 2766.23,-618.308 2766.23,-618.308 2712.23,-618.308 2712.23,-618.308 2706.23,-618.308 2700.23,-612.308 2700.23,-606.308 2700.23,-606.308 2700.23,-594.308 2700.23,-594.308 2700.23,-588.308 2706.23,-582.308 2712.23,-582.308"/>
<text text-anchor="middle" x="2739.23" y="-596.608" font-family="Times,serif" font-size="14.00" fill="white">door_client</text>
</a>
</g>
</g>
<!-- door_daemon -->
<g id="node15" class="node"><title>door_daemon</title>
<g id="a_node15"><a xlink:href="https://github.com/realraum/door_and_sensors/tree/master/door_daemon" xlink:title="{door_daemon|ClientID: frontdoor}" target="_graphviz">
<path fill="DarkRed" stroke="white" d="M2522.22,-436.052C2522.22,-436.052 2620.22,-436.052 2620.22,-436.052 2626.22,-436.052 2632.22,-442.052 2632.22,-448.052 2632.22,-448.052 2632.22,-470.052 2632.22,-470.052 2632.22,-476.052 2626.22,-482.052 2620.22,-482.052 2620.22,-482.052 2522.22,-482.052 2522.22,-482.052 2516.22,-482.052 2510.22,-476.052 2510.22,-470.052 2510.22,-470.052 2510.22,-448.052 2510.22,-448.052 2510.22,-442.052 2516.22,-436.052 2522.22,-436.052"/>
<text text-anchor="middle" x="2571.22" y="-466.852" font-family="Times,serif" font-size="14.00" fill="white">door_daemon</text>
<polyline fill="none" stroke="white" points="2510.22,-459.052 2632.22,-459.052 "/>
<text text-anchor="middle" x="2571.22" y="-443.852" font-family="Times,serif" font-size="14.00" fill="white">ClientID: frontdoor</text>
</a>
</g>
</g>
<!-- door_client&#45;&gt;door_daemon -->
<g id="edge30" class="edge"><title>door_client&#45;&gt;door_daemon</title>
<path fill="none" stroke="DeepPink" d="M2717.61,-582.13C2689.47,-558.469 2639.93,-516.815 2606.35,-488.588"/>
<polygon fill="DeepPink" stroke="DeepPink" points="2608.51,-485.831 2598.61,-482.075 2604.01,-491.189 2608.51,-485.831"/>
<text text-anchor="middle" x="2648.98" y="-539.159" font-family="Times,serif" font-size="14.00">RPC</text>
</g>
<!-- door_daemon&#45;&gt;mosquito -->
<g id="edge21" class="edge"><title>door_daemon&#45;&gt;mosquito</title>
<path fill="none" stroke="green" d="M2547.46,-482.098C2437.09,-589.125 1974.66,-1037.56 1849.85,-1158.6"/>
<polygon fill="green" stroke="green" points="1847.2,-1156.3 1842.46,-1165.77 1852.07,-1161.32 1847.2,-1156.3"/>
</g>
<!-- teenstep -->
<g id="node16" class="node"><title>teenstep</title>
<g id="a_node16"><a xlink:href="https://github.com/realraum/teenstep" xlink:title="{r³&#45;TeenStep|Custom ATMega32U Board\lwith StepperDriver\lreads RFID Cards\lcontrols DoorLock\lreads AJAR Sensor\l}" target="_graphviz">
<polygon fill="DodgerBlue" stroke="black" points="2316.71,-264.796 2316.71,-370.796 2489.71,-370.796 2489.71,-264.796 2316.71,-264.796"/>
<text text-anchor="middle" x="2403.21" y="-355.596" font-family="Times,serif" font-size="14.00">r³&#45;TeenStep</text>
<polyline fill="none" stroke="black" points="2316.71,-347.796 2489.71,-347.796 "/>
<text text-anchor="start" x="2324.71" y="-332.596" font-family="Times,serif" font-size="14.00">Custom ATMega32U Board</text>
<text text-anchor="start" x="2324.71" y="-317.596" font-family="Times,serif" font-size="14.00">with StepperDriver</text>
<text text-anchor="start" x="2324.71" y="-302.596" font-family="Times,serif" font-size="14.00">reads RFID Cards</text>
<text text-anchor="start" x="2324.71" y="-287.596" font-family="Times,serif" font-size="14.00">controls DoorLock</text>
<text text-anchor="start" x="2324.71" y="-272.596" font-family="Times,serif" font-size="14.00">reads AJAR Sensor</text>
</a>
</g>
</g>
<!-- door_daemon&#45;&gt;teenstep -->
<g id="edge9" class="edge"><title>door_daemon&#45;&gt;teenstep</title>
<path fill="none" stroke="red" d="M2551.31,-436.02C2534.48,-420.001 2509.25,-397.954 2484.35,-377.221"/>
<polygon fill="red" stroke="red" points="2486.58,-374.521 2476.64,-370.837 2482.11,-379.911 2486.58,-374.521"/>
<text text-anchor="middle" x="2491.33" y="-410.421" font-family="Times,serif" font-size="14.00">ttyACM0</text>
</g>
<!-- teenstep&#45;&gt;door_daemon -->
<g id="edge8" class="edge"><title>teenstep&#45;&gt;door_daemon</title>
<path fill="none" stroke="red" d="M2456.42,-370.942C2479.24,-390.859 2505.57,-412.739 2527.26,-429.743"/>
<polygon fill="red" stroke="red" points="2525.29,-432.641 2535.33,-436.007 2529.58,-427.111 2525.29,-432.641"/>
<text text-anchor="middle" x="2465.34" y="-389.143" font-family="Times,serif" font-size="14.00">ttyACM0</text>
</g>
<!-- golightctrl&#45;&gt;mosquito -->
<g id="edge22" class="edge"><title>golightctrl&#45;&gt;mosquito</title>
<path fill="none" stroke="green" d="M1918.9,-1246.68C1901.59,-1236.69 1883.41,-1226.19 1867.35,-1216.92"/>
<polygon fill="green" stroke="green" points="1869.08,-1213.87 1858.67,-1211.91 1865.58,-1219.94 1869.08,-1213.87"/>
</g>
<!-- ceilingteensy -->
<g id="node19" class="node"><title>ceilingteensy</title>
<g id="a_node19"><a xlink:href="https://github.com/realraum/deckenlichtschalter/tree/master/teensy2" xlink:title="{Teensy2|Ceilinglights\lRF433 TX}" target="_graphviz">
<polygon fill="DodgerBlue" stroke="black" points="2264.42,-1256.32 2264.42,-1317.32 2350.42,-1317.32 2350.42,-1256.32 2264.42,-1256.32"/>
<text text-anchor="middle" x="2307.42" y="-1302.12" font-family="Times,serif" font-size="14.00">Teensy2</text>
<polyline fill="none" stroke="black" points="2264.42,-1294.32 2350.42,-1294.32 "/>
<text text-anchor="start" x="2272.42" y="-1279.12" font-family="Times,serif" font-size="14.00">Ceilinglights</text>
<text text-anchor="middle" x="2307.42" y="-1264.12" font-family="Times,serif" font-size="14.00">RF433 TX</text>
</a>
</g>
</g>
<!-- golightctrl&#45;&gt;ceilingteensy -->
<g id="edge5" class="edge"><title>golightctrl&#45;&gt;ceilingteensy</title>
<path fill="none" stroke="red" d="M2058.04,-1292.51C2117.11,-1294.08 2200.6,-1293.91 2254.38,-1292"/>
<polygon fill="red" stroke="red" points="2254.54,-1295.5 2264.4,-1291.61 2254.27,-1288.5 2254.54,-1295.5"/>
<text text-anchor="middle" x="2129.71" y="-1296.05" font-family="Times,serif" font-size="14.00">ttyACM0</text>
</g>
<!-- ceilingteensy&#45;&gt;golightctrl -->
<g id="edge6" class="edge"><title>ceilingteensy&#45;&gt;golightctrl</title>
<path fill="none" stroke="red" d="M2264.4,-1282.03C2214.3,-1279.88 2130.49,-1279.5 2068.34,-1280.88"/>
<polygon fill="red" stroke="red" points="2068.09,-1277.39 2058.17,-1281.13 2068.26,-1284.38 2068.09,-1277.39"/>
<text text-anchor="middle" x="2139.87" y="-1270.26" font-family="Times,serif" font-size="14.00">ttyACM1</text>
</g>
<!-- arduinosensors&#45;&gt;mosquito -->
<g id="edge24" class="edge"><title>arduinosensors&#45;&gt;mosquito</title>
<path fill="none" stroke="green" d="M955.018,-1249.46C1123.35,-1242.62 1595.53,-1211.4 1760.73,-1196.16"/>
<polygon fill="green" stroke="green" points="1761.54,-1199.6 1771.16,-1195.17 1760.88,-1192.63 1761.54,-1199.6"/>
</g>
<!-- pillararduino -->
<g id="node21" class="node"><title>pillararduino</title>
<polygon fill="DodgerBlue" stroke="black" points="634.141,-1197 634.141,-1288 762.141,-1288 762.141,-1197 634.141,-1197"/>
<text text-anchor="middle" x="698.141" y="-1272.8" font-family="Times,serif" font-size="14.00">Arduino</text>
<polyline fill="none" stroke="black" points="634.141,-1265 762.141,-1265 "/>
<text text-anchor="start" x="642.141" y="-1249.8" font-family="Times,serif" font-size="14.00">Lightlevel</text>
<text text-anchor="start" x="642.141" y="-1234.8" font-family="Times,serif" font-size="14.00">RF433 TX</text>
<text text-anchor="start" x="642.141" y="-1219.8" font-family="Times,serif" font-size="14.00">YamahaStereo IR tx</text>
<text text-anchor="start" x="642.141" y="-1204.8" font-family="Times,serif" font-size="14.00">BoreDoooomButton</text>
</g>
<!-- arduinosensors&#45;&gt;pillararduino -->
<g id="edge2" class="edge"><title>arduinosensors&#45;&gt;pillararduino</title>
<path fill="none" stroke="red" d="M833.954,-1241.32C814.508,-1240.09 792.743,-1239.18 772.43,-1238.73"/>
<polygon fill="red" stroke="red" points="772.339,-1235.23 762.276,-1238.54 772.21,-1242.23 772.339,-1235.23"/>
<text text-anchor="middle" x="803.192" y="-1228.82" font-family="Times,serif" font-size="14.00">ttyUSB0</text>
</g>
<!-- pillararduino&#45;&gt;arduinosensors -->
<g id="edge1" class="edge"><title>pillararduino&#45;&gt;arduinosensors</title>
<path fill="none" stroke="red" d="M762.197,-1251.3C781.891,-1252.49 803.677,-1253.35 823.791,-1253.74"/>
<polygon fill="red" stroke="red" points="823.77,-1257.24 833.824,-1253.9 823.88,-1250.25 823.77,-1257.24"/>
<text text-anchor="middle" x="816.994" y="-1256.32" font-family="Times,serif" font-size="14.00">ttyUSB0</text>
</g>
<!-- smallkioskdht11query -->
<g id="node22" class="node"><title>smallkioskdht11query</title>
<g id="a_node22"><a xlink:href="https://github.com/realraum/door_and_sensors/blob/master/scripts/dht11sensor.py" xlink:title="{dht11sensor.py|ClientID: smallkiosk|Temp,Humidity}" target="_graphviz">
<path fill="DarkRed" stroke="white" d="M2790.04,-770.663C2790.04,-770.663 2897.04,-770.663 2897.04,-770.663 2903.04,-770.663 2909.04,-776.663 2909.04,-782.663 2909.04,-782.663 2909.04,-827.663 2909.04,-827.663 2909.04,-833.663 2903.04,-839.663 2897.04,-839.663 2897.04,-839.663 2790.04,-839.663 2790.04,-839.663 2784.04,-839.663 2778.04,-833.663 2778.04,-827.663 2778.04,-827.663 2778.04,-782.663 2778.04,-782.663 2778.04,-776.663 2784.04,-770.663 2790.04,-770.663"/>
<text text-anchor="middle" x="2843.54" y="-824.463" font-family="Times,serif" font-size="14.00" fill="white">dht11sensor.py</text>
<polyline fill="none" stroke="white" points="2778.04,-816.663 2909.04,-816.663 "/>
<text text-anchor="middle" x="2843.54" y="-801.463" font-family="Times,serif" font-size="14.00" fill="white">ClientID: smallkiosk</text>
<polyline fill="none" stroke="white" points="2778.04,-793.663 2909.04,-793.663 "/>
<text text-anchor="middle" x="2843.54" y="-778.463" font-family="Times,serif" font-size="14.00" fill="white">Temp,Humidity</text>
</a>
</g>
</g>
<!-- smallkioskdht11query&#45;&gt;mosquito -->
<g id="edge25" class="edge"><title>smallkioskdht11query&#45;&gt;mosquito</title>
<path fill="none" stroke="green" d="M2777.88,-829.746C2589.93,-900.105 2052.09,-1101.45 1875.57,-1167.53"/>
<polygon fill="green" stroke="green" points="1874.34,-1164.25 1866.2,-1171.04 1876.79,-1170.81 1874.34,-1164.25"/>
</g>
<!-- laserctl -->
<g id="node23" class="node"><title>laserctl</title>
<g id="a_node23"><a xlink:href="https://github.com/realraum/laserctl/tree/master/raspberry/laser" xlink:title="{lasermon.py|ClientID: lasercutter|LaserCardEvent}" target="_graphviz">
<path fill="DarkRed" stroke="white" d="M2864.01,-958.369C2864.01,-958.369 2968.01,-958.369 2968.01,-958.369 2974.01,-958.369 2980.01,-964.369 2980.01,-970.369 2980.01,-970.369 2980.01,-1015.37 2980.01,-1015.37 2980.01,-1021.37 2974.01,-1027.37 2968.01,-1027.37 2968.01,-1027.37 2864.01,-1027.37 2864.01,-1027.37 2858.01,-1027.37 2852.01,-1021.37 2852.01,-1015.37 2852.01,-1015.37 2852.01,-970.369 2852.01,-970.369 2852.01,-964.369 2858.01,-958.369 2864.01,-958.369"/>
<text text-anchor="middle" x="2916.01" y="-1012.17" font-family="Times,serif" font-size="14.00" fill="white">lasermon.py</text>
<polyline fill="none" stroke="white" points="2852.01,-1004.37 2980.01,-1004.37 "/>
<text text-anchor="middle" x="2916.01" y="-989.169" font-family="Times,serif" font-size="14.00" fill="white">ClientID: lasercutter</text>
<polyline fill="none" stroke="white" points="2852.01,-981.369 2980.01,-981.369 "/>
<text text-anchor="middle" x="2916.01" y="-966.169" font-family="Times,serif" font-size="14.00" fill="white">LaserCardEvent</text>
</a>
</g>
</g>
<!-- laserctl&#45;&gt;mosquito -->
<g id="edge27" class="edge"><title>laserctl&#45;&gt;mosquito</title>
<path fill="none" stroke="green" d="M2851.87,-1004.32C2655.39,-1039.41 2063.82,-1145.05 1876.34,-1178.53"/>
<polygon fill="green" stroke="green" points="1875.64,-1175.1 1866.41,-1180.3 1876.87,-1181.99 1875.64,-1175.1"/>
</g>
<!-- olgafreezerarduino -->
<g id="node24" class="node"><title>olgafreezerarduino</title>
<g id="a_node24"><a xlink:href="https://github.com/realraum/olgafreezer_httpPOEtempsensor" xlink:title="{Seeduino (POE, ENC28J60)|olgafreezer.realraum.at|Temperatures&#45;\ldisplay and alert\l}" target="_graphviz">
<polygon fill="DodgerBlue" stroke="black" points="1605,-451.107 1605,-535.107 1777,-535.107 1777,-451.107 1605,-451.107"/>
<text text-anchor="middle" x="1691" y="-519.907" font-family="Times,serif" font-size="14.00">Seeduino (POE, ENC28J60)</text>
<polyline fill="none" stroke="black" points="1605,-512.107 1777,-512.107 "/>
<text text-anchor="middle" x="1691" y="-496.907" font-family="Times,serif" font-size="14.00">olgafreezer.realraum.at</text>
<polyline fill="none" stroke="black" points="1605,-489.107 1777,-489.107 "/>
<text text-anchor="start" x="1613" y="-473.907" font-family="Times,serif" font-size="14.00">Temperatures&#45;</text>
<text text-anchor="start" x="1613" y="-458.907" font-family="Times,serif" font-size="14.00">display and alert</text>
</a>
</g>
</g>
<!-- olgafreezerarduino&#45;&gt;olga_freezer_sensordata_forwarder -->
<g id="edge31" class="edge"><title>olgafreezerarduino&#45;&gt;olga_freezer_sensordata_forwarder</title>
<path fill="none" stroke="Blue" d="M1649.26,-451.012C1644.89,-446.605 1640.4,-442.075 1635.9,-437.541"/>
<polygon fill="Blue" stroke="Blue" points="1638.37,-435.065 1628.85,-430.428 1633.4,-439.993 1638.37,-435.065"/>
<text text-anchor="middle" x="1625.58" y="-433.076" font-family="Times,serif" font-size="14.00">HTTP</text>
</g>
<!-- outsidexbee -->
<g id="node26" class="node"><title>outsidexbee</title>
<polygon fill="DodgerBlue" stroke="black" points="2036.52,-106.583 2036.52,-167.583 2178.52,-167.583 2178.52,-106.583 2036.52,-106.583"/>
<text text-anchor="middle" x="2107.52" y="-152.383" font-family="Times,serif" font-size="14.00">Xbee TunnelFIO Node</text>
<polyline fill="none" stroke="black" points="2036.52,-144.583 2178.52,-144.583 "/>
<text text-anchor="start" x="2044.52" y="-129.383" font-family="Times,serif" font-size="14.00">Temperature</text>
<text text-anchor="start" x="2044.52" y="-114.383" font-family="Times,serif" font-size="14.00">Humidity</text>
</g>
<!-- outsidexbee&#45;&gt;xbeesensors -->
<g id="edge3" class="edge"><title>outsidexbee&#45;&gt;xbeesensors</title>
<path fill="none" stroke="red" stroke-dasharray="1,5" d="M2101.29,-167.913C2095.26,-197.757 2086,-243.582 2078.81,-279.172"/>
<polygon fill="red" stroke="red" points="2075.3,-278.892 2076.75,-289.387 2082.16,-280.278 2075.3,-278.892"/>
<text text-anchor="start" x="2042.05" y="-242.343" font-family="Times,serif" font-size="14.00">ttyUSB1</text>
<text text-anchor="middle" x="2066.05" y="-227.343" font-family="Times,serif" font-size="14.00">ZigBee</text>
</g>
</g>
</svg>
