<?xml version="1.0" encoding="UTF-8" standalone="no"?>
<!DOCTYPE svg PUBLIC "-//W3C//DTD SVG 1.1//EN"
 "http://www.w3.org/Graphics/SVG/1.1/DTD/svg11.dtd">
<!-- Generated by graphviz version 2.38.0 (20140413.2041)
 -->
<!-- Title: doorsensornodes Pages: 1 -->
<svg width="1652pt" height="1047pt"
 viewBox="0.00 0.00 1652.00 1046.50" xmlns="http://www.w3.org/2000/svg" xmlns:xlink="http://www.w3.org/1999/xlink">
<g id="graph0" class="graph" transform="scale(1 1) rotate(0) translate(4 1042.5)">
<title>doorsensornodes</title>
<polygon fill="white" stroke="none" points="-4,4 -4,-1042.5 1648,-1042.5 1648,4 -4,4"/>
<g id="clust1" class="cluster"><title>clustervex</title>
<path fill="Khaki" stroke="black" d="M26,-8C26,-8 221,-8 221,-8 227,-8 233,-14 233,-20 233,-20 233,-156 233,-156 233,-162 227,-168 221,-168 221,-168 26,-168 26,-168 20,-168 14,-162 14,-156 14,-156 14,-20 14,-20 14,-14 20,-8 26,-8"/>
<text text-anchor="middle" x="123.5" y="-143.2" font-family="UbuntuMono" font-size="26.00">vex.realraum.at</text>
</g>
<g id="clust2" class="cluster"><title>clustermqtt</title>
<path fill="Khaki" stroke="black" d="M20,-208.5C20,-208.5 774,-208.5 774,-208.5 780,-208.5 786,-214.5 786,-220.5 786,-220.5 786,-1014.5 786,-1014.5 786,-1020.5 780,-1026.5 774,-1026.5 774,-1026.5 20,-1026.5 20,-1026.5 14,-1026.5 8,-1020.5 8,-1014.5 8,-1014.5 8,-220.5 8,-220.5 8,-214.5 14,-208.5 20,-208.5"/>
<text text-anchor="middle" x="397" y="-1001.7" font-family="UbuntuMono" font-size="26.00">mqtt.realraum.at &#160;aka &#160;smsgw.realraum.at</text>
</g>
<g id="clust3" class="cluster"><title>clustertuer</title>
<path fill="Khaki" stroke="black" d="M1415,-467C1415,-467 1624,-467 1624,-467 1630,-467 1636,-473 1636,-479 1636,-479 1636,-994.5 1636,-994.5 1636,-1000.5 1630,-1006.5 1624,-1006.5 1624,-1006.5 1415,-1006.5 1415,-1006.5 1409,-1006.5 1403,-1000.5 1403,-994.5 1403,-994.5 1403,-479 1403,-479 1403,-473 1409,-467 1415,-467"/>
<text text-anchor="middle" x="1519.5" y="-981.7" font-family="UbuntuMono" font-size="26.00">tuer.realraum.at</text>
</g>
<g id="clust4" class="cluster"><title>clusterlicht</title>
<path fill="Khaki" stroke="black" d="M806,-12C806,-12 1120,-12 1120,-12 1126,-12 1132,-18 1132,-24 1132,-24 1132,-379 1132,-379 1132,-385 1126,-391 1120,-391 1120,-391 806,-391 806,-391 800,-391 794,-385 794,-379 794,-379 794,-24 794,-24 794,-18 800,-12 806,-12"/>
<text text-anchor="middle" x="963" y="-366.2" font-family="UbuntuMono" font-size="26.00">licht.realraum.at</text>
</g>
<g id="clust5" class="cluster"><title>clusterkiosk</title>
<path fill="Khaki" stroke="black" d="M1141,-474.5C1141,-474.5 1383,-474.5 1383,-474.5 1389,-474.5 1395,-480.5 1395,-486.5 1395,-486.5 1395,-795.5 1395,-795.5 1395,-801.5 1389,-807.5 1383,-807.5 1383,-807.5 1141,-807.5 1141,-807.5 1135,-807.5 1129,-801.5 1129,-795.5 1129,-795.5 1129,-486.5 1129,-486.5 1129,-480.5 1135,-474.5 1141,-474.5"/>
<text text-anchor="middle" x="1262" y="-782.7" font-family="UbuntuMono" font-size="26.00">kiosk.realraum.at</text>
</g>
<g id="clust6" class="cluster"><title>clusterlaser</title>
<path fill="Khaki" stroke="black" d="M806,-640C806,-640 1109,-640 1109,-640 1115,-640 1121,-646 1121,-652 1121,-652 1121,-788 1121,-788 1121,-794 1115,-800 1109,-800 1109,-800 806,-800 806,-800 800,-800 794,-794 794,-788 794,-788 794,-652 794,-652 794,-646 800,-640 806,-640"/>
<text text-anchor="middle" x="957.5" y="-775.2" font-family="UbuntuMono" font-size="26.00">lasercutter.realraum.at</text>
</g>
<g id="clust7" class="cluster"><title>clusterolgafreezer</title>
<path fill="Khaki" stroke="black" d="M806,-855.5C806,-855.5 1109,-855.5 1109,-855.5 1115,-855.5 1121,-861.5 1121,-867.5 1121,-867.5 1121,-1018.5 1121,-1018.5 1121,-1024.5 1115,-1030.5 1109,-1030.5 1109,-1030.5 806,-1030.5 806,-1030.5 800,-1030.5 794,-1024.5 794,-1018.5 794,-1018.5 794,-867.5 794,-867.5 794,-861.5 800,-855.5 806,-855.5"/>
<text text-anchor="middle" x="957.5" y="-1005.7" font-family="UbuntuMono" font-size="26.00">olgafreezer.realraum.at</text>
</g>
<g id="clust8" class="cluster"><title>clusterthinkpi</title>
<path fill="Khaki" stroke="black" d="M1152,-216C1152,-216 1401,-216 1401,-216 1407,-216 1413,-222 1413,-228 1413,-228 1413,-422 1413,-422 1413,-428 1407,-434 1401,-434 1401,-434 1152,-434 1152,-434 1146,-434 1140,-428 1140,-422 1140,-422 1140,-228 1140,-228 1140,-222 1146,-216 1152,-216"/>
<text text-anchor="start" x="1148" y="-409.2" font-family="UbuntuMono" font-size="26.00">dhcp&#45;12.realraum.at</text>
<text text-anchor="middle" x="1276.5" y="-380.2" font-family="UbuntuMono" font-size="26.00">thinkpi.realraum.at</text>
</g>
<!-- apache -->
<g id="node1" class="node"><title>apache</title>
<g id="a_node1"><a xlink:href="http://realraum.at/status.json" xlink:title="{Apache Webserver|http://realraum.at/|serves status.json}" target="_graphviz">
<path fill="Crimson" stroke="Black" d="M39.5,-16.5C39.5,-16.5 136.5,-16.5 136.5,-16.5 142.5,-16.5 148.5,-22.5 148.5,-28.5 148.5,-28.5 148.5,-73.5 148.5,-73.5 148.5,-79.5 142.5,-85.5 136.5,-85.5 136.5,-85.5 39.5,-85.5 39.5,-85.5 33.5,-85.5 27.5,-79.5 27.5,-73.5 27.5,-73.5 27.5,-28.5 27.5,-28.5 27.5,-22.5 33.5,-16.5 39.5,-16.5"/>
<text text-anchor="middle" x="88" y="-70.3" font-family="Times,serif" font-size="14.00">Apache Webserver</text>
<polyline fill="none" stroke="Black" points="27.5,-62.5 148.5,-62.5 "/>
<text text-anchor="middle" x="88" y="-47.3" font-family="Times,serif" font-size="14.00">http://realraum.at/</text>
<polyline fill="none" stroke="Black" points="27.5,-39.5 148.5,-39.5 "/>
<text text-anchor="middle" x="88" y="-24.3" font-family="Times,serif" font-size="14.00">serves status.json</text>
</a>
</g>
</g>
<!-- smstools -->
<g id="node2" class="node"><title>smstools</title>
<path fill="DarkRed" stroke="white" d="M371,-505.5C371,-505.5 553,-505.5 553,-505.5 559,-505.5 565,-511.5 565,-517.5 565,-517.5 565,-539.5 565,-539.5 565,-545.5 559,-551.5 553,-551.5 553,-551.5 371,-551.5 371,-551.5 365,-551.5 359,-545.5 359,-539.5 359,-539.5 359,-517.5 359,-517.5 359,-511.5 365,-505.5 371,-505.5"/>
<text text-anchor="middle" x="462" y="-536.3" font-family="Times,serif" font-size="14.00" fill="white">smstools</text>
<polyline fill="none" stroke="white" points="359,-528.5 565,-528.5 "/>
<text text-anchor="middle" x="462" y="-513.3" font-family="Times,serif" font-size="14.00" fill="white">Send SMS via T68i and HOT&#45;Sim</text>
</g>
<!-- mosquito -->
<g id="node3" class="node"><title>mosquito</title>
<path fill="Crimson" stroke="Black" d="M681.5,-505.5C681.5,-505.5 752.5,-505.5 752.5,-505.5 758.5,-505.5 764.5,-511.5 764.5,-517.5 764.5,-517.5 764.5,-539.5 764.5,-539.5 764.5,-545.5 758.5,-551.5 752.5,-551.5 752.5,-551.5 681.5,-551.5 681.5,-551.5 675.5,-551.5 669.5,-545.5 669.5,-539.5 669.5,-539.5 669.5,-517.5 669.5,-517.5 669.5,-511.5 675.5,-505.5 681.5,-505.5"/>
<text text-anchor="middle" x="717" y="-536.3" font-family="Times,serif" font-size="14.00">Mosquito</text>
<polyline fill="none" stroke="Black" points="669.5,-528.5 764.5,-528.5 "/>
<text text-anchor="middle" x="717" y="-513.3" font-family="Times,serif" font-size="14.00">MQTT broker</text>
</g>
<!-- r3_metaevt_maker -->
<g id="node5" class="node"><title>r3_metaevt_maker</title>
<g id="a_node5"><a xlink:href="https://github.com/realraum/door_and_sensors/tree/master/r3-metaevt-maker" xlink:title="{r³&#45;MetaEvt&#45;Makert|ClientID: metaevt|creates MQTT messages\lbased on other MQTT messages\l}" target="_graphviz">
<path fill="DarkRed" stroke="white" d="M596,-217C596,-217 766,-217 766,-217 772,-217 778,-223 778,-229 778,-229 778,-289 778,-289 778,-295 772,-301 766,-301 766,-301 596,-301 596,-301 590,-301 584,-295 584,-289 584,-289 584,-229 584,-229 584,-223 590,-217 596,-217"/>
<text text-anchor="middle" x="681" y="-285.8" font-family="Times,serif" font-size="14.00" fill="white">r³&#45;MetaEvt&#45;Makert</text>
<polyline fill="none" stroke="white" points="584,-278 778,-278 "/>
<text text-anchor="middle" x="681" y="-262.8" font-family="Times,serif" font-size="14.00" fill="white">ClientID: metaevt</text>
<polyline fill="none" stroke="white" points="584,-255 778,-255 "/>
<text text-anchor="start" x="592" y="-239.8" font-family="Times,serif" font-size="14.00" fill="white">creates MQTT messages</text>
<text text-anchor="start" x="592" y="-224.8" font-family="Times,serif" font-size="14.00" fill="white">based on other MQTT messages</text>
</a>
</g>
</g>
<!-- mosquito&#45;&gt;r3_metaevt_maker -->
<g id="edge14" class="edge"><title>mosquito&#45;&gt;r3_metaevt_maker</title>
<path fill="none" stroke="green" d="M710.047,-505.153C701.218,-462.864 688.235,-370.139 682.488,-311.626"/>
<polygon fill="green" stroke="green" points="685.954,-311.103 681.534,-301.475 678.985,-311.758 685.954,-311.103"/>
</g>
<!-- r3_spaceapistatus -->
<g id="node6" class="node"><title>r3_spaceapistatus</title>
<g id="a_node6"><a xlink:href="https://github.com/realraum/door_and_sensors/tree/master/r3-spaceapistatus" xlink:title="{r³&#45;SpaceAPIStatus|create SpaceAPI JSON\lfrom sensordata\l}" target="_graphviz">
<path fill="DarkRed" stroke="white" d="M28.5,-228.5C28.5,-228.5 147.5,-228.5 147.5,-228.5 153.5,-228.5 159.5,-234.5 159.5,-240.5 159.5,-240.5 159.5,-277.5 159.5,-277.5 159.5,-283.5 153.5,-289.5 147.5,-289.5 147.5,-289.5 28.5,-289.5 28.5,-289.5 22.5,-289.5 16.5,-283.5 16.5,-277.5 16.5,-277.5 16.5,-240.5 16.5,-240.5 16.5,-234.5 22.5,-228.5 28.5,-228.5"/>
<text text-anchor="middle" x="88" y="-274.3" font-family="Times,serif" font-size="14.00" fill="white">r³&#45;SpaceAPIStatus</text>
<polyline fill="none" stroke="white" points="16.5,-266.5 159.5,-266.5 "/>
<text text-anchor="start" x="24.5" y="-251.3" font-family="Times,serif" font-size="14.00" fill="white">create SpaceAPI JSON</text>
<text text-anchor="start" x="24.5" y="-236.3" font-family="Times,serif" font-size="14.00" fill="white">from sensordata</text>
</a>
</g>
</g>
<!-- mosquito&#45;&gt;r3_spaceapistatus -->
<g id="edge16" class="edge"><title>mosquito&#45;&gt;r3_spaceapistatus</title>
<path fill="none" stroke="green" d="M675.42,-505.425C647.548,-491.766 609.57,-475.303 574,-467 485.85,-446.423 241.74,-486.5 168,-434 123.805,-402.535 103.448,-340.491 94.495,-299.632"/>
<polygon fill="green" stroke="green" points="97.9016,-298.821 92.4571,-289.732 91.0453,-300.233 97.9016,-298.821"/>
</g>
<!-- r3_xmppbot -->
<g id="node7" class="node"><title>r3_xmppbot</title>
<g id="a_node7"><a xlink:href="https://github.com/realraum/door_and_sensors/tree/master/r3-spaceapistatus" xlink:title="{r³&#45;XMPPBot|ClientID: xmppbot| xmpp://realrauminfo@realraum.at}" target="_graphviz">
<path fill="DarkRed" stroke="white" d="M189.5,-224.5C189.5,-224.5 370.5,-224.5 370.5,-224.5 376.5,-224.5 382.5,-230.5 382.5,-236.5 382.5,-236.5 382.5,-281.5 382.5,-281.5 382.5,-287.5 376.5,-293.5 370.5,-293.5 370.5,-293.5 189.5,-293.5 189.5,-293.5 183.5,-293.5 177.5,-287.5 177.5,-281.5 177.5,-281.5 177.5,-236.5 177.5,-236.5 177.5,-230.5 183.5,-224.5 189.5,-224.5"/>
<text text-anchor="middle" x="280" y="-278.3" font-family="Times,serif" font-size="14.00" fill="white">r³&#45;XMPPBot</text>
<polyline fill="none" stroke="white" points="177.5,-270.5 382.5,-270.5 "/>
<text text-anchor="middle" x="280" y="-255.3" font-family="Times,serif" font-size="14.00" fill="white">ClientID: xmppbot</text>
<polyline fill="none" stroke="white" points="177.5,-247.5 382.5,-247.5 "/>
<text text-anchor="middle" x="280" y="-232.3" font-family="Times,serif" font-size="14.00" fill="white">xmpp://realrauminfo@realraum.at</text>
</a>
</g>
</g>
<!-- mosquito&#45;&gt;r3_xmppbot -->
<g id="edge17" class="edge"><title>mosquito&#45;&gt;r3_xmppbot</title>
<path fill="none" stroke="green" d="M671.904,-505.372C644.218,-492.562 607.717,-477.037 574,-467 494.79,-443.421 459.642,-480.027 391,-434 343.887,-402.409 312.595,-343.35 295.574,-302.876"/>
<polygon fill="green" stroke="green" points="298.775,-301.458 291.754,-293.523 292.295,-304.104 298.775,-301.458"/>
</g>
<!-- dostuff_switch_lights -->
<g id="node8" class="node"><title>dostuff_switch_lights</title>
<g id="a_node8"><a xlink:href="https://github.com/realraum/door_and_sensors/blob/master/scripts/dostuff_switch_lights.py" xlink:title="{dostuff_switch_lights.py|turns mqtt messages\linto http calls to golightctrl}" target="_graphviz">
<path fill="DarkRed" stroke="white" d="M412.5,-228.5C412.5,-228.5 553.5,-228.5 553.5,-228.5 559.5,-228.5 565.5,-234.5 565.5,-240.5 565.5,-240.5 565.5,-277.5 565.5,-277.5 565.5,-283.5 559.5,-289.5 553.5,-289.5 553.5,-289.5 412.5,-289.5 412.5,-289.5 406.5,-289.5 400.5,-283.5 400.5,-277.5 400.5,-277.5 400.5,-240.5 400.5,-240.5 400.5,-234.5 406.5,-228.5 412.5,-228.5"/>
<text text-anchor="middle" x="483" y="-274.3" font-family="Times,serif" font-size="14.00" fill="white">dostuff_switch_lights.py</text>
<polyline fill="none" stroke="white" points="400.5,-266.5 565.5,-266.5 "/>
<text text-anchor="start" x="408.5" y="-251.3" font-family="Times,serif" font-size="14.00" fill="white">turns mqtt messages</text>
<text text-anchor="middle" x="483" y="-236.3" font-family="Times,serif" font-size="14.00" fill="white">into http calls to golightctrl</text>
</a>
</g>
</g>
<!-- mosquito&#45;&gt;dostuff_switch_lights -->
<g id="edge18" class="edge"><title>mosquito&#45;&gt;dostuff_switch_lights</title>
<path fill="none" stroke="green" d="M671.761,-505.435C641.513,-488.965 602.389,-464.151 575,-434 538.617,-393.948 512.044,-336.871 497.065,-299.155"/>
<polygon fill="green" stroke="green" points="500.211,-297.588 493.328,-289.533 493.686,-300.122 500.211,-297.588"/>
</g>
<!-- play_sound_status -->
<g id="node17" class="node"><title>play_sound_status</title>
<g id="a_node17"><a xlink:href="https://github.com/realraum/door_and_sensors/blob/master/scripts/play-sound-status.py" xlink:title="{play_sound_status.py|read play_sound_status.cfg\lplay jingle when\luser unlocks door\l}" target="_graphviz">
<path fill="DarkRed" stroke="white" d="M972,-221C972,-221 1112,-221 1112,-221 1118,-221 1124,-227 1124,-233 1124,-233 1124,-285 1124,-285 1124,-291 1118,-297 1112,-297 1112,-297 972,-297 972,-297 966,-297 960,-291 960,-285 960,-285 960,-233 960,-233 960,-227 966,-221 972,-221"/>
<text text-anchor="middle" x="1042" y="-281.8" font-family="Times,serif" font-size="14.00" fill="white">play_sound_status.py</text>
<polyline fill="none" stroke="white" points="960,-274 1124,-274 "/>
<text text-anchor="start" x="968" y="-258.8" font-family="Times,serif" font-size="14.00" fill="white">read play_sound_status.cfg</text>
<text text-anchor="start" x="968" y="-243.8" font-family="Times,serif" font-size="14.00" fill="white">play jingle when</text>
<text text-anchor="start" x="968" y="-228.8" font-family="Times,serif" font-size="14.00" fill="white">user unlocks door</text>
</a>
</g>
</g>
<!-- mosquito&#45;&gt;play_sound_status -->
<g id="edge27" class="edge"><title>mosquito&#45;&gt;play_sound_status</title>
<path fill="none" stroke="green" d="M764.598,-518.591C815.703,-506.902 896.715,-481.976 950,-434 988.276,-399.537 1013.37,-345.338 1027.54,-306.59"/>
<polygon fill="green" stroke="green" points="1030.86,-307.687 1030.91,-297.093 1024.27,-305.348 1030.86,-307.687"/>
</g>
<!-- arduinosensors -->
<g id="node19" class="node"><title>arduinosensors</title>
<g id="a_node19"><a xlink:href="https://github.com/realraum/door_and_sensors/blob/master/scripts/arduinosensors.py" xlink:title="{ArduinoSensors.py|ClientID: pillar|Temp,Humidity}" target="_graphviz">
<path fill="DarkRed" stroke="white" d="M1277.5,-648.5C1277.5,-648.5 1374.5,-648.5 1374.5,-648.5 1380.5,-648.5 1386.5,-654.5 1386.5,-660.5 1386.5,-660.5 1386.5,-705.5 1386.5,-705.5 1386.5,-711.5 1380.5,-717.5 1374.5,-717.5 1374.5,-717.5 1277.5,-717.5 1277.5,-717.5 1271.5,-717.5 1265.5,-711.5 1265.5,-705.5 1265.5,-705.5 1265.5,-660.5 1265.5,-660.5 1265.5,-654.5 1271.5,-648.5 1277.5,-648.5"/>
<text text-anchor="middle" x="1326" y="-702.3" font-family="Times,serif" font-size="14.00" fill="white">ArduinoSensors.py</text>
<polyline fill="none" stroke="white" points="1265.5,-694.5 1386.5,-694.5 "/>
<text text-anchor="middle" x="1326" y="-679.3" font-family="Times,serif" font-size="14.00" fill="white">ClientID: pillar</text>
<polyline fill="none" stroke="white" points="1265.5,-671.5 1386.5,-671.5 "/>
<text text-anchor="middle" x="1326" y="-656.3" font-family="Times,serif" font-size="14.00" fill="white">Temp,Humidity</text>
</a>
</g>
</g>
<!-- mosquito&#45;&gt;arduinosensors -->
<g id="edge23" class="edge"><title>mosquito&#45;&gt;arduinosensors</title>
<path fill="none" stroke="green" d="M764.563,-535.346C843.969,-545.548 1008.31,-568.555 1145,-600 1195.16,-611.539 1209.65,-610.62 1256,-633 1262.01,-635.904 1268.08,-639.301 1273.99,-642.929"/>
<polygon fill="green" stroke="green" points="1272.2,-645.941 1282.51,-648.379 1275.97,-640.044 1272.2,-645.941"/>
</g>
<!-- ircbot -->
<g id="node24" class="node"><title>ircbot</title>
<g id="a_node24"><a xlink:href="https://github.com/realraum/r3bot-mqtt" xlink:title="{IRC r3bot&#45;mqtt|ClientID: ircchanbot|Limnoria IRC Bot Plugin}" target="_graphviz">
<path fill="DarkRed" stroke="white" d="M1160,-224.5C1160,-224.5 1292,-224.5 1292,-224.5 1298,-224.5 1304,-230.5 1304,-236.5 1304,-236.5 1304,-281.5 1304,-281.5 1304,-287.5 1298,-293.5 1292,-293.5 1292,-293.5 1160,-293.5 1160,-293.5 1154,-293.5 1148,-287.5 1148,-281.5 1148,-281.5 1148,-236.5 1148,-236.5 1148,-230.5 1154,-224.5 1160,-224.5"/>
<text text-anchor="middle" x="1226" y="-278.3" font-family="Times,serif" font-size="14.00" fill="white">IRC r3bot&#45;mqtt</text>
<polyline fill="none" stroke="white" points="1148,-270.5 1304,-270.5 "/>
<text text-anchor="middle" x="1226" y="-255.3" font-family="Times,serif" font-size="14.00" fill="white">ClientID: ircchanbot</text>
<polyline fill="none" stroke="white" points="1148,-247.5 1304,-247.5 "/>
<text text-anchor="middle" x="1226" y="-232.3" font-family="Times,serif" font-size="14.00" fill="white">Limnoria IRC Bot Plugin</text>
</a>
</g>
</g>
<!-- mosquito&#45;&gt;ircbot -->
<g id="edge28" class="edge"><title>mosquito&#45;&gt;ircbot</title>
<path fill="none" stroke="green" d="M764.611,-521.984C861.622,-509.943 1077.92,-478.751 1136,-434 1178.22,-401.468 1202.48,-343.558 1214.94,-303.533"/>
<polygon fill="green" stroke="green" points="1218.35,-304.353 1217.86,-293.769 1211.64,-302.348 1218.35,-304.353"/>
</g>
<!-- backdoorcx_sensor_node -->
<g id="node4" class="node"><title>backdoorcx_sensor_node</title>
<g id="a_node4"><a xlink:href="https://github.com/realraum/door_and_sensors/tree/master/backdoorcx_sensor_node" xlink:title="{backdoorcx_sensor_node|ClientID: backdoorcx}" target="_graphviz">
<path fill="DarkRed" stroke="white" d="M392,-660C392,-660 522,-660 522,-660 528,-660 534,-666 534,-672 534,-672 534,-694 534,-694 534,-700 528,-706 522,-706 522,-706 392,-706 392,-706 386,-706 380,-700 380,-694 380,-694 380,-672 380,-672 380,-666 386,-660 392,-660"/>
<text text-anchor="middle" x="457" y="-690.8" font-family="Times,serif" font-size="14.00" fill="white">backdoorcx_sensor_node</text>
<polyline fill="none" stroke="white" points="380,-683 534,-683 "/>
<text text-anchor="middle" x="457" y="-667.8" font-family="Times,serif" font-size="14.00" fill="white">ClientID: backdoorcx</text>
</a>
</g>
</g>
<!-- backdoorcx_sensor_node&#45;&gt;mosquito -->
<g id="edge13" class="edge"><title>backdoorcx_sensor_node&#45;&gt;mosquito</title>
<path fill="none" stroke="green" d="M494.529,-659.988C541.093,-632.676 620.477,-586.115 670.755,-556.625"/>
<polygon fill="green" stroke="green" points="672.628,-559.584 679.483,-551.505 669.086,-553.546 672.628,-559.584"/>
</g>
<!-- r3_metaevt_maker&#45;&gt;mosquito -->
<g id="edge15" class="edge"><title>r3_metaevt_maker&#45;&gt;mosquito</title>
<path fill="none" stroke="green" d="M691.63,-301.475C701.214,-354.791 713.377,-446.27 717.215,-494.892"/>
<polygon fill="green" stroke="green" points="713.744,-495.424 717.938,-505.153 720.727,-494.932 713.744,-495.424"/>
</g>
<!-- r3_spaceapistatus&#45;&gt;apache -->
<g id="edge10" class="edge"><title>r3_spaceapistatus&#45;&gt;apache</title>
<path fill="none" stroke="black" stroke-dasharray="1,5" d="M88,-228.485C88,-193.689 88,-135.545 88,-95.5637"/>
<polygon fill="black" stroke="black" points="91.5001,-95.5631 88,-85.5631 84.5001,-95.5632 91.5001,-95.5631"/>
<text text-anchor="middle" x="97" y="-179.8" font-family="Times,serif" font-size="14.00">ssh</text>
</g>
<!-- golightctrl -->
<g id="node16" class="node"><title>golightctrl</title>
<g id="a_node16"><a xlink:href="https://github.com/realraum/deckenlichtschalter/tree/master/linux/golightctrl" xlink:title="{goLightCtrl|http://licht.realraum.at|Power&#45;,Light&#45;,Stereo&#45;\lcontrol Frontend\lserializes rf433 tx\l}" target="_graphviz">
<path fill="Crimson" stroke="Black" d="M814.5,-209.5C814.5,-209.5 929.5,-209.5 929.5,-209.5 935.5,-209.5 941.5,-215.5 941.5,-221.5 941.5,-221.5 941.5,-296.5 941.5,-296.5 941.5,-302.5 935.5,-308.5 929.5,-308.5 929.5,-308.5 814.5,-308.5 814.5,-308.5 808.5,-308.5 802.5,-302.5 802.5,-296.5 802.5,-296.5 802.5,-221.5 802.5,-221.5 802.5,-215.5 808.5,-209.5 814.5,-209.5"/>
<text text-anchor="middle" x="872" y="-293.3" font-family="Times,serif" font-size="14.00">goLightCtrl</text>
<polyline fill="none" stroke="Black" points="802.5,-285.5 941.5,-285.5 "/>
<text text-anchor="middle" x="872" y="-270.3" font-family="Times,serif" font-size="14.00">http://licht.realraum.at</text>
<polyline fill="none" stroke="Black" points="802.5,-262.5 941.5,-262.5 "/>
<text text-anchor="start" x="810.5" y="-247.3" font-family="Times,serif" font-size="14.00">Power&#45;,Light&#45;,Stereo&#45;</text>
<text text-anchor="start" x="810.5" y="-232.3" font-family="Times,serif" font-size="14.00">control Frontend</text>
<text text-anchor="start" x="810.5" y="-217.3" font-family="Times,serif" font-size="14.00">serializes rf433 tx</text>
</a>
</g>
</g>
<!-- dostuff_switch_lights&#45;&gt;golightctrl -->
<g id="edge31" class="edge"><title>dostuff_switch_lights&#45;&gt;golightctrl</title>
<path fill="none" stroke="Blue" d="M492.295,-289.649C504.775,-324.745 530.67,-380.537 575,-405 658.662,-451.168 707.531,-453.268 790,-405 821.947,-386.302 842.4,-350.086 854.889,-318.404"/>
<polygon fill="Blue" stroke="Blue" points="858.279,-319.334 858.514,-308.741 851.725,-316.875 858.279,-319.334"/>
<text text-anchor="middle" x="653" y="-445.8" font-family="Times,serif" font-size="14.00">HTTP</text>
</g>
<!-- olga_freezer_sensordata_forwarder -->
<g id="node9" class="node"><title>olga_freezer_sensordata_forwarder</title>
<g id="a_node9"><a xlink:href="https://github.com/realraum/door_and_sensors/blob/master/scripts/olga_freezer_sensordata_forwarder.py" xlink:title="{olga_freezer_sensordata_forwarder.py|ClientID: olgafreezer|Temperature\lOverTemp Alarm\lSensorLost Alarm\l}" target="_graphviz">
<path fill="DarkRed" stroke="white" d="M564.5,-633.5C564.5,-633.5 765.5,-633.5 765.5,-633.5 771.5,-633.5 777.5,-639.5 777.5,-645.5 777.5,-645.5 777.5,-720.5 777.5,-720.5 777.5,-726.5 771.5,-732.5 765.5,-732.5 765.5,-732.5 564.5,-732.5 564.5,-732.5 558.5,-732.5 552.5,-726.5 552.5,-720.5 552.5,-720.5 552.5,-645.5 552.5,-645.5 552.5,-639.5 558.5,-633.5 564.5,-633.5"/>
<text text-anchor="middle" x="665" y="-717.3" font-family="Times,serif" font-size="14.00" fill="white">olga_freezer_sensordata_forwarder.py</text>
<polyline fill="none" stroke="white" points="552.5,-709.5 777.5,-709.5 "/>
<text text-anchor="middle" x="665" y="-694.3" font-family="Times,serif" font-size="14.00" fill="white">ClientID: olgafreezer</text>
<polyline fill="none" stroke="white" points="552.5,-686.5 777.5,-686.5 "/>
<text text-anchor="start" x="560.5" y="-671.3" font-family="Times,serif" font-size="14.00" fill="white">Temperature</text>
<text text-anchor="start" x="560.5" y="-656.3" font-family="Times,serif" font-size="14.00" fill="white">OverTemp Alarm</text>
<text text-anchor="start" x="560.5" y="-641.3" font-family="Times,serif" font-size="14.00" fill="white">SensorLost Alarm</text>
</a>
</g>
</g>
<!-- olga_freezer_sensordata_forwarder&#45;&gt;smstools -->
<g id="edge11" class="edge"><title>olga_freezer_sensordata_forwarder&#45;&gt;smstools</title>
<path fill="none" stroke="black" d="M600.211,-633.329C566.945,-608.338 527.597,-578.779 499.41,-557.603"/>
<polygon fill="black" stroke="black" points="501.503,-554.798 491.405,-551.59 497.298,-560.395 501.503,-554.798"/>
</g>
<!-- olga_freezer_sensordata_forwarder&#45;&gt;mosquito -->
<g id="edge19" class="edge"><title>olga_freezer_sensordata_forwarder&#45;&gt;mosquito</title>
<path fill="none" stroke="green" d="M681.596,-633.329C689.617,-609.807 699.017,-582.238 706.115,-561.422"/>
<polygon fill="green" stroke="green" points="709.484,-562.388 709.398,-551.793 702.858,-560.129 709.484,-562.388"/>
</g>
<!-- apcupsd_mqtt_notify -->
<g id="node10" class="node"><title>apcupsd_mqtt_notify</title>
<g id="a_node10"><a xlink:href="https://github.com/realraum/door_and_sensors/blob/master/scripts/apcupsd-mqtt-notify.py" xlink:title="{apcupsd&#45;mqtt&#45;notify.py|ClientID: &#45;|repackage as mqtt\lsend SMS on powerloss}" target="_graphviz">
<path fill="DarkRed" stroke="white" d="M224.5,-641C224.5,-641 349.5,-641 349.5,-641 355.5,-641 361.5,-647 361.5,-653 361.5,-653 361.5,-713 361.5,-713 361.5,-719 355.5,-725 349.5,-725 349.5,-725 224.5,-725 224.5,-725 218.5,-725 212.5,-719 212.5,-713 212.5,-713 212.5,-653 212.5,-653 212.5,-647 218.5,-641 224.5,-641"/>
<text text-anchor="middle" x="287" y="-709.8" font-family="Times,serif" font-size="14.00" fill="white">apcupsd&#45;mqtt&#45;notify.py</text>
<polyline fill="none" stroke="white" points="212.5,-702 361.5,-702 "/>
<text text-anchor="middle" x="287" y="-686.8" font-family="Times,serif" font-size="14.00" fill="white">ClientID: &#45;</text>
<polyline fill="none" stroke="white" points="212.5,-679 361.5,-679 "/>
<text text-anchor="start" x="220.5" y="-663.8" font-family="Times,serif" font-size="14.00" fill="white">repackage as mqtt</text>
<text text-anchor="middle" x="287" y="-648.8" font-family="Times,serif" font-size="14.00" fill="white">send SMS on powerloss</text>
</a>
</g>
</g>
<!-- apcupsd_mqtt_notify&#45;&gt;smstools -->
<g id="edge12" class="edge"><title>apcupsd_mqtt_notify&#45;&gt;smstools</title>
<path fill="none" stroke="black" d="M334.358,-640.731C364.208,-614.719 402.016,-581.772 428.712,-558.508"/>
<polygon fill="black" stroke="black" points="431.035,-561.126 436.275,-551.917 426.437,-555.849 431.035,-561.126"/>
</g>
<!-- apcupsd_mqtt_notify&#45;&gt;mosquito -->
<g id="edge20" class="edge"><title>apcupsd_mqtt_notify&#45;&gt;mosquito</title>
<path fill="none" stroke="green" d="M353.543,-640.952C359.348,-638.058 365.215,-635.358 371,-633 457.143,-597.882 485.101,-609.402 574,-582 602.573,-573.193 633.799,-561.925 659.762,-552.088"/>
<polygon fill="green" stroke="green" points="661.342,-555.231 669.438,-548.396 658.847,-548.691 661.342,-555.231"/>
</g>
<!-- backdoorminimus -->
<g id="node11" class="node"><title>backdoorminimus</title>
<polygon fill="DodgerBlue" stroke="black" points="402.5,-868 402.5,-944 511.5,-944 511.5,-868 402.5,-868"/>
<text text-anchor="middle" x="457" y="-928.8" font-family="Times,serif" font-size="14.00">Minimus32</text>
<polyline fill="none" stroke="black" points="402.5,-921 511.5,-921 "/>
<text text-anchor="start" x="410.5" y="-905.8" font-family="Times,serif" font-size="14.00">BackdoorAjar</text>
<text text-anchor="start" x="410.5" y="-890.8" font-family="Times,serif" font-size="14.00">GasAlert</text>
<text text-anchor="start" x="410.5" y="-875.8" font-family="Times,serif" font-size="14.00">CX Temperature</text>
</g>
<!-- backdoorminimus&#45;&gt;backdoorcx_sensor_node -->
<g id="edge4" class="edge"><title>backdoorminimus&#45;&gt;backdoorcx_sensor_node</title>
<path fill="none" stroke="red" d="M457,-867.51C457,-825.005 457,-756.411 457,-716.219"/>
<polygon fill="red" stroke="red" points="460.5,-716.164 457,-706.164 453.5,-716.164 460.5,-716.164"/>
<text text-anchor="middle" x="483.5" y="-826.8" font-family="Times,serif" font-size="14.00">ttyACM0</text>
</g>
<!-- YellowUPS -->
<g id="node12" class="node"><title>YellowUPS</title>
<polygon fill="DodgerBlue" stroke="black" points="242.5,-875.5 242.5,-936.5 331.5,-936.5 331.5,-875.5 242.5,-875.5"/>
<text text-anchor="middle" x="287" y="-921.3" font-family="Times,serif" font-size="14.00">YellowUPS</text>
<polyline fill="none" stroke="black" points="242.5,-913.5 331.5,-913.5 "/>
<text text-anchor="start" x="250.5" y="-898.3" font-family="Times,serif" font-size="14.00">PowerInfo</text>
<text text-anchor="start" x="250.5" y="-883.3" font-family="Times,serif" font-size="14.00">BatteryTemp</text>
</g>
<!-- YellowUPS&#45;&gt;apcupsd_mqtt_notify -->
<g id="edge7" class="edge"><title>YellowUPS&#45;&gt;apcupsd_mqtt_notify</title>
<path fill="none" stroke="red" d="M287,-875.195C287,-839.418 287,-778.827 287,-735.439"/>
<polygon fill="red" stroke="red" points="290.5,-735.358 287,-725.358 283.5,-735.358 290.5,-735.358"/>
<text text-anchor="middle" x="300.5" y="-826.8" font-family="Times,serif" font-size="14.00">APC</text>
</g>
<!-- door_client -->
<g id="node13" class="node"><title>door_client</title>
<g id="a_node13"><a xlink:href="https://github.com/realraum/door_and_sensors/tree/master/door_client" xlink:title="\N" target="_graphviz">
<path fill="DarkRed" stroke="white" d="M1445,-888C1445,-888 1499,-888 1499,-888 1505,-888 1511,-894 1511,-900 1511,-900 1511,-912 1511,-912 1511,-918 1505,-924 1499,-924 1499,-924 1445,-924 1445,-924 1439,-924 1433,-918 1433,-912 1433,-912 1433,-900 1433,-900 1433,-894 1439,-888 1445,-888"/>
<text text-anchor="middle" x="1472" y="-902.3" font-family="Times,serif" font-size="14.00" fill="white">door_client</text>
</a>
</g>
</g>
<!-- door_daemon -->
<g id="node14" class="node"><title>door_daemon</title>
<g id="a_node14"><a xlink:href="https://github.com/realraum/door_and_sensors/tree/master/door_daemon" xlink:title="{door_daemon|ClientID: frontdoor}" target="_graphviz">
<path fill="DarkRed" stroke="white" d="M1423,-660C1423,-660 1521,-660 1521,-660 1527,-660 1533,-666 1533,-672 1533,-672 1533,-694 1533,-694 1533,-700 1527,-706 1521,-706 1521,-706 1423,-706 1423,-706 1417,-706 1411,-700 1411,-694 1411,-694 1411,-672 1411,-672 1411,-666 1417,-660 1423,-660"/>
<text text-anchor="middle" x="1472" y="-690.8" font-family="Times,serif" font-size="14.00" fill="white">door_daemon</text>
<polyline fill="none" stroke="white" points="1411,-683 1533,-683 "/>
<text text-anchor="middle" x="1472" y="-667.8" font-family="Times,serif" font-size="14.00" fill="white">ClientID: frontdoor</text>
</a>
</g>
</g>
<!-- door_client&#45;&gt;door_daemon -->
<g id="edge29" class="edge"><title>door_client&#45;&gt;door_daemon</title>
<path fill="none" stroke="DeepPink" d="M1472,-887.659C1472,-850.67 1472,-763.546 1472,-716.121"/>
<polygon fill="DeepPink" stroke="DeepPink" points="1475.5,-716.081 1472,-706.081 1468.5,-716.081 1475.5,-716.081"/>
<text text-anchor="middle" x="1485" y="-826.8" font-family="Times,serif" font-size="14.00">RPC</text>
</g>
<!-- door_daemon&#45;&gt;mosquito -->
<g id="edge21" class="edge"><title>door_daemon&#45;&gt;mosquito</title>
<path fill="none" stroke="green" d="M1459.27,-659.837C1446.71,-640.295 1425.54,-612.97 1399,-600 1344.17,-573.211 1185.73,-587.897 1125,-582 999.827,-569.847 853.809,-549.572 774.851,-538.1"/>
<polygon fill="green" stroke="green" points="775.029,-534.589 764.629,-536.609 774.019,-541.515 775.029,-534.589"/>
</g>
<!-- teenstep -->
<g id="node15" class="node"><title>teenstep</title>
<g id="a_node15"><a xlink:href="https://github.com/realraum/teenstep" xlink:title="{r³&#45;TeenStep|Custom ATMega32U Board\lwith StepperDriver\lreads RFID Cards\lcontrols DoorLock\lreads AJAR Sensor\l}" target="_graphviz">
<polygon fill="DodgerBlue" stroke="black" points="1423.5,-475.5 1423.5,-581.5 1596.5,-581.5 1596.5,-475.5 1423.5,-475.5"/>
<text text-anchor="middle" x="1510" y="-566.3" font-family="Times,serif" font-size="14.00">r³&#45;TeenStep</text>
<polyline fill="none" stroke="black" points="1423.5,-558.5 1596.5,-558.5 "/>
<text text-anchor="start" x="1431.5" y="-543.3" font-family="Times,serif" font-size="14.00">Custom ATMega32U Board</text>
<text text-anchor="start" x="1431.5" y="-528.3" font-family="Times,serif" font-size="14.00">with StepperDriver</text>
<text text-anchor="start" x="1431.5" y="-513.3" font-family="Times,serif" font-size="14.00">reads RFID Cards</text>
<text text-anchor="start" x="1431.5" y="-498.3" font-family="Times,serif" font-size="14.00">controls DoorLock</text>
<text text-anchor="start" x="1431.5" y="-483.3" font-family="Times,serif" font-size="14.00">reads AJAR Sensor</text>
</a>
</g>
</g>
<!-- door_daemon&#45;&gt;teenstep -->
<g id="edge9" class="edge"><title>door_daemon&#45;&gt;teenstep</title>
<path fill="none" stroke="red" d="M1464.44,-659.98C1459.84,-643.215 1455.92,-619.736 1462,-600 1462.96,-596.887 1464.11,-593.788 1465.41,-590.724"/>
<polygon fill="red" stroke="red" points="1468.58,-592.193 1469.71,-581.658 1462.26,-589.189 1468.58,-592.193"/>
<text text-anchor="middle" x="1488.5" y="-603.8" font-family="Times,serif" font-size="14.00">ttyACM0</text>
</g>
<!-- teenstep&#45;&gt;door_daemon -->
<g id="edge8" class="edge"><title>teenstep&#45;&gt;door_daemon</title>
<path fill="none" stroke="red" d="M1522.22,-581.728C1522.98,-592.88 1522.33,-604.468 1519,-615 1514.88,-628.043 1507.21,-640.751 1499.25,-651.531"/>
<polygon fill="red" stroke="red" points="1496.24,-649.693 1492.86,-659.733 1501.77,-653.995 1496.24,-649.693"/>
<text text-anchor="middle" x="1547.5" y="-603.8" font-family="Times,serif" font-size="14.00">ttyACM0</text>
</g>
<!-- golightctrl&#45;&gt;mosquito -->
<g id="edge22" class="edge"><title>golightctrl&#45;&gt;mosquito</title>
<path fill="none" stroke="green" d="M852.485,-308.757C837.364,-344.495 814.853,-393.614 790,-434 776.148,-456.511 757.837,-479.951 743.019,-497.731"/>
<polygon fill="green" stroke="green" points="740.257,-495.577 736.486,-505.478 745.608,-500.09 740.257,-495.577"/>
</g>
<!-- ceilingteensy -->
<g id="node18" class="node"><title>ceilingteensy</title>
<g id="a_node18"><a xlink:href="https://github.com/realraum/deckenlichtschalter/tree/master/teensy2" xlink:title="{Teensy2|Ceilinglights\lRF433 TX}" target="_graphviz">
<polygon fill="DodgerBlue" stroke="black" points="833,-20.5 833,-81.5 919,-81.5 919,-20.5 833,-20.5"/>
<text text-anchor="middle" x="876" y="-66.3" font-family="Times,serif" font-size="14.00">Teensy2</text>
<polyline fill="none" stroke="black" points="833,-58.5 919,-58.5 "/>
<text text-anchor="start" x="841" y="-43.3" font-family="Times,serif" font-size="14.00">Ceilinglights</text>
<text text-anchor="middle" x="876" y="-28.3" font-family="Times,serif" font-size="14.00">RF433 TX</text>
</a>
</g>
</g>
<!-- golightctrl&#45;&gt;ceilingteensy -->
<g id="edge5" class="edge"><title>golightctrl&#45;&gt;ceilingteensy</title>
<path fill="none" stroke="red" d="M883.42,-209.15C884.483,-203.067 885.389,-196.91 886,-191 889.452,-157.603 886.223,-119.569 882.542,-91.7384"/>
<polygon fill="red" stroke="red" points="885.976,-91.0204 881.122,-81.6027 879.043,-91.9916 885.976,-91.0204"/>
<text text-anchor="middle" x="913.5" y="-179.8" font-family="Times,serif" font-size="14.00">ttyACM0</text>
</g>
<!-- ceilingteensy&#45;&gt;golightctrl -->
<g id="edge6" class="edge"><title>ceilingteensy&#45;&gt;golightctrl</title>
<path fill="none" stroke="red" d="M854.968,-81.603C837.715,-109.592 817.816,-152.867 829,-191 829.914,-194.117 831.023,-197.226 832.283,-200.303"/>
<polygon fill="red" stroke="red" points="829.113,-201.788 836.472,-209.41 835.473,-198.862 829.113,-201.788"/>
<text text-anchor="middle" x="855.5" y="-179.8" font-family="Times,serif" font-size="14.00">ttyACM1</text>
</g>
<!-- arduinosensors&#45;&gt;mosquito -->
<g id="edge24" class="edge"><title>arduinosensors&#45;&gt;mosquito</title>
<path fill="none" stroke="green" d="M1284.46,-648.425C1275.49,-642.497 1265.76,-636.963 1256,-633 1209.69,-614.196 1194.03,-624.708 1145,-615 1116.34,-609.325 1109.57,-606.112 1081,-600 973.161,-576.929 846.635,-553.162 774.732,-539.964"/>
<polygon fill="green" stroke="green" points="774.995,-536.454 764.528,-538.095 773.734,-543.34 774.995,-536.454"/>
</g>
<!-- pillararduino -->
<g id="node21" class="node"><title>pillararduino</title>
<polygon fill="DodgerBlue" stroke="black" points="1231,-483 1231,-574 1359,-574 1359,-483 1231,-483"/>
<text text-anchor="middle" x="1295" y="-558.8" font-family="Times,serif" font-size="14.00">Arduino</text>
<polyline fill="none" stroke="black" points="1231,-551 1359,-551 "/>
<text text-anchor="start" x="1239" y="-535.8" font-family="Times,serif" font-size="14.00">Lightlevel</text>
<text text-anchor="start" x="1239" y="-520.8" font-family="Times,serif" font-size="14.00">RF433 TX</text>
<text text-anchor="start" x="1239" y="-505.8" font-family="Times,serif" font-size="14.00">YamahaStereo IR tx</text>
<text text-anchor="start" x="1239" y="-490.8" font-family="Times,serif" font-size="14.00">BoreDoooomButton</text>
</g>
<!-- arduinosensors&#45;&gt;pillararduino -->
<g id="edge2" class="edge"><title>arduinosensors&#45;&gt;pillararduino</title>
<path fill="none" stroke="red" d="M1281.38,-648.238C1271.89,-638.638 1263.18,-627.383 1258,-615 1253.74,-604.834 1254.38,-594.022 1257.59,-583.628"/>
<polygon fill="red" stroke="red" points="1260.89,-584.821 1261.21,-574.231 1254.35,-582.307 1260.89,-584.821"/>
<text text-anchor="middle" x="1282" y="-603.8" font-family="Times,serif" font-size="14.00">ttyUSB0</text>
</g>
<!-- xbeesensors -->
<g id="node20" class="node"><title>xbeesensors</title>
<g id="a_node20"><a xlink:href="https://github.com/realraum/door_and_sensors/blob/master/scripts/xbeesensors.py" xlink:title="{XbeeSensors.py|ClientID: xbee|remote Temp\lremote Humidity\l}" target="_graphviz">
<path fill="DarkRed" stroke="white" d="M1148.5,-641C1148.5,-641 1235.5,-641 1235.5,-641 1241.5,-641 1247.5,-647 1247.5,-653 1247.5,-653 1247.5,-713 1247.5,-713 1247.5,-719 1241.5,-725 1235.5,-725 1235.5,-725 1148.5,-725 1148.5,-725 1142.5,-725 1136.5,-719 1136.5,-713 1136.5,-713 1136.5,-653 1136.5,-653 1136.5,-647 1142.5,-641 1148.5,-641"/>
<text text-anchor="middle" x="1192" y="-709.8" font-family="Times,serif" font-size="14.00" fill="white">XbeeSensors.py</text>
<polyline fill="none" stroke="white" points="1136.5,-702 1247.5,-702 "/>
<text text-anchor="middle" x="1192" y="-686.8" font-family="Times,serif" font-size="14.00" fill="white">ClientID: xbee</text>
<polyline fill="none" stroke="white" points="1136.5,-679 1247.5,-679 "/>
<text text-anchor="start" x="1144.5" y="-663.8" font-family="Times,serif" font-size="14.00" fill="white">remote Temp</text>
<text text-anchor="start" x="1144.5" y="-648.8" font-family="Times,serif" font-size="14.00" fill="white">remote Humidity</text>
</a>
</g>
</g>
<!-- xbeesensors&#45;&gt;mosquito -->
<g id="edge25" class="edge"><title>xbeesensors&#45;&gt;mosquito</title>
<path fill="none" stroke="green" d="M1139.77,-640.992C1134.91,-638.052 1129.95,-635.332 1125,-633 1007.22,-577.561 855.808,-549.162 774.591,-537.014"/>
<polygon fill="green" stroke="green" points="774.966,-533.532 764.564,-535.544 773.95,-540.458 774.966,-533.532"/>
</g>
<!-- pillararduino&#45;&gt;arduinosensors -->
<g id="edge1" class="edge"><title>pillararduino&#45;&gt;arduinosensors</title>
<path fill="none" stroke="red" d="M1304.64,-574.23C1306.44,-582.78 1308.3,-591.662 1310,-600 1312.54,-612.436 1315.21,-625.95 1317.63,-638.353"/>
<polygon fill="red" stroke="red" points="1314.25,-639.312 1319.59,-648.462 1321.12,-637.978 1314.25,-639.312"/>
<text text-anchor="middle" x="1337" y="-603.8" font-family="Times,serif" font-size="14.00">ttyUSB0</text>
</g>
<!-- laserctl -->
<g id="node22" class="node"><title>laserctl</title>
<g id="a_node22"><a xlink:href="https://github.com/realraum/laserctl/tree/master/raspberry/laser" xlink:title="{lasermon.py|ClientID: lasercutter|LaserCardEvent}" target="_graphviz">
<path fill="DarkRed" stroke="white" d="M814,-648.5C814,-648.5 918,-648.5 918,-648.5 924,-648.5 930,-654.5 930,-660.5 930,-660.5 930,-705.5 930,-705.5 930,-711.5 924,-717.5 918,-717.5 918,-717.5 814,-717.5 814,-717.5 808,-717.5 802,-711.5 802,-705.5 802,-705.5 802,-660.5 802,-660.5 802,-654.5 808,-648.5 814,-648.5"/>
<text text-anchor="middle" x="866" y="-702.3" font-family="Times,serif" font-size="14.00" fill="white">lasermon.py</text>
<polyline fill="none" stroke="white" points="802,-694.5 930,-694.5 "/>
<text text-anchor="middle" x="866" y="-679.3" font-family="Times,serif" font-size="14.00" fill="white">ClientID: lasercutter</text>
<polyline fill="none" stroke="white" points="802,-671.5 930,-671.5 "/>
<text text-anchor="middle" x="866" y="-656.3" font-family="Times,serif" font-size="14.00" fill="white">LaserCardEvent</text>
</a>
</g>
</g>
<!-- laserctl&#45;&gt;mosquito -->
<g id="edge26" class="edge"><title>laserctl&#45;&gt;mosquito</title>
<path fill="none" stroke="green" d="M832.932,-648.155C806.869,-621.48 770.887,-584.652 745.952,-559.132"/>
<polygon fill="green" stroke="green" points="748.402,-556.632 738.91,-551.925 743.395,-561.524 748.402,-556.632"/>
</g>
<!-- olgafreezerarduino -->
<g id="node23" class="node"><title>olgafreezerarduino</title>
<g id="a_node23"><a xlink:href="https://github.com/realraum/olgafreezer_httpPOEtempsensor" xlink:title="{Seeduino (POE, ENC28J60)|olgafreezer.realraum.at|Temperatures&#45;\ldisplay and alert\l}" target="_graphviz">
<polygon fill="DodgerBlue" stroke="black" points="802,-864 802,-948 974,-948 974,-864 802,-864"/>
<text text-anchor="middle" x="888" y="-932.8" font-family="Times,serif" font-size="14.00">Seeduino (POE, ENC28J60)</text>
<polyline fill="none" stroke="black" points="802,-925 974,-925 "/>
<text text-anchor="middle" x="888" y="-909.8" font-family="Times,serif" font-size="14.00">olgafreezer.realraum.at</text>
<polyline fill="none" stroke="black" points="802,-902 974,-902 "/>
<text text-anchor="start" x="810" y="-886.8" font-family="Times,serif" font-size="14.00">Temperatures&#45;</text>
<text text-anchor="start" x="810" y="-871.8" font-family="Times,serif" font-size="14.00">display and alert</text>
</a>
</g>
</g>
<!-- olgafreezerarduino&#45;&gt;olga_freezer_sensordata_forwarder -->
<g id="edge30" class="edge"><title>olgafreezerarduino&#45;&gt;olga_freezer_sensordata_forwarder</title>
<path fill="none" stroke="Blue" d="M846.578,-863.95C811.242,-828.931 760.115,-778.262 721.11,-739.607"/>
<polygon fill="Blue" stroke="Blue" points="723.542,-737.089 713.975,-732.536 718.614,-742.061 723.542,-737.089"/>
<text text-anchor="middle" x="840" y="-826.8" font-family="Times,serif" font-size="14.00">HTTP</text>
</g>
<!-- outsidexbee -->
<g id="node25" class="node"><title>outsidexbee</title>
<polygon fill="DodgerBlue" stroke="black" points="1129,-875.5 1129,-936.5 1271,-936.5 1271,-875.5 1129,-875.5"/>
<text text-anchor="middle" x="1200" y="-921.3" font-family="Times,serif" font-size="14.00">Xbee TunnelFIO Node</text>
<polyline fill="none" stroke="black" points="1129,-913.5 1271,-913.5 "/>
<text text-anchor="start" x="1137" y="-898.3" font-family="Times,serif" font-size="14.00">Temperature</text>
<text text-anchor="start" x="1137" y="-883.3" font-family="Times,serif" font-size="14.00">Humidity</text>
</g>
<!-- outsidexbee&#45;&gt;xbeesensors -->
<g id="edge3" class="edge"><title>outsidexbee&#45;&gt;xbeesensors</title>
<path fill="none" stroke="red" stroke-dasharray="1,5" d="M1198.92,-875.195C1197.63,-839.418 1195.43,-778.827 1193.86,-735.439"/>
<polygon fill="red" stroke="red" points="1197.36,-735.225 1193.5,-725.358 1190.36,-735.478 1197.36,-735.225"/>
<text text-anchor="start" x="1198" y="-834.3" font-family="Times,serif" font-size="14.00">ttyUSB1</text>
<text text-anchor="middle" x="1222" y="-819.3" font-family="Times,serif" font-size="14.00">ZigBee</text>
</g>
</g>
</svg>
