<?xml version="1.0" encoding="UTF-8" standalone="no"?>
<!DOCTYPE svg PUBLIC "-//W3C//DTD SVG 1.1//EN"
 "http://www.w3.org/Graphics/SVG/1.1/DTD/svg11.dtd">
<!-- Generated by graphviz version 2.38.0 (20140413.2041)
 -->
<!-- Title: doorsensornodes Pages: 1 -->
<svg width="2889pt" height="2005pt"
 viewBox="0.00 0.00 2889.20 2004.67" xmlns="http://www.w3.org/2000/svg" xmlns:xlink="http://www.w3.org/1999/xlink">
<g id="graph0" class="graph" transform="scale(1 1) rotate(0) translate(4 2000.67)">
<title>doorsensornodes</title>
<polygon fill="white" stroke="none" points="-4,4 -4,-2000.67 2885.2,-2000.67 2885.2,4 -4,4"/>
<!-- apache -->
<g id="node1" class="node"><title>apache</title>
<g id="a_node1"><a xlink:href="http://realraum.at/status.json" xlink:title="{Apache Webserver|http://realraum.at/|serves status.json}" target="_graphviz">
<path fill="Crimson" stroke="Black" d="M12,-1233.06C12,-1233.06 109,-1233.06 109,-1233.06 115,-1233.06 121,-1239.06 121,-1245.06 121,-1245.06 121,-1290.06 121,-1290.06 121,-1296.06 115,-1302.06 109,-1302.06 109,-1302.06 12,-1302.06 12,-1302.06 6,-1302.06 5.68434e-14,-1296.06 5.68434e-14,-1290.06 5.68434e-14,-1290.06 5.68434e-14,-1245.06 5.68434e-14,-1245.06 5.68434e-14,-1239.06 6,-1233.06 12,-1233.06"/>
<text text-anchor="middle" x="60.5" y="-1286.86" font-family="Times,serif" font-size="14.00">Apache Webserver</text>
<polyline fill="none" stroke="Black" points="5.68434e-14,-1279.06 121,-1279.06 "/>
<text text-anchor="middle" x="60.5" y="-1263.86" font-family="Times,serif" font-size="14.00">http://realraum.at/</text>
<polyline fill="none" stroke="Black" points="5.68434e-14,-1256.06 121,-1256.06 "/>
<text text-anchor="middle" x="60.5" y="-1240.86" font-family="Times,serif" font-size="14.00">serves status.json</text>
</a>
</g>
</g>
<!-- smstools -->
<g id="node2" class="node"><title>smstools</title>
<path fill="DarkRed" stroke="white" d="M1321.1,-270.226C1321.1,-270.226 1503.1,-270.226 1503.1,-270.226 1509.1,-270.226 1515.1,-276.226 1515.1,-282.226 1515.1,-282.226 1515.1,-304.226 1515.1,-304.226 1515.1,-310.226 1509.1,-316.226 1503.1,-316.226 1503.1,-316.226 1321.1,-316.226 1321.1,-316.226 1315.1,-316.226 1309.1,-310.226 1309.1,-304.226 1309.1,-304.226 1309.1,-282.226 1309.1,-282.226 1309.1,-276.226 1315.1,-270.226 1321.1,-270.226"/>
<text text-anchor="middle" x="1412.1" y="-301.026" font-family="Times,serif" font-size="14.00" fill="white">smstools</text>
<polyline fill="none" stroke="white" points="1309.1,-293.226 1515.1,-293.226 "/>
<text text-anchor="middle" x="1412.1" y="-278.026" font-family="Times,serif" font-size="14.00" fill="white">Send SMS via T68i and HOT&#45;Sim</text>
</g>
<!-- mosquito -->
<g id="node3" class="node"><title>mosquito</title>
<path fill="Crimson" stroke="Black" d="M1734.72,-1146.56C1734.72,-1146.56 1805.72,-1146.56 1805.72,-1146.56 1811.72,-1146.56 1817.72,-1152.56 1817.72,-1158.56 1817.72,-1158.56 1817.72,-1180.56 1817.72,-1180.56 1817.72,-1186.56 1811.72,-1192.56 1805.72,-1192.56 1805.72,-1192.56 1734.72,-1192.56 1734.72,-1192.56 1728.72,-1192.56 1722.72,-1186.56 1722.72,-1180.56 1722.72,-1180.56 1722.72,-1158.56 1722.72,-1158.56 1722.72,-1152.56 1728.72,-1146.56 1734.72,-1146.56"/>
<text text-anchor="middle" x="1770.22" y="-1177.36" font-family="Times,serif" font-size="14.00">Mosquito</text>
<polyline fill="none" stroke="Black" points="1722.72,-1169.56 1817.72,-1169.56 "/>
<text text-anchor="middle" x="1770.22" y="-1154.36" font-family="Times,serif" font-size="14.00">MQTT broker</text>
</g>
<!-- r3_metaevt_maker -->
<g id="node5" class="node"><title>r3_metaevt_maker</title>
<g id="a_node5"><a xlink:href="https://github.com/realraum/door_and_sensors/tree/master/r3-metaevt-maker" xlink:title="{r³&#45;MetaEvt&#45;Makert|ClientID: metaevt|creates MQTT messages\lbased on other MQTT messages\l}" target="_graphviz">
<path fill="DarkRed" stroke="white" d="M970.022,-1912.17C970.022,-1912.17 1140.02,-1912.17 1140.02,-1912.17 1146.02,-1912.17 1152.02,-1918.17 1152.02,-1924.17 1152.02,-1924.17 1152.02,-1984.17 1152.02,-1984.17 1152.02,-1990.17 1146.02,-1996.17 1140.02,-1996.17 1140.02,-1996.17 970.022,-1996.17 970.022,-1996.17 964.022,-1996.17 958.022,-1990.17 958.022,-1984.17 958.022,-1984.17 958.022,-1924.17 958.022,-1924.17 958.022,-1918.17 964.022,-1912.17 970.022,-1912.17"/>
<text text-anchor="middle" x="1055.02" y="-1980.97" font-family="Times,serif" font-size="14.00" fill="white">r³&#45;MetaEvt&#45;Makert</text>
<polyline fill="none" stroke="white" points="958.022,-1973.17 1152.02,-1973.17 "/>
<text text-anchor="middle" x="1055.02" y="-1957.97" font-family="Times,serif" font-size="14.00" fill="white">ClientID: metaevt</text>
<polyline fill="none" stroke="white" points="958.022,-1950.17 1152.02,-1950.17 "/>
<text text-anchor="start" x="966.022" y="-1934.97" font-family="Times,serif" font-size="14.00" fill="white">creates MQTT messages</text>
<text text-anchor="start" x="966.022" y="-1919.97" font-family="Times,serif" font-size="14.00" fill="white">based on other MQTT messages</text>
</a>
</g>
</g>
<!-- mosquito&#45;&gt;r3_metaevt_maker -->
<g id="edge14" class="edge"><title>mosquito&#45;&gt;r3_metaevt_maker</title>
<path fill="none" stroke="green" d="M1745.74,-1192.6C1640.73,-1299.99 1228.4,-1751.9 1096.09,-1904"/>
<polygon fill="green" stroke="green" points="1093.17,-1902.03 1089.26,-1911.87 1098.45,-1906.61 1093.17,-1902.03"/>
</g>
<!-- r3_spaceapistatus -->
<g id="node6" class="node"><title>r3_spaceapistatus</title>
<g id="a_node6"><a xlink:href="https://github.com/realraum/door_and_sensors/tree/master/r3-spaceapistatus" xlink:title="{r³&#45;SpaceAPIStatus|create SpaceAPI JSON\lfrom sensordata\l}" target="_graphviz">
<path fill="DarkRed" stroke="white" d="M205,-1237.06C205,-1237.06 324,-1237.06 324,-1237.06 330,-1237.06 336,-1243.06 336,-1249.06 336,-1249.06 336,-1286.06 336,-1286.06 336,-1292.06 330,-1298.06 324,-1298.06 324,-1298.06 205,-1298.06 205,-1298.06 199,-1298.06 193,-1292.06 193,-1286.06 193,-1286.06 193,-1249.06 193,-1249.06 193,-1243.06 199,-1237.06 205,-1237.06"/>
<text text-anchor="middle" x="264.5" y="-1282.86" font-family="Times,serif" font-size="14.00" fill="white">r³&#45;SpaceAPIStatus</text>
<polyline fill="none" stroke="white" points="193,-1275.06 336,-1275.06 "/>
<text text-anchor="start" x="201" y="-1259.86" font-family="Times,serif" font-size="14.00" fill="white">create SpaceAPI JSON</text>
<text text-anchor="start" x="201" y="-1244.86" font-family="Times,serif" font-size="14.00" fill="white">from sensordata</text>
</a>
</g>
</g>
<!-- mosquito&#45;&gt;r3_spaceapistatus -->
<g id="edge16" class="edge"><title>mosquito&#45;&gt;r3_spaceapistatus</title>
<path fill="none" stroke="green" d="M1722.67,-1172.65C1507.24,-1186.67 621.38,-1244.33 346.341,-1262.23"/>
<polygon fill="green" stroke="green" points="345.789,-1258.76 336.037,-1262.9 346.244,-1265.74 345.789,-1258.76"/>
</g>
<!-- r3_xmppbot -->
<g id="node7" class="node"><title>r3_xmppbot</title>
<g id="a_node7"><a xlink:href="https://github.com/realraum/door_and_sensors/tree/master/r3-spaceapistatus" xlink:title="{r³&#45;XMPPBot|ClientID: xmppbot| xmpp://realrauminfo@realraum.at}" target="_graphviz">
<path fill="DarkRed" stroke="white" d="M812.636,-1695.57C812.636,-1695.57 993.636,-1695.57 993.636,-1695.57 999.636,-1695.57 1005.64,-1701.57 1005.64,-1707.57 1005.64,-1707.57 1005.64,-1752.57 1005.64,-1752.57 1005.64,-1758.57 999.636,-1764.57 993.636,-1764.57 993.636,-1764.57 812.636,-1764.57 812.636,-1764.57 806.636,-1764.57 800.636,-1758.57 800.636,-1752.57 800.636,-1752.57 800.636,-1707.57 800.636,-1707.57 800.636,-1701.57 806.636,-1695.57 812.636,-1695.57"/>
<text text-anchor="middle" x="903.136" y="-1749.37" font-family="Times,serif" font-size="14.00" fill="white">r³&#45;XMPPBot</text>
<polyline fill="none" stroke="white" points="800.636,-1741.57 1005.64,-1741.57 "/>
<text text-anchor="middle" x="903.136" y="-1726.37" font-family="Times,serif" font-size="14.00" fill="white">ClientID: xmppbot</text>
<polyline fill="none" stroke="white" points="800.636,-1718.57 1005.64,-1718.57 "/>
<text text-anchor="middle" x="903.136" y="-1703.37" font-family="Times,serif" font-size="14.00" fill="white">xmpp://realrauminfo@realraum.at</text>
</a>
</g>
</g>
<!-- mosquito&#45;&gt;r3_xmppbot -->
<g id="edge17" class="edge"><title>mosquito&#45;&gt;r3_xmppbot</title>
<path fill="none" stroke="green" d="M1734.62,-1192.57C1601.88,-1278.38 1134.86,-1580.28 965.265,-1689.91"/>
<polygon fill="green" stroke="green" points="963.19,-1687.08 956.692,-1695.45 966.99,-1692.96 963.19,-1687.08"/>
</g>
<!-- dostuff_switch_lights -->
<g id="node8" class="node"><title>dostuff_switch_lights</title>
<g id="a_node8"><a xlink:href="https://github.com/realraum/door_and_sensors/blob/master/scripts/dostuff_switch_lights.py" xlink:title="{dostuff_switch_lights.py|turns mqtt messages\linto http calls to golightctrl}" target="_graphviz">
<path fill="DarkRed" stroke="white" d="M1699.72,-1335.05C1699.72,-1335.05 1840.72,-1335.05 1840.72,-1335.05 1846.72,-1335.05 1852.72,-1341.05 1852.72,-1347.05 1852.72,-1347.05 1852.72,-1384.05 1852.72,-1384.05 1852.72,-1390.05 1846.72,-1396.05 1840.72,-1396.05 1840.72,-1396.05 1699.72,-1396.05 1699.72,-1396.05 1693.72,-1396.05 1687.72,-1390.05 1687.72,-1384.05 1687.72,-1384.05 1687.72,-1347.05 1687.72,-1347.05 1687.72,-1341.05 1693.72,-1335.05 1699.72,-1335.05"/>
<text text-anchor="middle" x="1770.22" y="-1380.85" font-family="Times,serif" font-size="14.00" fill="white">dostuff_switch_lights.py</text>
<polyline fill="none" stroke="white" points="1687.72,-1373.05 1852.72,-1373.05 "/>
<text text-anchor="start" x="1695.72" y="-1357.85" font-family="Times,serif" font-size="14.00" fill="white">turns mqtt messages</text>
<text text-anchor="middle" x="1770.22" y="-1342.85" font-family="Times,serif" font-size="14.00" fill="white">into http calls to golightctrl</text>
</a>
</g>
</g>
<!-- mosquito&#45;&gt;dostuff_switch_lights -->
<g id="edge18" class="edge"><title>mosquito&#45;&gt;dostuff_switch_lights</title>
<path fill="none" stroke="green" d="M1770.22,-1192.81C1770.22,-1225.3 1770.22,-1284.76 1770.22,-1324.73"/>
<polygon fill="green" stroke="green" points="1766.72,-1324.94 1770.22,-1334.94 1773.72,-1324.94 1766.72,-1324.94"/>
</g>
<!-- play_sound_status -->
<g id="node18" class="node"><title>play_sound_status</title>
<g id="a_node18"><a xlink:href="https://github.com/realraum/door_and_sensors/blob/master/scripts/play-sound-status.py" xlink:title="{play_sound_status.py|read play_sound_status.cfg\lplay jingle when\luser unlocks door\l}" target="_graphviz">
<path fill="DarkRed" stroke="white" d="M747.796,-1450.88C747.796,-1450.88 887.796,-1450.88 887.796,-1450.88 893.796,-1450.88 899.796,-1456.88 899.796,-1462.88 899.796,-1462.88 899.796,-1514.88 899.796,-1514.88 899.796,-1520.88 893.796,-1526.88 887.796,-1526.88 887.796,-1526.88 747.796,-1526.88 747.796,-1526.88 741.796,-1526.88 735.796,-1520.88 735.796,-1514.88 735.796,-1514.88 735.796,-1462.88 735.796,-1462.88 735.796,-1456.88 741.796,-1450.88 747.796,-1450.88"/>
<text text-anchor="middle" x="817.796" y="-1511.68" font-family="Times,serif" font-size="14.00" fill="white">play_sound_status.py</text>
<polyline fill="none" stroke="white" points="735.796,-1503.88 899.796,-1503.88 "/>
<text text-anchor="start" x="743.796" y="-1488.68" font-family="Times,serif" font-size="14.00" fill="white">read play_sound_status.cfg</text>
<text text-anchor="start" x="743.796" y="-1473.68" font-family="Times,serif" font-size="14.00" fill="white">play jingle when</text>
<text text-anchor="start" x="743.796" y="-1458.68" font-family="Times,serif" font-size="14.00" fill="white">user unlocks door</text>
</a>
</g>
</g>
<!-- mosquito&#45;&gt;play_sound_status -->
<g id="edge27" class="edge"><title>mosquito&#45;&gt;play_sound_status</title>
<path fill="none" stroke="green" d="M1722.67,-1185.5C1572.73,-1235.77 1108.09,-1391.55 909.414,-1458.16"/>
<polygon fill="green" stroke="green" points="908.238,-1454.87 899.87,-1461.36 910.464,-1461.5 908.238,-1454.87"/>
</g>
<!-- arduinosensors -->
<g id="node20" class="node"><title>arduinosensors</title>
<g id="a_node20"><a xlink:href="https://github.com/realraum/door_and_sensors/blob/master/scripts/arduinosensors.py" xlink:title="{ArduinoSensors.py|ClientID: pillar|Temp,Humidity}" target="_graphviz">
<path fill="DarkRed" stroke="white" d="M848.96,-1150.57C848.96,-1150.57 945.96,-1150.57 945.96,-1150.57 951.96,-1150.57 957.96,-1156.57 957.96,-1162.57 957.96,-1162.57 957.96,-1207.57 957.96,-1207.57 957.96,-1213.57 951.96,-1219.57 945.96,-1219.57 945.96,-1219.57 848.96,-1219.57 848.96,-1219.57 842.96,-1219.57 836.96,-1213.57 836.96,-1207.57 836.96,-1207.57 836.96,-1162.57 836.96,-1162.57 836.96,-1156.57 842.96,-1150.57 848.96,-1150.57"/>
<text text-anchor="middle" x="897.46" y="-1204.37" font-family="Times,serif" font-size="14.00" fill="white">ArduinoSensors.py</text>
<polyline fill="none" stroke="white" points="836.96,-1196.57 957.96,-1196.57 "/>
<text text-anchor="middle" x="897.46" y="-1181.37" font-family="Times,serif" font-size="14.00" fill="white">ClientID: pillar</text>
<polyline fill="none" stroke="white" points="836.96,-1173.57 957.96,-1173.57 "/>
<text text-anchor="middle" x="897.46" y="-1158.37" font-family="Times,serif" font-size="14.00" fill="white">Temp,Humidity</text>
</a>
</g>
</g>
<!-- mosquito&#45;&gt;arduinosensors -->
<g id="edge23" class="edge"><title>mosquito&#45;&gt;arduinosensors</title>
<path fill="none" stroke="green" d="M1722.62,-1167.12C1577.62,-1165.29 1140.79,-1172.85 968.466,-1179.9"/>
<polygon fill="green" stroke="green" points="968.084,-1176.42 958.241,-1180.34 968.38,-1183.41 968.084,-1176.42"/>
</g>
<!-- ircbot -->
<g id="node24" class="node"><title>ircbot</title>
<g id="a_node24"><a xlink:href="https://github.com/realraum/r3bot-mqtt" xlink:title="{IRC r3bot&#45;mqtt|ClientID: ircchanbot|Limnoria IRC Bot Plugin}" target="_graphviz">
<path fill="DarkRed" stroke="white" d="M805.025,-841.177C805.025,-841.177 937.025,-841.177 937.025,-841.177 943.025,-841.177 949.025,-847.177 949.025,-853.177 949.025,-853.177 949.025,-898.177 949.025,-898.177 949.025,-904.177 943.025,-910.177 937.025,-910.177 937.025,-910.177 805.025,-910.177 805.025,-910.177 799.025,-910.177 793.025,-904.177 793.025,-898.177 793.025,-898.177 793.025,-853.177 793.025,-853.177 793.025,-847.177 799.025,-841.177 805.025,-841.177"/>
<text text-anchor="middle" x="871.025" y="-894.977" font-family="Times,serif" font-size="14.00" fill="white">IRC r3bot&#45;mqtt</text>
<polyline fill="none" stroke="white" points="793.025,-887.177 949.025,-887.177 "/>
<text text-anchor="middle" x="871.025" y="-871.977" font-family="Times,serif" font-size="14.00" fill="white">ClientID: ircchanbot</text>
<polyline fill="none" stroke="white" points="793.025,-864.177 949.025,-864.177 "/>
<text text-anchor="middle" x="871.025" y="-848.977" font-family="Times,serif" font-size="14.00" fill="white">Limnoria IRC Bot Plugin</text>
</a>
</g>
</g>
<!-- mosquito&#45;&gt;ircbot -->
<g id="edge28" class="edge"><title>mosquito&#45;&gt;ircbot</title>
<path fill="none" stroke="green" d="M1722.51,-1153.96C1578.34,-1106.84 1145.61,-965.419 958.648,-904.314"/>
<polygon fill="green" stroke="green" points="959.714,-900.98 949.121,-901.201 957.539,-907.634 959.714,-900.98"/>
</g>
<!-- backdoorcx_sensor_node -->
<g id="node4" class="node"><title>backdoorcx_sensor_node</title>
<g id="a_node4"><a xlink:href="https://github.com/realraum/door_and_sensors/tree/master/backdoorcx_sensor_node" xlink:title="{backdoorcx_sensor_node|ClientID: backdoorcx}" target="_graphviz">
<path fill="DarkRed" stroke="white" d="M1038.8,-639.935C1038.8,-639.935 1168.8,-639.935 1168.8,-639.935 1174.8,-639.935 1180.8,-645.935 1180.8,-651.935 1180.8,-651.935 1180.8,-673.935 1180.8,-673.935 1180.8,-679.935 1174.8,-685.935 1168.8,-685.935 1168.8,-685.935 1038.8,-685.935 1038.8,-685.935 1032.8,-685.935 1026.8,-679.935 1026.8,-673.935 1026.8,-673.935 1026.8,-651.935 1026.8,-651.935 1026.8,-645.935 1032.8,-639.935 1038.8,-639.935"/>
<text text-anchor="middle" x="1103.8" y="-670.735" font-family="Times,serif" font-size="14.00" fill="white">backdoorcx_sensor_node</text>
<polyline fill="none" stroke="white" points="1026.8,-662.935 1180.8,-662.935 "/>
<text text-anchor="middle" x="1103.8" y="-647.735" font-family="Times,serif" font-size="14.00" fill="white">ClientID: backdoorcx</text>
</a>
</g>
</g>
<!-- backdoorcx_sensor_node&#45;&gt;mosquito -->
<g id="edge13" class="edge"><title>backdoorcx_sensor_node&#45;&gt;mosquito</title>
<path fill="none" stroke="green" d="M1134.17,-686.02C1242.58,-768.44 1610.56,-1048.18 1731.41,-1140.05"/>
<polygon fill="green" stroke="green" points="1729.6,-1143.07 1739.68,-1146.34 1733.84,-1137.5 1729.6,-1143.07"/>
</g>
<!-- r3_metaevt_maker&#45;&gt;mosquito -->
<g id="edge15" class="edge"><title>r3_metaevt_maker&#45;&gt;mosquito</title>
<path fill="none" stroke="green" d="M1097.99,-1911.98C1232.2,-1771.77 1640.51,-1323.56 1745.46,-1200.84"/>
<polygon fill="green" stroke="green" points="1748.4,-1202.79 1752.21,-1192.91 1743.07,-1198.26 1748.4,-1202.79"/>
</g>
<!-- r3_spaceapistatus&#45;&gt;apache -->
<g id="edge10" class="edge"><title>r3_spaceapistatus&#45;&gt;apache</title>
<path fill="none" stroke="black" stroke-dasharray="1,5" d="M192.864,-1267.56C172.92,-1267.56 151.272,-1267.56 131.372,-1267.56"/>
<polygon fill="black" stroke="black" points="131.144,-1264.06 121.144,-1267.56 131.144,-1271.06 131.144,-1264.06"/>
<text text-anchor="middle" x="153.118" y="-1271.36" font-family="Times,serif" font-size="14.00">ssh</text>
</g>
<!-- golightctrl -->
<g id="node17" class="node"><title>golightctrl</title>
<g id="a_node17"><a xlink:href="https://github.com/realraum/deckenlichtschalter/tree/master/linux/golightctrl" xlink:title="{goLightCtrl|http://licht.realraum.at|Power&#45;,Light&#45;,Stereo&#45;\lcontrol Frontend\lserializes rf433 tx\l}" target="_graphviz">
<path fill="Crimson" stroke="Black" d="M1882.46,-1218.06C1882.46,-1218.06 1997.46,-1218.06 1997.46,-1218.06 2003.46,-1218.06 2009.46,-1224.06 2009.46,-1230.06 2009.46,-1230.06 2009.46,-1305.06 2009.46,-1305.06 2009.46,-1311.06 2003.46,-1317.06 1997.46,-1317.06 1997.46,-1317.06 1882.46,-1317.06 1882.46,-1317.06 1876.46,-1317.06 1870.46,-1311.06 1870.46,-1305.06 1870.46,-1305.06 1870.46,-1230.06 1870.46,-1230.06 1870.46,-1224.06 1876.46,-1218.06 1882.46,-1218.06"/>
<text text-anchor="middle" x="1939.96" y="-1301.86" font-family="Times,serif" font-size="14.00">goLightCtrl</text>
<polyline fill="none" stroke="Black" points="1870.46,-1294.06 2009.46,-1294.06 "/>
<text text-anchor="middle" x="1939.96" y="-1278.86" font-family="Times,serif" font-size="14.00">http://licht.realraum.at</text>
<polyline fill="none" stroke="Black" points="1870.46,-1271.06 2009.46,-1271.06 "/>
<text text-anchor="start" x="1878.46" y="-1255.86" font-family="Times,serif" font-size="14.00">Power&#45;,Light&#45;,Stereo&#45;</text>
<text text-anchor="start" x="1878.46" y="-1240.86" font-family="Times,serif" font-size="14.00">control Frontend</text>
<text text-anchor="start" x="1878.46" y="-1225.86" font-family="Times,serif" font-size="14.00">serializes rf433 tx</text>
</a>
</g>
</g>
<!-- dostuff_switch_lights&#45;&gt;golightctrl -->
<g id="edge31" class="edge"><title>dostuff_switch_lights&#45;&gt;golightctrl</title>
<path fill="none" stroke="Blue" d="M1823.47,-1334.82C1835.55,-1327.84 1848.64,-1320.28 1861.52,-1312.84"/>
<polygon fill="Blue" stroke="Blue" points="1863.49,-1315.75 1870.4,-1307.72 1859.99,-1309.69 1863.49,-1315.75"/>
<text text-anchor="middle" x="1825.49" y="-1312.63" font-family="Times,serif" font-size="14.00">HTTP</text>
</g>
<!-- olga_freezer_sensordata_forwarder -->
<g id="node9" class="node"><title>olga_freezer_sensordata_forwarder</title>
<g id="a_node9"><a xlink:href="https://github.com/realraum/door_and_sensors/blob/master/scripts/olga_freezer_sensordata_forwarder.py" xlink:title="{olga_freezer_sensordata_forwarder.py|ClientID: olgafreezer|Temperature\lOverTemp Alarm\lSensorLost Alarm\l}" target="_graphviz">
<path fill="DarkRed" stroke="white" d="M1540.48,-332.835C1540.48,-332.835 1741.48,-332.835 1741.48,-332.835 1747.48,-332.835 1753.48,-338.835 1753.48,-344.835 1753.48,-344.835 1753.48,-419.835 1753.48,-419.835 1753.48,-425.835 1747.48,-431.835 1741.48,-431.835 1741.48,-431.835 1540.48,-431.835 1540.48,-431.835 1534.48,-431.835 1528.48,-425.835 1528.48,-419.835 1528.48,-419.835 1528.48,-344.835 1528.48,-344.835 1528.48,-338.835 1534.48,-332.835 1540.48,-332.835"/>
<text text-anchor="middle" x="1640.98" y="-416.635" font-family="Times,serif" font-size="14.00" fill="white">olga_freezer_sensordata_forwarder.py</text>
<polyline fill="none" stroke="white" points="1528.48,-408.835 1753.48,-408.835 "/>
<text text-anchor="middle" x="1640.98" y="-393.635" font-family="Times,serif" font-size="14.00" fill="white">ClientID: olgafreezer</text>
<polyline fill="none" stroke="white" points="1528.48,-385.835 1753.48,-385.835 "/>
<text text-anchor="start" x="1536.48" y="-370.635" font-family="Times,serif" font-size="14.00" fill="white">Temperature</text>
<text text-anchor="start" x="1536.48" y="-355.635" font-family="Times,serif" font-size="14.00" fill="white">OverTemp Alarm</text>
<text text-anchor="start" x="1536.48" y="-340.635" font-family="Times,serif" font-size="14.00" fill="white">SensorLost Alarm</text>
</a>
</g>
</g>
<!-- olga_freezer_sensordata_forwarder&#45;&gt;smstools -->
<g id="edge11" class="edge"><title>olga_freezer_sensordata_forwarder&#45;&gt;smstools</title>
<path fill="none" stroke="black" d="M1528.22,-338.433C1512.11,-332.163 1495.96,-325.875 1481.05,-320.067"/>
<polygon fill="black" stroke="black" points="1482.02,-316.691 1471.43,-316.325 1479.48,-323.214 1482.02,-316.691"/>
</g>
<!-- olga_freezer_sensordata_forwarder&#45;&gt;mosquito -->
<g id="edge19" class="edge"><title>olga_freezer_sensordata_forwarder&#45;&gt;mosquito</title>
<path fill="none" stroke="green" d="M1649.12,-431.878C1673.33,-579.362 1744.52,-1012.96 1764.78,-1136.41"/>
<polygon fill="green" stroke="green" points="1761.35,-1137.1 1766.42,-1146.4 1768.26,-1135.97 1761.35,-1137.1"/>
</g>
<!-- apcupsd_mqtt_notify -->
<g id="node10" class="node"><title>apcupsd_mqtt_notify</title>
<g id="a_node10"><a xlink:href="https://github.com/realraum/door_and_sensors/blob/master/scripts/apcupsd-mqtt-notify.py" xlink:title="{apcupsd&#45;mqtt&#45;notify.py|ClientID: &#45;|repackage as mqtt\lsend SMS on powerloss}" target="_graphviz">
<path fill="DarkRed" stroke="white" d="M1541.21,-97.5626C1541.21,-97.5626 1666.21,-97.5626 1666.21,-97.5626 1672.21,-97.5626 1678.21,-103.563 1678.21,-109.563 1678.21,-109.563 1678.21,-169.563 1678.21,-169.563 1678.21,-175.563 1672.21,-181.563 1666.21,-181.563 1666.21,-181.563 1541.21,-181.563 1541.21,-181.563 1535.21,-181.563 1529.21,-175.563 1529.21,-169.563 1529.21,-169.563 1529.21,-109.563 1529.21,-109.563 1529.21,-103.563 1535.21,-97.5626 1541.21,-97.5626"/>
<text text-anchor="middle" x="1603.71" y="-166.363" font-family="Times,serif" font-size="14.00" fill="white">apcupsd&#45;mqtt&#45;notify.py</text>
<polyline fill="none" stroke="white" points="1529.21,-158.563 1678.21,-158.563 "/>
<text text-anchor="middle" x="1603.71" y="-143.363" font-family="Times,serif" font-size="14.00" fill="white">ClientID: &#45;</text>
<polyline fill="none" stroke="white" points="1529.21,-135.563 1678.21,-135.563 "/>
<text text-anchor="start" x="1537.21" y="-120.363" font-family="Times,serif" font-size="14.00" fill="white">repackage as mqtt</text>
<text text-anchor="middle" x="1603.71" y="-105.363" font-family="Times,serif" font-size="14.00" fill="white">send SMS on powerloss</text>
</a>
</g>
</g>
<!-- apcupsd_mqtt_notify&#45;&gt;smstools -->
<g id="edge12" class="edge"><title>apcupsd_mqtt_notify&#45;&gt;smstools</title>
<path fill="none" stroke="black" d="M1551.1,-181.755C1518.59,-207.824 1477.7,-240.623 1448.7,-263.877"/>
<polygon fill="black" stroke="black" points="1446.47,-261.182 1440.85,-270.169 1450.84,-266.643 1446.47,-261.182"/>
</g>
<!-- apcupsd_mqtt_notify&#45;&gt;mosquito -->
<g id="edge20" class="edge"><title>apcupsd_mqtt_notify&#45;&gt;mosquito</title>
<path fill="none" stroke="green" d="M1610.55,-181.86C1638.04,-351.912 1740.21,-983.889 1764.85,-1136.32"/>
<polygon fill="green" stroke="green" points="1761.44,-1137.14 1766.49,-1146.45 1768.35,-1136.02 1761.44,-1137.14"/>
</g>
<!-- xbeesensors -->
<g id="node11" class="node"><title>xbeesensors</title>
<g id="a_node11"><a xlink:href="https://github.com/realraum/door_and_sensors/blob/master/scripts/xbeesensors.py" xlink:title="{XbeeSensors.py|ClientID: xbee|remote Temp\lremote Humidity\l}" target="_graphviz">
<path fill="DarkRed" stroke="white" d="M2084.67,-349.972C2084.67,-349.972 2171.67,-349.972 2171.67,-349.972 2177.67,-349.972 2183.67,-355.972 2183.67,-361.972 2183.67,-361.972 2183.67,-421.972 2183.67,-421.972 2183.67,-427.972 2177.67,-433.972 2171.67,-433.972 2171.67,-433.972 2084.67,-433.972 2084.67,-433.972 2078.67,-433.972 2072.67,-427.972 2072.67,-421.972 2072.67,-421.972 2072.67,-361.972 2072.67,-361.972 2072.67,-355.972 2078.67,-349.972 2084.67,-349.972"/>
<text text-anchor="middle" x="2128.17" y="-418.772" font-family="Times,serif" font-size="14.00" fill="white">XbeeSensors.py</text>
<polyline fill="none" stroke="white" points="2072.67,-410.972 2183.67,-410.972 "/>
<text text-anchor="middle" x="2128.17" y="-395.772" font-family="Times,serif" font-size="14.00" fill="white">ClientID: xbee</text>
<polyline fill="none" stroke="white" points="2072.67,-387.972 2183.67,-387.972 "/>
<text text-anchor="start" x="2080.67" y="-372.772" font-family="Times,serif" font-size="14.00" fill="white">remote Temp</text>
<text text-anchor="start" x="2080.67" y="-357.772" font-family="Times,serif" font-size="14.00" fill="white">remote Humidity</text>
</a>
</g>
</g>
<!-- xbeesensors&#45;&gt;mosquito -->
<g id="edge25" class="edge"><title>xbeesensors&#45;&gt;mosquito</title>
<path fill="none" stroke="green" d="M2108.8,-434.054C2044.96,-572.742 1842.02,-1013.6 1785.16,-1137.11"/>
<polygon fill="green" stroke="green" points="1781.87,-1135.89 1780.87,-1146.44 1788.23,-1138.82 1781.87,-1135.89"/>
</g>
<!-- backdoorminimus -->
<g id="node12" class="node"><title>backdoorminimus</title>
<polygon fill="DodgerBlue" stroke="black" points="893.192,-494.388 893.192,-570.388 1002.19,-570.388 1002.19,-494.388 893.192,-494.388"/>
<text text-anchor="middle" x="947.692" y="-555.188" font-family="Times,serif" font-size="14.00">Minimus32</text>
<polyline fill="none" stroke="black" points="893.192,-547.388 1002.19,-547.388 "/>
<text text-anchor="start" x="901.192" y="-532.188" font-family="Times,serif" font-size="14.00">BackdoorAjar</text>
<text text-anchor="start" x="901.192" y="-517.188" font-family="Times,serif" font-size="14.00">GasAlert</text>
<text text-anchor="start" x="901.192" y="-502.188" font-family="Times,serif" font-size="14.00">CX Temperature</text>
</g>
<!-- backdoorminimus&#45;&gt;backdoorcx_sensor_node -->
<g id="edge4" class="edge"><title>backdoorminimus&#45;&gt;backdoorcx_sensor_node</title>
<path fill="none" stroke="red" d="M993.264,-570.499C1017.15,-590.473 1045.97,-614.578 1068.2,-633.163"/>
<polygon fill="red" stroke="red" points="1066.15,-636.013 1076.07,-639.743 1070.64,-630.643 1066.15,-636.013"/>
<text text-anchor="middle" x="1004.23" y="-605.631" font-family="Times,serif" font-size="14.00">ttyACM0</text>
</g>
<!-- YellowUPS -->
<g id="node13" class="node"><title>YellowUPS</title>
<polygon fill="DodgerBlue" stroke="black" points="1601.48,-0.5 1601.48,-61.5 1690.48,-61.5 1690.48,-0.5 1601.48,-0.5"/>
<text text-anchor="middle" x="1645.98" y="-46.3" font-family="Times,serif" font-size="14.00">YellowUPS</text>
<polyline fill="none" stroke="black" points="1601.48,-38.5 1690.48,-38.5 "/>
<text text-anchor="start" x="1609.48" y="-23.3" font-family="Times,serif" font-size="14.00">PowerInfo</text>
<text text-anchor="start" x="1609.48" y="-8.3" font-family="Times,serif" font-size="14.00">BatteryTemp</text>
</g>
<!-- YellowUPS&#45;&gt;apcupsd_mqtt_notify -->
<g id="edge7" class="edge"><title>YellowUPS&#45;&gt;apcupsd_mqtt_notify</title>
<path fill="none" stroke="red" d="M1634.09,-61.5296C1630.87,-69.8149 1627.29,-79.0197 1623.74,-88.118"/>
<polygon fill="red" stroke="red" points="1620.45,-86.9293 1620.08,-97.5178 1626.97,-89.469 1620.45,-86.9293"/>
<text text-anchor="middle" x="1615.42" y="-78.6238" font-family="Times,serif" font-size="14.00">APC</text>
</g>
<!-- door_client -->
<g id="node14" class="node"><title>door_client</title>
<g id="a_node14"><a xlink:href="https://github.com/realraum/door_and_sensors/tree/master/door_client" xlink:title="\N" target="_graphviz">
<path fill="DarkRed" stroke="white" d="M2723.17,-737.061C2723.17,-737.061 2777.17,-737.061 2777.17,-737.061 2783.17,-737.061 2789.17,-743.061 2789.17,-749.061 2789.17,-749.061 2789.17,-761.061 2789.17,-761.061 2789.17,-767.061 2783.17,-773.061 2777.17,-773.061 2777.17,-773.061 2723.17,-773.061 2723.17,-773.061 2717.17,-773.061 2711.17,-767.061 2711.17,-761.061 2711.17,-761.061 2711.17,-749.061 2711.17,-749.061 2711.17,-743.061 2717.17,-737.061 2723.17,-737.061"/>
<text text-anchor="middle" x="2750.17" y="-751.361" font-family="Times,serif" font-size="14.00" fill="white">door_client</text>
</a>
</g>
</g>
<!-- door_daemon -->
<g id="node15" class="node"><title>door_daemon</title>
<g id="a_node15"><a xlink:href="https://github.com/realraum/door_and_sensors/tree/master/door_daemon" xlink:title="{door_daemon|ClientID: frontdoor}" target="_graphviz">
<path fill="DarkRed" stroke="white" d="M2557.09,-566.471C2557.09,-566.471 2655.09,-566.471 2655.09,-566.471 2661.09,-566.471 2667.09,-572.471 2667.09,-578.471 2667.09,-578.471 2667.09,-600.471 2667.09,-600.471 2667.09,-606.471 2661.09,-612.471 2655.09,-612.471 2655.09,-612.471 2557.09,-612.471 2557.09,-612.471 2551.09,-612.471 2545.09,-606.471 2545.09,-600.471 2545.09,-600.471 2545.09,-578.471 2545.09,-578.471 2545.09,-572.471 2551.09,-566.471 2557.09,-566.471"/>
<text text-anchor="middle" x="2606.09" y="-597.271" font-family="Times,serif" font-size="14.00" fill="white">door_daemon</text>
<polyline fill="none" stroke="white" points="2545.09,-589.471 2667.09,-589.471 "/>
<text text-anchor="middle" x="2606.09" y="-574.271" font-family="Times,serif" font-size="14.00" fill="white">ClientID: frontdoor</text>
</a>
</g>
</g>
<!-- door_client&#45;&gt;door_daemon -->
<g id="edge29" class="edge"><title>door_client&#45;&gt;door_daemon</title>
<path fill="none" stroke="DeepPink" d="M2734.48,-737.024C2710.1,-709.01 2662.85,-654.699 2632.96,-620.358"/>
<polygon fill="DeepPink" stroke="DeepPink" points="2635.34,-617.754 2626.13,-612.508 2630.06,-622.349 2635.34,-617.754"/>
<text text-anchor="middle" x="2670.72" y="-682.491" font-family="Times,serif" font-size="14.00">RPC</text>
</g>
<!-- door_daemon&#45;&gt;mosquito -->
<g id="edge21" class="edge"><title>door_daemon&#45;&gt;mosquito</title>
<path fill="none" stroke="green" d="M2572.81,-612.569C2441.22,-703.889 1957.4,-1039.66 1811.89,-1140.64"/>
<polygon fill="green" stroke="green" points="1809.82,-1137.82 1803.6,-1146.39 1813.81,-1143.57 1809.82,-1137.82"/>
</g>
<!-- teenstep -->
<g id="node16" class="node"><title>teenstep</title>
<g id="a_node16"><a xlink:href="https://github.com/realraum/teenstep" xlink:title="{r³&#45;TeenStep|Custom ATMega32U Board\lwith StepperDriver\lreads RFID Cards\lcontrols DoorLock\lreads AJAR Sensor\l}" target="_graphviz">
<polygon fill="DodgerBlue" stroke="black" points="2375.5,-370.882 2375.5,-476.882 2548.5,-476.882 2548.5,-370.882 2375.5,-370.882"/>
<text text-anchor="middle" x="2462" y="-461.682" font-family="Times,serif" font-size="14.00">r³&#45;TeenStep</text>
<polyline fill="none" stroke="black" points="2375.5,-453.882 2548.5,-453.882 "/>
<text text-anchor="start" x="2383.5" y="-438.682" font-family="Times,serif" font-size="14.00">Custom ATMega32U Board</text>
<text text-anchor="start" x="2383.5" y="-423.682" font-family="Times,serif" font-size="14.00">with StepperDriver</text>
<text text-anchor="start" x="2383.5" y="-408.682" font-family="Times,serif" font-size="14.00">reads RFID Cards</text>
<text text-anchor="start" x="2383.5" y="-393.682" font-family="Times,serif" font-size="14.00">controls DoorLock</text>
<text text-anchor="start" x="2383.5" y="-378.682" font-family="Times,serif" font-size="14.00">reads AJAR Sensor</text>
</a>
</g>
</g>
<!-- door_daemon&#45;&gt;teenstep -->
<g id="edge9" class="edge"><title>door_daemon&#45;&gt;teenstep</title>
<path fill="none" stroke="red" d="M2591.9,-566.138C2575.87,-544.987 2548.89,-512.967 2523.64,-484.643"/>
<polygon fill="red" stroke="red" points="2526.2,-482.259 2516.92,-477.149 2520.99,-486.931 2526.2,-482.259"/>
<text text-anchor="middle" x="2531.27" y="-529.191" font-family="Times,serif" font-size="14.00">ttyACM0</text>
</g>
<!-- teenstep&#45;&gt;door_daemon -->
<g id="edge8" class="edge"><title>teenstep&#45;&gt;door_daemon</title>
<path fill="none" stroke="red" d="M2500.14,-477.206C2522.45,-504.153 2550.32,-535.867 2571.92,-558.729"/>
<polygon fill="red" stroke="red" points="2569.54,-561.311 2578.98,-566.123 2574.6,-556.475 2569.54,-561.311"/>
<text text-anchor="middle" x="2509.53" y="-506.768" font-family="Times,serif" font-size="14.00">ttyACM0</text>
</g>
<!-- golightctrl&#45;&gt;mosquito -->
<g id="edge22" class="edge"><title>golightctrl&#45;&gt;mosquito</title>
<path fill="none" stroke="green" d="M1870.43,-1227.41C1853.13,-1217.42 1834.95,-1206.92 1818.89,-1197.65"/>
<polygon fill="green" stroke="green" points="1820.62,-1194.61 1810.21,-1192.64 1817.12,-1200.67 1820.62,-1194.61"/>
</g>
<!-- ceilingteensy -->
<g id="node19" class="node"><title>ceilingteensy</title>
<g id="a_node19"><a xlink:href="https://github.com/realraum/deckenlichtschalter/tree/master/teensy2" xlink:title="{Teensy2|Ceilinglights\lRF433 TX}" target="_graphviz">
<polygon fill="DodgerBlue" stroke="black" points="2196.59,-1237.06 2196.59,-1298.06 2282.59,-1298.06 2282.59,-1237.06 2196.59,-1237.06"/>
<text text-anchor="middle" x="2239.59" y="-1282.86" font-family="Times,serif" font-size="14.00">Teensy2</text>
<polyline fill="none" stroke="black" points="2196.59,-1275.06 2282.59,-1275.06 "/>
<text text-anchor="start" x="2204.59" y="-1259.86" font-family="Times,serif" font-size="14.00">Ceilinglights</text>
<text text-anchor="middle" x="2239.59" y="-1244.86" font-family="Times,serif" font-size="14.00">RF433 TX</text>
</a>
</g>
</g>
<!-- golightctrl&#45;&gt;ceilingteensy -->
<g id="edge5" class="edge"><title>golightctrl&#45;&gt;ceilingteensy</title>
<path fill="none" stroke="red" d="M2009.83,-1273.37C2063.76,-1274.77 2137.22,-1274.6 2186.42,-1272.86"/>
<polygon fill="red" stroke="red" points="2186.68,-1276.35 2196.53,-1272.46 2186.4,-1269.36 2186.68,-1276.35"/>
<text text-anchor="middle" x="2071.63" y="-1276.91" font-family="Times,serif" font-size="14.00">ttyACM0</text>
</g>
<!-- ceilingteensy&#45;&gt;golightctrl -->
<g id="edge6" class="edge"><title>ceilingteensy&#45;&gt;golightctrl</title>
<path fill="none" stroke="red" d="M2196.34,-1262.64C2150.25,-1260.66 2076.25,-1260.28 2019.57,-1261.51"/>
<polygon fill="red" stroke="red" points="2019.47,-1258.01 2009.56,-1261.75 2019.64,-1265.01 2019.47,-1258.01"/>
<text text-anchor="middle" x="2081.46" y="-1250.88" font-family="Times,serif" font-size="14.00">ttyACM1</text>
</g>
<!-- arduinosensors&#45;&gt;mosquito -->
<g id="edge24" class="edge"><title>arduinosensors&#45;&gt;mosquito</title>
<path fill="none" stroke="green" d="M958.203,-1187.64C1119.07,-1188.94 1554.57,-1181.17 1712.24,-1174.17"/>
<polygon fill="green" stroke="green" points="1712.83,-1177.64 1722.66,-1173.69 1712.51,-1170.65 1712.83,-1177.64"/>
</g>
<!-- pillararduino -->
<g id="node21" class="node"><title>pillararduino</title>
<polygon fill="DodgerBlue" stroke="black" points="637.73,-1122.2 637.73,-1213.2 765.73,-1213.2 765.73,-1122.2 637.73,-1122.2"/>
<text text-anchor="middle" x="701.73" y="-1198" font-family="Times,serif" font-size="14.00">Arduino</text>
<polyline fill="none" stroke="black" points="637.73,-1190.2 765.73,-1190.2 "/>
<text text-anchor="start" x="645.73" y="-1175" font-family="Times,serif" font-size="14.00">Lightlevel</text>
<text text-anchor="start" x="645.73" y="-1160" font-family="Times,serif" font-size="14.00">RF433 TX</text>
<text text-anchor="start" x="645.73" y="-1145" font-family="Times,serif" font-size="14.00">YamahaStereo IR tx</text>
<text text-anchor="start" x="645.73" y="-1130" font-family="Times,serif" font-size="14.00">BoreDoooomButton</text>
</g>
<!-- arduinosensors&#45;&gt;pillararduino -->
<g id="edge2" class="edge"><title>arduinosensors&#45;&gt;pillararduino</title>
<path fill="none" stroke="red" d="M836.893,-1173.36C817.649,-1171.17 796.142,-1169.17 776.044,-1167.7"/>
<polygon fill="red" stroke="red" points="776.214,-1164.21 765.996,-1167.01 775.73,-1171.19 776.214,-1164.21"/>
<text text-anchor="middle" x="806.468" y="-1159.33" font-family="Times,serif" font-size="14.00">ttyUSB0</text>
</g>
<!-- pillararduino&#45;&gt;arduinosensors -->
<g id="edge1" class="edge"><title>pillararduino&#45;&gt;arduinosensors</title>
<path fill="none" stroke="red" d="M765.797,-1179.8C785.197,-1181.96 806.617,-1183.9 826.444,-1185.3"/>
<polygon fill="red" stroke="red" points="826.436,-1188.81 836.648,-1185.98 826.903,-1181.82 826.436,-1188.81"/>
<text text-anchor="middle" x="796.12" y="-1171.35" font-family="Times,serif" font-size="14.00">ttyUSB0</text>
</g>
<!-- laserctl -->
<g id="node22" class="node"><title>laserctl</title>
<g id="a_node22"><a xlink:href="https://github.com/realraum/laserctl/tree/master/raspberry/laser" xlink:title="{lasermon.py|ClientID: lasercutter|LaserCardEvent}" target="_graphviz">
<path fill="DarkRed" stroke="white" d="M2765.2,-939.462C2765.2,-939.462 2869.2,-939.462 2869.2,-939.462 2875.2,-939.462 2881.2,-945.462 2881.2,-951.462 2881.2,-951.462 2881.2,-996.462 2881.2,-996.462 2881.2,-1002.46 2875.2,-1008.46 2869.2,-1008.46 2869.2,-1008.46 2765.2,-1008.46 2765.2,-1008.46 2759.2,-1008.46 2753.2,-1002.46 2753.2,-996.462 2753.2,-996.462 2753.2,-951.462 2753.2,-951.462 2753.2,-945.462 2759.2,-939.462 2765.2,-939.462"/>
<text text-anchor="middle" x="2817.2" y="-993.262" font-family="Times,serif" font-size="14.00" fill="white">lasermon.py</text>
<polyline fill="none" stroke="white" points="2753.2,-985.462 2881.2,-985.462 "/>
<text text-anchor="middle" x="2817.2" y="-970.262" font-family="Times,serif" font-size="14.00" fill="white">ClientID: lasercutter</text>
<polyline fill="none" stroke="white" points="2753.2,-962.462 2881.2,-962.462 "/>
<text text-anchor="middle" x="2817.2" y="-947.262" font-family="Times,serif" font-size="14.00" fill="white">LaserCardEvent</text>
</a>
</g>
</g>
<!-- laserctl&#45;&gt;mosquito -->
<g id="edge26" class="edge"><title>laserctl&#45;&gt;mosquito</title>
<path fill="none" stroke="green" d="M2752.89,-985.977C2563.28,-1021.4 2008.44,-1125.05 1827.8,-1158.8"/>
<polygon fill="green" stroke="green" points="1827.15,-1155.36 1817.96,-1160.64 1828.43,-1162.24 1827.15,-1155.36"/>
</g>
<!-- olgafreezerarduino -->
<g id="node23" class="node"><title>olgafreezerarduino</title>
<g id="a_node23"><a xlink:href="https://github.com/realraum/olgafreezer_httpPOEtempsensor" xlink:title="{Seeduino (POE, ENC28J60)|olgafreezer.realraum.at|Temperatures&#45;\ldisplay and alert\l}" target="_graphviz">
<polygon fill="DodgerBlue" stroke="black" points="1653.83,-463.595 1653.83,-547.595 1825.83,-547.595 1825.83,-463.595 1653.83,-463.595"/>
<text text-anchor="middle" x="1739.83" y="-532.395" font-family="Times,serif" font-size="14.00">Seeduino (POE, ENC28J60)</text>
<polyline fill="none" stroke="black" points="1653.83,-524.595 1825.83,-524.595 "/>
<text text-anchor="middle" x="1739.83" y="-509.395" font-family="Times,serif" font-size="14.00">olgafreezer.realraum.at</text>
<polyline fill="none" stroke="black" points="1653.83,-501.595 1825.83,-501.595 "/>
<text text-anchor="start" x="1661.83" y="-486.395" font-family="Times,serif" font-size="14.00">Temperatures&#45;</text>
<text text-anchor="start" x="1661.83" y="-471.395" font-family="Times,serif" font-size="14.00">display and alert</text>
</a>
</g>
</g>
<!-- olgafreezerarduino&#45;&gt;olga_freezer_sensordata_forwarder -->
<g id="edge30" class="edge"><title>olgafreezerarduino&#45;&gt;olga_freezer_sensordata_forwarder</title>
<path fill="none" stroke="Blue" d="M1706.09,-463.521C1699.97,-455.884 1693.48,-447.801 1687.08,-439.811"/>
<polygon fill="Blue" stroke="Blue" points="1689.7,-437.484 1680.71,-431.872 1684.24,-441.863 1689.7,-437.484"/>
<text text-anchor="middle" x="1679.58" y="-440.466" font-family="Times,serif" font-size="14.00">HTTP</text>
</g>
<!-- outsidexbee -->
<g id="node25" class="node"><title>outsidexbee</title>
<polygon fill="DodgerBlue" stroke="black" points="2121.78,-173.779 2121.78,-234.779 2263.78,-234.779 2263.78,-173.779 2121.78,-173.779"/>
<text text-anchor="middle" x="2192.78" y="-219.579" font-family="Times,serif" font-size="14.00">Xbee TunnelFIO Node</text>
<polyline fill="none" stroke="black" points="2121.78,-211.779 2263.78,-211.779 "/>
<text text-anchor="start" x="2129.78" y="-196.579" font-family="Times,serif" font-size="14.00">Temperature</text>
<text text-anchor="start" x="2129.78" y="-181.579" font-family="Times,serif" font-size="14.00">Humidity</text>
</g>
<!-- outsidexbee&#45;&gt;xbeesensors -->
<g id="edge3" class="edge"><title>outsidexbee&#45;&gt;xbeesensors</title>
<path fill="none" stroke="red" stroke-dasharray="1,5" d="M2182.25,-234.853C2172.46,-263.311 2157.66,-306.298 2146.02,-340.119"/>
<polygon fill="red" stroke="red" points="2142.62,-339.249 2142.67,-349.844 2149.24,-341.527 2142.62,-339.249"/>
<text text-anchor="start" x="2116.14" y="-306.286" font-family="Times,serif" font-size="14.00">ttyUSB1</text>
<text text-anchor="middle" x="2140.14" y="-291.286" font-family="Times,serif" font-size="14.00">ZigBee</text>
</g>
</g>
</svg>
