<?xml version="1.0" encoding="UTF-8" standalone="no"?>
<!DOCTYPE svg PUBLIC "-//W3C//DTD SVG 1.1//EN"
 "http://www.w3.org/Graphics/SVG/1.1/DTD/svg11.dtd">
<!-- Generated by graphviz version 2.38.0 (20140413.2041)
 -->
<!-- Title: doorsensornodes Pages: 1 -->
<svg width="2169pt" height="1050pt"
 viewBox="0.00 0.00 2169.00 1050.00" xmlns="http://www.w3.org/2000/svg" xmlns:xlink="http://www.w3.org/1999/xlink">
<g id="graph0" class="graph" transform="scale(1 1) rotate(0) translate(4 1046)">
<title>doorsensornodes</title>
<polygon fill="white" stroke="none" points="-4,4 -4,-1046 2165,-1046 2165,4 -4,4"/>
<g id="clust1" class="cluster"><title>clustervex</title>
<path fill="Khaki" stroke="black" d="M1060,-19C1060,-19 1255,-19 1255,-19 1261,-19 1267,-25 1267,-31 1267,-31 1267,-167 1267,-167 1267,-173 1261,-179 1255,-179 1255,-179 1060,-179 1060,-179 1054,-179 1048,-173 1048,-167 1048,-167 1048,-31 1048,-31 1048,-25 1054,-19 1060,-19"/>
<text text-anchor="middle" x="1157.5" y="-154.2" font-family="UbuntuMono" font-size="26.00">vex.realraum.at</text>
</g>
<g id="clust2" class="cluster"><title>clustermqtt</title>
<path fill="Khaki" stroke="black" d="M506,-219.5C506,-219.5 1260,-219.5 1260,-219.5 1266,-219.5 1272,-225.5 1272,-231.5 1272,-231.5 1272,-1018 1272,-1018 1272,-1024 1266,-1030 1260,-1030 1260,-1030 506,-1030 506,-1030 500,-1030 494,-1024 494,-1018 494,-1018 494,-231.5 494,-231.5 494,-225.5 500,-219.5 506,-219.5"/>
<text text-anchor="middle" x="883" y="-1005.2" font-family="UbuntuMono" font-size="26.00">mqtt.realraum.at &#160;aka &#160;smsgw.realraum.at</text>
</g>
<g id="clust3" class="cluster"><title>clustertuer</title>
<path fill="Khaki" stroke="black" d="M1627,-478C1627,-478 1836,-478 1836,-478 1842,-478 1848,-484 1848,-490 1848,-490 1848,-998 1848,-998 1848,-1004 1842,-1010 1836,-1010 1836,-1010 1627,-1010 1627,-1010 1621,-1010 1615,-1004 1615,-998 1615,-998 1615,-490 1615,-490 1615,-484 1621,-478 1627,-478"/>
<text text-anchor="middle" x="1731.5" y="-985.2" font-family="UbuntuMono" font-size="26.00">tuer.realraum.at</text>
</g>
<g id="clust4" class="cluster"><title>clusterlicht</title>
<path fill="Khaki" stroke="black" d="M1292,-23C1292,-23 1606,-23 1606,-23 1612,-23 1618,-29 1618,-35 1618,-35 1618,-390 1618,-390 1618,-396 1612,-402 1606,-402 1606,-402 1292,-402 1292,-402 1286,-402 1280,-396 1280,-390 1280,-390 1280,-35 1280,-35 1280,-29 1286,-23 1292,-23"/>
<text text-anchor="middle" x="1449" y="-377.2" font-family="UbuntuMono" font-size="26.00">licht.realraum.at</text>
</g>
<g id="clust5" class="cluster"><title>clusterkiosk</title>
<path fill="Khaki" stroke="black" d="M1638,-8C1638,-8 1860,-8 1860,-8 1866,-8 1872,-14 1872,-20 1872,-20 1872,-375 1872,-375 1872,-381 1866,-387 1860,-387 1860,-387 1638,-387 1638,-387 1632,-387 1626,-381 1626,-375 1626,-375 1626,-20 1626,-20 1626,-14 1632,-8 1638,-8"/>
<text text-anchor="middle" x="1749" y="-362.2" font-family="UbuntuMono" font-size="26.00">kiosk.realraum.at</text>
</g>
<g id="clust6" class="cluster"><title>clusterlaser</title>
<path fill="Khaki" stroke="black" d="M1292,-651C1292,-651 1595,-651 1595,-651 1601,-651 1607,-657 1607,-663 1607,-663 1607,-799 1607,-799 1607,-805 1601,-811 1595,-811 1595,-811 1292,-811 1292,-811 1286,-811 1280,-805 1280,-799 1280,-799 1280,-663 1280,-663 1280,-657 1286,-651 1292,-651"/>
<text text-anchor="middle" x="1443.5" y="-786.2" font-family="UbuntuMono" font-size="26.00">lasercutter.realraum.at</text>
</g>
<g id="clust7" class="cluster"><title>clusterolgafreezer</title>
<path fill="Khaki" stroke="black" d="M20,-859C20,-859 323,-859 323,-859 329,-859 335,-865 335,-871 335,-871 335,-1022 335,-1022 335,-1028 329,-1034 323,-1034 323,-1034 20,-1034 20,-1034 14,-1034 8,-1028 8,-1022 8,-1022 8,-871 8,-871 8,-865 14,-859 20,-859"/>
<text text-anchor="middle" x="171.5" y="-1009.2" font-family="UbuntuMono" font-size="26.00">olgafreezer.realraum.at</text>
</g>
<g id="clust8" class="cluster"><title>clusterthinkpi</title>
<path fill="Khaki" stroke="black" d="M1892,-227C1892,-227 2141,-227 2141,-227 2147,-227 2153,-233 2153,-239 2153,-239 2153,-433 2153,-433 2153,-439 2147,-445 2141,-445 2141,-445 1892,-445 1892,-445 1886,-445 1880,-439 1880,-433 1880,-433 1880,-239 1880,-239 1880,-233 1886,-227 1892,-227"/>
<text text-anchor="start" x="1888" y="-420.2" font-family="UbuntuMono" font-size="26.00">dhcp&#45;12.realraum.at</text>
<text text-anchor="middle" x="2016.5" y="-391.2" font-family="UbuntuMono" font-size="26.00">thinkpi.realraum.at</text>
</g>
<!-- apache -->
<g id="node1" class="node"><title>apache</title>
<g id="a_node1"><a xlink:href="http://realraum.at/status.json" xlink:title="{Apache Webserver|http://realraum.at/|serves status.json}" target="_graphviz">
<path fill="Crimson" stroke="Black" d="M1143.5,-27.5C1143.5,-27.5 1240.5,-27.5 1240.5,-27.5 1246.5,-27.5 1252.5,-33.5 1252.5,-39.5 1252.5,-39.5 1252.5,-84.5 1252.5,-84.5 1252.5,-90.5 1246.5,-96.5 1240.5,-96.5 1240.5,-96.5 1143.5,-96.5 1143.5,-96.5 1137.5,-96.5 1131.5,-90.5 1131.5,-84.5 1131.5,-84.5 1131.5,-39.5 1131.5,-39.5 1131.5,-33.5 1137.5,-27.5 1143.5,-27.5"/>
<text text-anchor="middle" x="1192" y="-81.3" font-family="Times,serif" font-size="14.00">Apache Webserver</text>
<polyline fill="none" stroke="Black" points="1131.5,-73.5 1252.5,-73.5 "/>
<text text-anchor="middle" x="1192" y="-58.3" font-family="Times,serif" font-size="14.00">http://realraum.at/</text>
<polyline fill="none" stroke="Black" points="1131.5,-50.5 1252.5,-50.5 "/>
<text text-anchor="middle" x="1192" y="-35.3" font-family="Times,serif" font-size="14.00">serves status.json</text>
</a>
</g>
</g>
<!-- smstools -->
<g id="node2" class="node"><title>smstools</title>
<path fill="DarkRed" stroke="white" d="M697,-516.5C697,-516.5 879,-516.5 879,-516.5 885,-516.5 891,-522.5 891,-528.5 891,-528.5 891,-550.5 891,-550.5 891,-556.5 885,-562.5 879,-562.5 879,-562.5 697,-562.5 697,-562.5 691,-562.5 685,-556.5 685,-550.5 685,-550.5 685,-528.5 685,-528.5 685,-522.5 691,-516.5 697,-516.5"/>
<text text-anchor="middle" x="788" y="-547.3" font-family="Times,serif" font-size="14.00" fill="white">smstools</text>
<polyline fill="none" stroke="white" points="685,-539.5 891,-539.5 "/>
<text text-anchor="middle" x="788" y="-524.3" font-family="Times,serif" font-size="14.00" fill="white">Send SMS via T68i and HOT&#45;Sim</text>
</g>
<!-- mosquito -->
<g id="node3" class="node"><title>mosquito</title>
<path fill="Crimson" stroke="Black" d="M1153.5,-516.5C1153.5,-516.5 1224.5,-516.5 1224.5,-516.5 1230.5,-516.5 1236.5,-522.5 1236.5,-528.5 1236.5,-528.5 1236.5,-550.5 1236.5,-550.5 1236.5,-556.5 1230.5,-562.5 1224.5,-562.5 1224.5,-562.5 1153.5,-562.5 1153.5,-562.5 1147.5,-562.5 1141.5,-556.5 1141.5,-550.5 1141.5,-550.5 1141.5,-528.5 1141.5,-528.5 1141.5,-522.5 1147.5,-516.5 1153.5,-516.5"/>
<text text-anchor="middle" x="1189" y="-547.3" font-family="Times,serif" font-size="14.00">Mosquito</text>
<polyline fill="none" stroke="Black" points="1141.5,-539.5 1236.5,-539.5 "/>
<text text-anchor="middle" x="1189" y="-524.3" font-family="Times,serif" font-size="14.00">MQTT broker</text>
</g>
<!-- r3_metaevt_maker -->
<g id="node5" class="node"><title>r3_metaevt_maker</title>
<g id="a_node5"><a xlink:href="https://github.com/realraum/door_and_sensors/tree/master/r3-metaevt-maker" xlink:title="{r³&#45;MetaEvt&#45;Makert|ClientID: metaevt|creates MQTT messages\lbased on other MQTT messages\l}" target="_graphviz">
<path fill="DarkRed" stroke="white" d="M920,-228C920,-228 1090,-228 1090,-228 1096,-228 1102,-234 1102,-240 1102,-240 1102,-300 1102,-300 1102,-306 1096,-312 1090,-312 1090,-312 920,-312 920,-312 914,-312 908,-306 908,-300 908,-300 908,-240 908,-240 908,-234 914,-228 920,-228"/>
<text text-anchor="middle" x="1005" y="-296.8" font-family="Times,serif" font-size="14.00" fill="white">r³&#45;MetaEvt&#45;Makert</text>
<polyline fill="none" stroke="white" points="908,-289 1102,-289 "/>
<text text-anchor="middle" x="1005" y="-273.8" font-family="Times,serif" font-size="14.00" fill="white">ClientID: metaevt</text>
<polyline fill="none" stroke="white" points="908,-266 1102,-266 "/>
<text text-anchor="start" x="916" y="-250.8" font-family="Times,serif" font-size="14.00" fill="white">creates MQTT messages</text>
<text text-anchor="start" x="916" y="-235.8" font-family="Times,serif" font-size="14.00" fill="white">based on other MQTT messages</text>
</a>
</g>
</g>
<!-- mosquito&#45;&gt;r3_metaevt_maker -->
<g id="edge14" class="edge"><title>mosquito&#45;&gt;r3_metaevt_maker</title>
<path fill="none" stroke="green" d="M1152.55,-516.343C1135.94,-503.352 1117.07,-485.992 1103,-468 1067.31,-422.342 1036.94,-363.15 1019.54,-321.615"/>
<polygon fill="green" stroke="green" points="1022.74,-320.18 1015.72,-312.245 1016.26,-322.826 1022.74,-320.18"/>
</g>
<!-- r3_spaceapistatus -->
<g id="node6" class="node"><title>r3_spaceapistatus</title>
<g id="a_node6"><a xlink:href="https://github.com/realraum/door_and_sensors/tree/master/r3-spaceapistatus" xlink:title="{r³&#45;SpaceAPIStatus|create SpaceAPI JSON\lfrom sensordata\l}" target="_graphviz">
<path fill="DarkRed" stroke="white" d="M1132.5,-239.5C1132.5,-239.5 1251.5,-239.5 1251.5,-239.5 1257.5,-239.5 1263.5,-245.5 1263.5,-251.5 1263.5,-251.5 1263.5,-288.5 1263.5,-288.5 1263.5,-294.5 1257.5,-300.5 1251.5,-300.5 1251.5,-300.5 1132.5,-300.5 1132.5,-300.5 1126.5,-300.5 1120.5,-294.5 1120.5,-288.5 1120.5,-288.5 1120.5,-251.5 1120.5,-251.5 1120.5,-245.5 1126.5,-239.5 1132.5,-239.5"/>
<text text-anchor="middle" x="1192" y="-285.3" font-family="Times,serif" font-size="14.00" fill="white">r³&#45;SpaceAPIStatus</text>
<polyline fill="none" stroke="white" points="1120.5,-277.5 1263.5,-277.5 "/>
<text text-anchor="start" x="1128.5" y="-262.3" font-family="Times,serif" font-size="14.00" fill="white">create SpaceAPI JSON</text>
<text text-anchor="start" x="1128.5" y="-247.3" font-family="Times,serif" font-size="14.00" fill="white">from sensordata</text>
</a>
</g>
</g>
<!-- mosquito&#45;&gt;r3_spaceapistatus -->
<g id="edge16" class="edge"><title>mosquito&#45;&gt;r3_spaceapistatus</title>
<path fill="none" stroke="green" d="M1189.25,-516.153C1189.76,-470.879 1190.91,-367.794 1191.55,-310.773"/>
<polygon fill="green" stroke="green" points="1195.05,-310.725 1191.67,-300.686 1188.06,-310.647 1195.05,-310.725"/>
</g>
<!-- r3_xmppbot -->
<g id="node7" class="node"><title>r3_xmppbot</title>
<g id="a_node7"><a xlink:href="https://github.com/realraum/door_and_sensors/tree/master/r3-spaceapistatus" xlink:title="{r³&#45;XMPPBot|ClientID: xmppbot| xmpp://realrauminfo@realraum.at}" target="_graphviz">
<path fill="DarkRed" stroke="white" d="M513.5,-235.5C513.5,-235.5 694.5,-235.5 694.5,-235.5 700.5,-235.5 706.5,-241.5 706.5,-247.5 706.5,-247.5 706.5,-292.5 706.5,-292.5 706.5,-298.5 700.5,-304.5 694.5,-304.5 694.5,-304.5 513.5,-304.5 513.5,-304.5 507.5,-304.5 501.5,-298.5 501.5,-292.5 501.5,-292.5 501.5,-247.5 501.5,-247.5 501.5,-241.5 507.5,-235.5 513.5,-235.5"/>
<text text-anchor="middle" x="604" y="-289.3" font-family="Times,serif" font-size="14.00" fill="white">r³&#45;XMPPBot</text>
<polyline fill="none" stroke="white" points="501.5,-281.5 706.5,-281.5 "/>
<text text-anchor="middle" x="604" y="-266.3" font-family="Times,serif" font-size="14.00" fill="white">ClientID: xmppbot</text>
<polyline fill="none" stroke="white" points="501.5,-258.5 706.5,-258.5 "/>
<text text-anchor="middle" x="604" y="-243.3" font-family="Times,serif" font-size="14.00" fill="white">xmpp://realrauminfo@realraum.at</text>
</a>
</g>
</g>
<!-- mosquito&#45;&gt;r3_xmppbot -->
<g id="edge17" class="edge"><title>mosquito&#45;&gt;r3_xmppbot</title>
<path fill="none" stroke="green" d="M1141.27,-528.054C1084.05,-515.633 985.175,-494.508 900,-478 818.006,-462.108 784.412,-491.449 715,-445 667.857,-413.453 636.572,-354.384 619.56,-313.895"/>
<polygon fill="green" stroke="green" points="622.762,-312.476 615.743,-304.539 616.28,-315.12 622.762,-312.476"/>
</g>
<!-- dostuff_switch_lights -->
<g id="node8" class="node"><title>dostuff_switch_lights</title>
<g id="a_node8"><a xlink:href="https://github.com/realraum/door_and_sensors/blob/master/scripts/dostuff_switch_lights.py" xlink:title="{dostuff_switch_lights.py|turns mqtt messages\linto http calls to golightctrl}" target="_graphviz">
<path fill="DarkRed" stroke="white" d="M736.5,-239.5C736.5,-239.5 877.5,-239.5 877.5,-239.5 883.5,-239.5 889.5,-245.5 889.5,-251.5 889.5,-251.5 889.5,-288.5 889.5,-288.5 889.5,-294.5 883.5,-300.5 877.5,-300.5 877.5,-300.5 736.5,-300.5 736.5,-300.5 730.5,-300.5 724.5,-294.5 724.5,-288.5 724.5,-288.5 724.5,-251.5 724.5,-251.5 724.5,-245.5 730.5,-239.5 736.5,-239.5"/>
<text text-anchor="middle" x="807" y="-285.3" font-family="Times,serif" font-size="14.00" fill="white">dostuff_switch_lights.py</text>
<polyline fill="none" stroke="white" points="724.5,-277.5 889.5,-277.5 "/>
<text text-anchor="start" x="732.5" y="-262.3" font-family="Times,serif" font-size="14.00" fill="white">turns mqtt messages</text>
<text text-anchor="middle" x="807" y="-247.3" font-family="Times,serif" font-size="14.00" fill="white">into http calls to golightctrl</text>
</a>
</g>
</g>
<!-- mosquito&#45;&gt;dostuff_switch_lights -->
<g id="edge18" class="edge"><title>mosquito&#45;&gt;dostuff_switch_lights</title>
<path fill="none" stroke="green" d="M1141.31,-534.18C1079.08,-526.287 969.813,-504.422 899,-445 856.771,-409.564 831.23,-349.689 818.114,-310.25"/>
<polygon fill="green" stroke="green" points="821.435,-309.142 815.045,-300.691 814.77,-311.282 821.435,-309.142"/>
</g>
<!-- play_sound_status -->
<g id="node18" class="node"><title>play_sound_status</title>
<g id="a_node18"><a xlink:href="https://github.com/realraum/door_and_sensors/blob/master/scripts/play-sound-status.py" xlink:title="{play_sound_status.py|read play_sound_status.cfg\lplay jingle when\luser unlocks door\l}" target="_graphviz">
<path fill="DarkRed" stroke="white" d="M1300,-232C1300,-232 1440,-232 1440,-232 1446,-232 1452,-238 1452,-244 1452,-244 1452,-296 1452,-296 1452,-302 1446,-308 1440,-308 1440,-308 1300,-308 1300,-308 1294,-308 1288,-302 1288,-296 1288,-296 1288,-244 1288,-244 1288,-238 1294,-232 1300,-232"/>
<text text-anchor="middle" x="1370" y="-292.8" font-family="Times,serif" font-size="14.00" fill="white">play_sound_status.py</text>
<polyline fill="none" stroke="white" points="1288,-285 1452,-285 "/>
<text text-anchor="start" x="1296" y="-269.8" font-family="Times,serif" font-size="14.00" fill="white">read play_sound_status.cfg</text>
<text text-anchor="start" x="1296" y="-254.8" font-family="Times,serif" font-size="14.00" fill="white">play jingle when</text>
<text text-anchor="start" x="1296" y="-239.8" font-family="Times,serif" font-size="14.00" fill="white">user unlocks door</text>
</a>
</g>
</g>
<!-- mosquito&#45;&gt;play_sound_status -->
<g id="edge27" class="edge"><title>mosquito&#45;&gt;play_sound_status</title>
<path fill="none" stroke="green" d="M1212.55,-516.486C1231.13,-498.381 1257,-471.483 1276,-445 1305.12,-404.41 1331.51,-353.753 1348.86,-317.583"/>
<polygon fill="green" stroke="green" points="1352.16,-318.786 1353.29,-308.251 1345.84,-315.784 1352.16,-318.786"/>
</g>
<!-- arduinosensors -->
<g id="node20" class="node"><title>arduinosensors</title>
<g id="a_node20"><a xlink:href="https://github.com/realraum/door_and_sensors/blob/master/scripts/arduinosensors.py" xlink:title="{ArduinoSensors.py|ClientID: pillar|Temp,Humidity}" target="_graphviz">
<path fill="DarkRed" stroke="white" d="M1646.5,-235.5C1646.5,-235.5 1743.5,-235.5 1743.5,-235.5 1749.5,-235.5 1755.5,-241.5 1755.5,-247.5 1755.5,-247.5 1755.5,-292.5 1755.5,-292.5 1755.5,-298.5 1749.5,-304.5 1743.5,-304.5 1743.5,-304.5 1646.5,-304.5 1646.5,-304.5 1640.5,-304.5 1634.5,-298.5 1634.5,-292.5 1634.5,-292.5 1634.5,-247.5 1634.5,-247.5 1634.5,-241.5 1640.5,-235.5 1646.5,-235.5"/>
<text text-anchor="middle" x="1695" y="-289.3" font-family="Times,serif" font-size="14.00" fill="white">ArduinoSensors.py</text>
<polyline fill="none" stroke="white" points="1634.5,-281.5 1755.5,-281.5 "/>
<text text-anchor="middle" x="1695" y="-266.3" font-family="Times,serif" font-size="14.00" fill="white">ClientID: pillar</text>
<polyline fill="none" stroke="white" points="1634.5,-258.5 1755.5,-258.5 "/>
<text text-anchor="middle" x="1695" y="-243.3" font-family="Times,serif" font-size="14.00" fill="white">Temp,Humidity</text>
</a>
</g>
</g>
<!-- mosquito&#45;&gt;arduinosensors -->
<g id="edge23" class="edge"><title>mosquito&#45;&gt;arduinosensors</title>
<path fill="none" stroke="green" d="M1236.59,-533.768C1336.44,-522.975 1563.43,-493.647 1622,-445 1661.41,-412.267 1679.91,-354.592 1688.34,-314.665"/>
<polygon fill="green" stroke="green" points="1691.81,-315.159 1690.32,-304.669 1684.95,-313.799 1691.81,-315.159"/>
</g>
<!-- ircbot -->
<g id="node24" class="node"><title>ircbot</title>
<g id="a_node24"><a xlink:href="https://github.com/realraum/r3bot-mqtt" xlink:title="{IRC r3bot&#45;mqtt|ClientID: ircchanbot|Limnoria IRC Bot Plugin}" target="_graphviz">
<path fill="DarkRed" stroke="white" d="M1900,-235.5C1900,-235.5 2032,-235.5 2032,-235.5 2038,-235.5 2044,-241.5 2044,-247.5 2044,-247.5 2044,-292.5 2044,-292.5 2044,-298.5 2038,-304.5 2032,-304.5 2032,-304.5 1900,-304.5 1900,-304.5 1894,-304.5 1888,-298.5 1888,-292.5 1888,-292.5 1888,-247.5 1888,-247.5 1888,-241.5 1894,-235.5 1900,-235.5"/>
<text text-anchor="middle" x="1966" y="-289.3" font-family="Times,serif" font-size="14.00" fill="white">IRC r3bot&#45;mqtt</text>
<polyline fill="none" stroke="white" points="1888,-281.5 2044,-281.5 "/>
<text text-anchor="middle" x="1966" y="-266.3" font-family="Times,serif" font-size="14.00" fill="white">ClientID: ircchanbot</text>
<polyline fill="none" stroke="white" points="1888,-258.5 2044,-258.5 "/>
<text text-anchor="middle" x="1966" y="-243.3" font-family="Times,serif" font-size="14.00" fill="white">Limnoria IRC Bot Plugin</text>
</a>
</g>
</g>
<!-- mosquito&#45;&gt;ircbot -->
<g id="edge28" class="edge"><title>mosquito&#45;&gt;ircbot</title>
<path fill="none" stroke="green" d="M1236.74,-531.362C1314.91,-519.741 1475.1,-496.201 1611,-478 1669.82,-470.122 1827.31,-478.931 1876,-445 1920.08,-414.28 1944.03,-355.215 1955.91,-314.486"/>
<polygon fill="green" stroke="green" points="1959.29,-315.384 1958.6,-304.811 1952.55,-313.505 1959.29,-315.384"/>
</g>
<!-- backdoorcx_sensor_node -->
<g id="node4" class="node"><title>backdoorcx_sensor_node</title>
<g id="a_node4"><a xlink:href="https://github.com/realraum/door_and_sensors/tree/master/backdoorcx_sensor_node" xlink:title="{backdoorcx_sensor_node|ClientID: backdoorcx}" target="_graphviz">
<path fill="DarkRed" stroke="white" d="M1122,-671C1122,-671 1252,-671 1252,-671 1258,-671 1264,-677 1264,-683 1264,-683 1264,-705 1264,-705 1264,-711 1258,-717 1252,-717 1252,-717 1122,-717 1122,-717 1116,-717 1110,-711 1110,-705 1110,-705 1110,-683 1110,-683 1110,-677 1116,-671 1122,-671"/>
<text text-anchor="middle" x="1187" y="-701.8" font-family="Times,serif" font-size="14.00" fill="white">backdoorcx_sensor_node</text>
<polyline fill="none" stroke="white" points="1110,-694 1264,-694 "/>
<text text-anchor="middle" x="1187" y="-678.8" font-family="Times,serif" font-size="14.00" fill="white">ClientID: backdoorcx</text>
</a>
</g>
</g>
<!-- backdoorcx_sensor_node&#45;&gt;mosquito -->
<g id="edge13" class="edge"><title>backdoorcx_sensor_node&#45;&gt;mosquito</title>
<path fill="none" stroke="green" d="M1187.29,-670.825C1187.63,-645.075 1188.19,-602.372 1188.58,-572.904"/>
<polygon fill="green" stroke="green" points="1192.08,-572.747 1188.71,-562.702 1185.08,-572.655 1192.08,-572.747"/>
</g>
<!-- r3_metaevt_maker&#45;&gt;mosquito -->
<g id="edge15" class="edge"><title>r3_metaevt_maker&#45;&gt;mosquito</title>
<path fill="none" stroke="green" d="M1029.28,-312.245C1050.24,-353.847 1082.53,-418.785 1121,-468 1132.76,-483.04 1147.87,-497.639 1160.97,-509.613"/>
<polygon fill="green" stroke="green" points="1158.64,-512.227 1168.41,-516.343 1163.34,-507.037 1158.64,-512.227"/>
</g>
<!-- r3_spaceapistatus&#45;&gt;apache -->
<g id="edge10" class="edge"><title>r3_spaceapistatus&#45;&gt;apache</title>
<path fill="none" stroke="black" stroke-dasharray="1,5" d="M1192,-239.485C1192,-204.689 1192,-146.545 1192,-106.564"/>
<polygon fill="black" stroke="black" points="1195.5,-106.563 1192,-96.5631 1188.5,-106.563 1195.5,-106.563"/>
<text text-anchor="middle" x="1201" y="-190.8" font-family="Times,serif" font-size="14.00">ssh</text>
</g>
<!-- golightctrl -->
<g id="node17" class="node"><title>golightctrl</title>
<g id="a_node17"><a xlink:href="https://github.com/realraum/deckenlichtschalter/tree/master/linux/golightctrl" xlink:title="{goLightCtrl|http://licht.realraum.at|Power&#45;,Light&#45;,Stereo&#45;\lcontrol Frontend\lserializes rf433 tx\l}" target="_graphviz">
<path fill="Crimson" stroke="Black" d="M1482.5,-220.5C1482.5,-220.5 1597.5,-220.5 1597.5,-220.5 1603.5,-220.5 1609.5,-226.5 1609.5,-232.5 1609.5,-232.5 1609.5,-307.5 1609.5,-307.5 1609.5,-313.5 1603.5,-319.5 1597.5,-319.5 1597.5,-319.5 1482.5,-319.5 1482.5,-319.5 1476.5,-319.5 1470.5,-313.5 1470.5,-307.5 1470.5,-307.5 1470.5,-232.5 1470.5,-232.5 1470.5,-226.5 1476.5,-220.5 1482.5,-220.5"/>
<text text-anchor="middle" x="1540" y="-304.3" font-family="Times,serif" font-size="14.00">goLightCtrl</text>
<polyline fill="none" stroke="Black" points="1470.5,-296.5 1609.5,-296.5 "/>
<text text-anchor="middle" x="1540" y="-281.3" font-family="Times,serif" font-size="14.00">http://licht.realraum.at</text>
<polyline fill="none" stroke="Black" points="1470.5,-273.5 1609.5,-273.5 "/>
<text text-anchor="start" x="1478.5" y="-258.3" font-family="Times,serif" font-size="14.00">Power&#45;,Light&#45;,Stereo&#45;</text>
<text text-anchor="start" x="1478.5" y="-243.3" font-family="Times,serif" font-size="14.00">control Frontend</text>
<text text-anchor="start" x="1478.5" y="-228.3" font-family="Times,serif" font-size="14.00">serializes rf433 tx</text>
</a>
</g>
</g>
<!-- dostuff_switch_lights&#45;&gt;golightctrl -->
<g id="edge31" class="edge"><title>dostuff_switch_lights&#45;&gt;golightctrl</title>
<path fill="none" stroke="Blue" d="M816.295,-300.649C828.775,-335.745 854.67,-391.537 899,-416 1008.34,-476.341 1353.72,-479.932 1461,-416 1492.52,-397.215 1512.23,-360.999 1524.08,-329.338"/>
<polygon fill="Blue" stroke="Blue" points="1527.46,-330.277 1527.51,-319.683 1520.86,-327.934 1527.46,-330.277"/>
<text text-anchor="middle" x="1133" y="-456.8" font-family="Times,serif" font-size="14.00">HTTP</text>
</g>
<!-- olga_freezer_sensordata_forwarder -->
<g id="node9" class="node"><title>olga_freezer_sensordata_forwarder</title>
<g id="a_node9"><a xlink:href="https://github.com/realraum/door_and_sensors/blob/master/scripts/olga_freezer_sensordata_forwarder.py" xlink:title="{olga_freezer_sensordata_forwarder.py|ClientID: olgafreezer|Temperature\lOverTemp Alarm\lSensorLost Alarm\l}" target="_graphviz">
<path fill="DarkRed" stroke="white" d="M582.5,-644.5C582.5,-644.5 783.5,-644.5 783.5,-644.5 789.5,-644.5 795.5,-650.5 795.5,-656.5 795.5,-656.5 795.5,-731.5 795.5,-731.5 795.5,-737.5 789.5,-743.5 783.5,-743.5 783.5,-743.5 582.5,-743.5 582.5,-743.5 576.5,-743.5 570.5,-737.5 570.5,-731.5 570.5,-731.5 570.5,-656.5 570.5,-656.5 570.5,-650.5 576.5,-644.5 582.5,-644.5"/>
<text text-anchor="middle" x="683" y="-728.3" font-family="Times,serif" font-size="14.00" fill="white">olga_freezer_sensordata_forwarder.py</text>
<polyline fill="none" stroke="white" points="570.5,-720.5 795.5,-720.5 "/>
<text text-anchor="middle" x="683" y="-705.3" font-family="Times,serif" font-size="14.00" fill="white">ClientID: olgafreezer</text>
<polyline fill="none" stroke="white" points="570.5,-697.5 795.5,-697.5 "/>
<text text-anchor="start" x="578.5" y="-682.3" font-family="Times,serif" font-size="14.00" fill="white">Temperature</text>
<text text-anchor="start" x="578.5" y="-667.3" font-family="Times,serif" font-size="14.00" fill="white">OverTemp Alarm</text>
<text text-anchor="start" x="578.5" y="-652.3" font-family="Times,serif" font-size="14.00" fill="white">SensorLost Alarm</text>
</a>
</g>
</g>
<!-- olga_freezer_sensordata_forwarder&#45;&gt;smstools -->
<g id="edge11" class="edge"><title>olga_freezer_sensordata_forwarder&#45;&gt;smstools</title>
<path fill="none" stroke="black" d="M716.511,-644.329C733.001,-620.379 752.379,-592.235 766.798,-571.294"/>
<polygon fill="black" stroke="black" points="769.862,-573.015 772.65,-562.793 764.097,-569.045 769.862,-573.015"/>
</g>
<!-- olga_freezer_sensordata_forwarder&#45;&gt;mosquito -->
<g id="edge19" class="edge"><title>olga_freezer_sensordata_forwarder&#45;&gt;mosquito</title>
<path fill="none" stroke="green" d="M795.545,-646.899C798.385,-645.905 801.207,-644.937 804,-644 918.452,-605.602 1055.66,-571.482 1131.49,-553.635"/>
<polygon fill="green" stroke="green" points="1132.39,-557.02 1141.33,-551.331 1130.79,-550.204 1132.39,-557.02"/>
</g>
<!-- apcupsd_mqtt_notify -->
<g id="node10" class="node"><title>apcupsd_mqtt_notify</title>
<g id="a_node10"><a xlink:href="https://github.com/realraum/door_and_sensors/blob/master/scripts/apcupsd-mqtt-notify.py" xlink:title="{apcupsd&#45;mqtt&#45;notify.py|ClientID: &#45;|repackage as mqtt\lsend SMS on powerloss}" target="_graphviz">
<path fill="DarkRed" stroke="white" d="M954.5,-652C954.5,-652 1079.5,-652 1079.5,-652 1085.5,-652 1091.5,-658 1091.5,-664 1091.5,-664 1091.5,-724 1091.5,-724 1091.5,-730 1085.5,-736 1079.5,-736 1079.5,-736 954.5,-736 954.5,-736 948.5,-736 942.5,-730 942.5,-724 942.5,-724 942.5,-664 942.5,-664 942.5,-658 948.5,-652 954.5,-652"/>
<text text-anchor="middle" x="1017" y="-720.8" font-family="Times,serif" font-size="14.00" fill="white">apcupsd&#45;mqtt&#45;notify.py</text>
<polyline fill="none" stroke="white" points="942.5,-713 1091.5,-713 "/>
<text text-anchor="middle" x="1017" y="-697.8" font-family="Times,serif" font-size="14.00" fill="white">ClientID: &#45;</text>
<polyline fill="none" stroke="white" points="942.5,-690 1091.5,-690 "/>
<text text-anchor="start" x="950.5" y="-674.8" font-family="Times,serif" font-size="14.00" fill="white">repackage as mqtt</text>
<text text-anchor="middle" x="1017" y="-659.8" font-family="Times,serif" font-size="14.00" fill="white">send SMS on powerloss</text>
</a>
</g>
</g>
<!-- apcupsd_mqtt_notify&#45;&gt;smstools -->
<g id="edge12" class="edge"><title>apcupsd_mqtt_notify&#45;&gt;smstools</title>
<path fill="none" stroke="black" d="M955.331,-651.932C915.519,-625.42 864.792,-591.639 829.68,-568.257"/>
<polygon fill="black" stroke="black" points="831.37,-565.177 821.106,-562.547 827.49,-571.003 831.37,-565.177"/>
</g>
<!-- apcupsd_mqtt_notify&#45;&gt;mosquito -->
<g id="edge20" class="edge"><title>apcupsd_mqtt_notify&#45;&gt;mosquito</title>
<path fill="none" stroke="green" d="M1063.55,-651.731C1092.76,-625.831 1129.73,-593.055 1155.94,-569.808"/>
<polygon fill="green" stroke="green" points="1158.56,-572.17 1163.72,-562.917 1153.91,-566.933 1158.56,-572.17"/>
</g>
<!-- xbeesensors -->
<g id="node11" class="node"><title>xbeesensors</title>
<g id="a_node11"><a xlink:href="https://github.com/realraum/door_and_sensors/blob/master/scripts/xbeesensors.py" xlink:title="{XbeeSensors.py|ClientID: xbee|remote Temp\lremote Humidity\l}" target="_graphviz">
<path fill="DarkRed" stroke="white" d="M825.5,-652C825.5,-652 912.5,-652 912.5,-652 918.5,-652 924.5,-658 924.5,-664 924.5,-664 924.5,-724 924.5,-724 924.5,-730 918.5,-736 912.5,-736 912.5,-736 825.5,-736 825.5,-736 819.5,-736 813.5,-730 813.5,-724 813.5,-724 813.5,-664 813.5,-664 813.5,-658 819.5,-652 825.5,-652"/>
<text text-anchor="middle" x="869" y="-720.8" font-family="Times,serif" font-size="14.00" fill="white">XbeeSensors.py</text>
<polyline fill="none" stroke="white" points="813.5,-713 924.5,-713 "/>
<text text-anchor="middle" x="869" y="-697.8" font-family="Times,serif" font-size="14.00" fill="white">ClientID: xbee</text>
<polyline fill="none" stroke="white" points="813.5,-690 924.5,-690 "/>
<text text-anchor="start" x="821.5" y="-674.8" font-family="Times,serif" font-size="14.00" fill="white">remote Temp</text>
<text text-anchor="start" x="821.5" y="-659.8" font-family="Times,serif" font-size="14.00" fill="white">remote Humidity</text>
</a>
</g>
</g>
<!-- xbeesensors&#45;&gt;mosquito -->
<g id="edge25" class="edge"><title>xbeesensors&#45;&gt;mosquito</title>
<path fill="none" stroke="green" d="M920.229,-651.927C924.46,-649.109 928.747,-646.429 933,-644 997.862,-606.964 1078.6,-576.673 1131.86,-558.634"/>
<polygon fill="green" stroke="green" points="1133.1,-561.907 1141.47,-555.409 1130.88,-555.27 1133.1,-561.907"/>
</g>
<!-- backdoorminimus -->
<g id="node12" class="node"><title>backdoorminimus</title>
<polygon fill="DodgerBlue" stroke="black" points="1132.5,-871.5 1132.5,-947.5 1241.5,-947.5 1241.5,-871.5 1132.5,-871.5"/>
<text text-anchor="middle" x="1187" y="-932.3" font-family="Times,serif" font-size="14.00">Minimus32</text>
<polyline fill="none" stroke="black" points="1132.5,-924.5 1241.5,-924.5 "/>
<text text-anchor="start" x="1140.5" y="-909.3" font-family="Times,serif" font-size="14.00">BackdoorAjar</text>
<text text-anchor="start" x="1140.5" y="-894.3" font-family="Times,serif" font-size="14.00">GasAlert</text>
<text text-anchor="start" x="1140.5" y="-879.3" font-family="Times,serif" font-size="14.00">CX Temperature</text>
</g>
<!-- backdoorminimus&#45;&gt;backdoorcx_sensor_node -->
<g id="edge4" class="edge"><title>backdoorminimus&#45;&gt;backdoorcx_sensor_node</title>
<path fill="none" stroke="red" d="M1187,-871.311C1187,-830.578 1187,-765.912 1187,-727.249"/>
<polygon fill="red" stroke="red" points="1190.5,-727.075 1187,-717.075 1183.5,-727.075 1190.5,-727.075"/>
<text text-anchor="middle" x="1213.5" y="-830.3" font-family="Times,serif" font-size="14.00">ttyACM0</text>
</g>
<!-- YellowUPS -->
<g id="node13" class="node"><title>YellowUPS</title>
<polygon fill="DodgerBlue" stroke="black" points="972.5,-879 972.5,-940 1061.5,-940 1061.5,-879 972.5,-879"/>
<text text-anchor="middle" x="1017" y="-924.8" font-family="Times,serif" font-size="14.00">YellowUPS</text>
<polyline fill="none" stroke="black" points="972.5,-917 1061.5,-917 "/>
<text text-anchor="start" x="980.5" y="-901.8" font-family="Times,serif" font-size="14.00">PowerInfo</text>
<text text-anchor="start" x="980.5" y="-886.8" font-family="Times,serif" font-size="14.00">BatteryTemp</text>
</g>
<!-- YellowUPS&#45;&gt;apcupsd_mqtt_notify -->
<g id="edge7" class="edge"><title>YellowUPS&#45;&gt;apcupsd_mqtt_notify</title>
<path fill="none" stroke="red" d="M1017,-878.814C1017,-844.591 1017,-787.741 1017,-746.311"/>
<polygon fill="red" stroke="red" points="1020.5,-746.133 1017,-736.133 1013.5,-746.133 1020.5,-746.133"/>
<text text-anchor="middle" x="1030.5" y="-830.3" font-family="Times,serif" font-size="14.00">APC</text>
</g>
<!-- door_client -->
<g id="node14" class="node"><title>door_client</title>
<g id="a_node14"><a xlink:href="https://github.com/realraum/door_and_sensors/tree/master/door_client" xlink:title="\N" target="_graphviz">
<path fill="DarkRed" stroke="white" d="M1657,-891.5C1657,-891.5 1711,-891.5 1711,-891.5 1717,-891.5 1723,-897.5 1723,-903.5 1723,-903.5 1723,-915.5 1723,-915.5 1723,-921.5 1717,-927.5 1711,-927.5 1711,-927.5 1657,-927.5 1657,-927.5 1651,-927.5 1645,-921.5 1645,-915.5 1645,-915.5 1645,-903.5 1645,-903.5 1645,-897.5 1651,-891.5 1657,-891.5"/>
<text text-anchor="middle" x="1684" y="-905.8" font-family="Times,serif" font-size="14.00" fill="white">door_client</text>
</a>
</g>
</g>
<!-- door_daemon -->
<g id="node15" class="node"><title>door_daemon</title>
<g id="a_node15"><a xlink:href="https://github.com/realraum/door_and_sensors/tree/master/door_daemon" xlink:title="{door_daemon|ClientID: frontdoor}" target="_graphviz">
<path fill="DarkRed" stroke="white" d="M1635,-671C1635,-671 1733,-671 1733,-671 1739,-671 1745,-677 1745,-683 1745,-683 1745,-705 1745,-705 1745,-711 1739,-717 1733,-717 1733,-717 1635,-717 1635,-717 1629,-717 1623,-711 1623,-705 1623,-705 1623,-683 1623,-683 1623,-677 1629,-671 1635,-671"/>
<text text-anchor="middle" x="1684" y="-701.8" font-family="Times,serif" font-size="14.00" fill="white">door_daemon</text>
<polyline fill="none" stroke="white" points="1623,-694 1745,-694 "/>
<text text-anchor="middle" x="1684" y="-678.8" font-family="Times,serif" font-size="14.00" fill="white">ClientID: frontdoor</text>
</a>
</g>
</g>
<!-- door_client&#45;&gt;door_daemon -->
<g id="edge29" class="edge"><title>door_client&#45;&gt;door_daemon</title>
<path fill="none" stroke="DeepPink" d="M1684,-891.389C1684,-855.771 1684,-773.165 1684,-727.245"/>
<polygon fill="DeepPink" stroke="DeepPink" points="1687.5,-727.222 1684,-717.222 1680.5,-727.222 1687.5,-727.222"/>
<text text-anchor="middle" x="1697" y="-830.3" font-family="Times,serif" font-size="14.00">RPC</text>
</g>
<!-- door_daemon&#45;&gt;mosquito -->
<g id="edge21" class="edge"><title>door_daemon&#45;&gt;mosquito</title>
<path fill="none" stroke="green" d="M1656.23,-670.985C1643.14,-661.515 1626.92,-651.029 1611,-644 1487.29,-589.371 1329.9,-560.498 1246.66,-548.097"/>
<polygon fill="green" stroke="green" points="1247.04,-544.616 1236.64,-546.631 1246.03,-551.542 1247.04,-544.616"/>
</g>
<!-- teenstep -->
<g id="node16" class="node"><title>teenstep</title>
<g id="a_node16"><a xlink:href="https://github.com/realraum/teenstep" xlink:title="{r³&#45;TeenStep|Custom ATMega32U Board\lwith StepperDriver\lreads RFID Cards\lcontrols DoorLock\lreads AJAR Sensor\l}" target="_graphviz">
<polygon fill="DodgerBlue" stroke="black" points="1637.5,-486.5 1637.5,-592.5 1810.5,-592.5 1810.5,-486.5 1637.5,-486.5"/>
<text text-anchor="middle" x="1724" y="-577.3" font-family="Times,serif" font-size="14.00">r³&#45;TeenStep</text>
<polyline fill="none" stroke="black" points="1637.5,-569.5 1810.5,-569.5 "/>
<text text-anchor="start" x="1645.5" y="-554.3" font-family="Times,serif" font-size="14.00">Custom ATMega32U Board</text>
<text text-anchor="start" x="1645.5" y="-539.3" font-family="Times,serif" font-size="14.00">with StepperDriver</text>
<text text-anchor="start" x="1645.5" y="-524.3" font-family="Times,serif" font-size="14.00">reads RFID Cards</text>
<text text-anchor="start" x="1645.5" y="-509.3" font-family="Times,serif" font-size="14.00">controls DoorLock</text>
<text text-anchor="start" x="1645.5" y="-494.3" font-family="Times,serif" font-size="14.00">reads AJAR Sensor</text>
</a>
</g>
</g>
<!-- door_daemon&#45;&gt;teenstep -->
<g id="edge9" class="edge"><title>door_daemon&#45;&gt;teenstep</title>
<path fill="none" stroke="red" d="M1669.16,-670.761C1659.96,-654.087 1651.26,-630.824 1659,-611 1660.28,-607.722 1661.79,-604.504 1663.49,-601.36"/>
<polygon fill="red" stroke="red" points="1666.55,-603.07 1668.72,-592.701 1660.56,-599.449 1666.55,-603.07"/>
<text text-anchor="middle" x="1685.5" y="-614.8" font-family="Times,serif" font-size="14.00">ttyACM0</text>
</g>
<!-- teenstep&#45;&gt;door_daemon -->
<g id="edge8" class="edge"><title>teenstep&#45;&gt;door_daemon</title>
<path fill="none" stroke="red" d="M1722.07,-592.573C1720.84,-603.735 1718.94,-615.366 1716,-626 1712.66,-638.109 1707.22,-650.708 1701.77,-661.669"/>
<polygon fill="red" stroke="red" points="1698.52,-660.337 1697.03,-670.827 1704.74,-663.555 1698.52,-660.337"/>
<text text-anchor="middle" x="1745.5" y="-614.8" font-family="Times,serif" font-size="14.00">ttyACM0</text>
</g>
<!-- golightctrl&#45;&gt;mosquito -->
<g id="edge22" class="edge"><title>golightctrl&#45;&gt;mosquito</title>
<path fill="none" stroke="green" d="M1529.19,-319.746C1518.2,-358.617 1497.45,-411.859 1461,-445 1400.75,-499.775 1306.9,-522.706 1246.69,-532.136"/>
<polygon fill="green" stroke="green" points="1245.97,-528.705 1236.59,-533.641 1247,-535.629 1245.97,-528.705"/>
</g>
<!-- ceilingteensy -->
<g id="node19" class="node"><title>ceilingteensy</title>
<g id="a_node19"><a xlink:href="https://github.com/realraum/deckenlichtschalter/tree/master/teensy2" xlink:title="{Teensy2|Ceilinglights\lRF433 TX}" target="_graphviz">
<polygon fill="DodgerBlue" stroke="black" points="1467,-31.5 1467,-92.5 1553,-92.5 1553,-31.5 1467,-31.5"/>
<text text-anchor="middle" x="1510" y="-77.3" font-family="Times,serif" font-size="14.00">Teensy2</text>
<polyline fill="none" stroke="black" points="1467,-69.5 1553,-69.5 "/>
<text text-anchor="start" x="1475" y="-54.3" font-family="Times,serif" font-size="14.00">Ceilinglights</text>
<text text-anchor="middle" x="1510" y="-39.3" font-family="Times,serif" font-size="14.00">RF433 TX</text>
</a>
</g>
</g>
<!-- golightctrl&#45;&gt;ceilingteensy -->
<g id="edge5" class="edge"><title>golightctrl&#45;&gt;ceilingteensy</title>
<path fill="none" stroke="red" d="M1483.36,-220.2C1479.22,-214.475 1475.64,-208.383 1473,-202 1459.48,-169.353 1472.21,-130.328 1486.3,-101.951"/>
<polygon fill="red" stroke="red" points="1489.57,-103.245 1491.1,-92.7604 1483.37,-100.007 1489.57,-103.245"/>
<text text-anchor="middle" x="1499.5" y="-190.8" font-family="Times,serif" font-size="14.00">ttyACM0</text>
</g>
<!-- ceilingteensy&#45;&gt;golightctrl -->
<g id="edge6" class="edge"><title>ceilingteensy&#45;&gt;golightctrl</title>
<path fill="none" stroke="red" d="M1514.33,-92.7509C1518.8,-123.407 1525.87,-172.003 1531.47,-210.41"/>
<polygon fill="red" stroke="red" points="1528.02,-211.051 1532.93,-220.442 1534.95,-210.042 1528.02,-211.051"/>
<text text-anchor="middle" x="1556.5" y="-190.8" font-family="Times,serif" font-size="14.00">ttyACM1</text>
</g>
<!-- arduinosensors&#45;&gt;mosquito -->
<g id="edge24" class="edge"><title>arduinosensors&#45;&gt;mosquito</title>
<path fill="none" stroke="green" d="M1690.94,-304.871C1683.5,-350.427 1663.09,-430.088 1609,-468 1551.42,-508.361 1347.52,-527.666 1246.54,-534.922"/>
<polygon fill="green" stroke="green" points="1246.24,-531.434 1236.51,-535.627 1246.73,-538.417 1246.24,-531.434"/>
</g>
<!-- pillararduino -->
<g id="node21" class="node"><title>pillararduino</title>
<polygon fill="DodgerBlue" stroke="black" points="1657,-16.5 1657,-107.5 1785,-107.5 1785,-16.5 1657,-16.5"/>
<text text-anchor="middle" x="1721" y="-92.3" font-family="Times,serif" font-size="14.00">Arduino</text>
<polyline fill="none" stroke="black" points="1657,-84.5 1785,-84.5 "/>
<text text-anchor="start" x="1665" y="-69.3" font-family="Times,serif" font-size="14.00">Lightlevel</text>
<text text-anchor="start" x="1665" y="-54.3" font-family="Times,serif" font-size="14.00">RF433 TX</text>
<text text-anchor="start" x="1665" y="-39.3" font-family="Times,serif" font-size="14.00">YamahaStereo IR tx</text>
<text text-anchor="start" x="1665" y="-24.3" font-family="Times,serif" font-size="14.00">BoreDoooomButton</text>
</g>
<!-- arduinosensors&#45;&gt;pillararduino -->
<g id="edge2" class="edge"><title>arduinosensors&#45;&gt;pillararduino</title>
<path fill="none" stroke="red" d="M1676.94,-235.478C1671.07,-220.776 1666.8,-203.207 1670,-187 1674.72,-163.129 1684.09,-138.078 1693.52,-116.791"/>
<polygon fill="red" stroke="red" points="1696.74,-118.155 1697.7,-107.603 1690.37,-115.257 1696.74,-118.155"/>
<text text-anchor="middle" x="1694" y="-190.8" font-family="Times,serif" font-size="14.00">ttyUSB0</text>
</g>
<!-- pillararduino&#45;&gt;arduinosensors -->
<g id="edge1" class="edge"><title>pillararduino&#45;&gt;arduinosensors</title>
<path fill="none" stroke="red" d="M1725.77,-107.545C1727.61,-135.022 1728.04,-170.846 1722,-202 1720.46,-209.965 1717.97,-218.183 1715.11,-226.018"/>
<polygon fill="red" stroke="red" points="1711.85,-224.753 1711.48,-235.342 1718.37,-227.292 1711.85,-224.753"/>
<text text-anchor="middle" x="1748" y="-190.8" font-family="Times,serif" font-size="14.00">ttyUSB0</text>
</g>
<!-- laserctl -->
<g id="node22" class="node"><title>laserctl</title>
<g id="a_node22"><a xlink:href="https://github.com/realraum/laserctl/tree/master/raspberry/laser" xlink:title="{lasermon.py|ClientID: lasercutter|LaserCardEvent}" target="_graphviz">
<path fill="DarkRed" stroke="white" d="M1300,-659.5C1300,-659.5 1404,-659.5 1404,-659.5 1410,-659.5 1416,-665.5 1416,-671.5 1416,-671.5 1416,-716.5 1416,-716.5 1416,-722.5 1410,-728.5 1404,-728.5 1404,-728.5 1300,-728.5 1300,-728.5 1294,-728.5 1288,-722.5 1288,-716.5 1288,-716.5 1288,-671.5 1288,-671.5 1288,-665.5 1294,-659.5 1300,-659.5"/>
<text text-anchor="middle" x="1352" y="-713.3" font-family="Times,serif" font-size="14.00" fill="white">lasermon.py</text>
<polyline fill="none" stroke="white" points="1288,-705.5 1416,-705.5 "/>
<text text-anchor="middle" x="1352" y="-690.3" font-family="Times,serif" font-size="14.00" fill="white">ClientID: lasercutter</text>
<polyline fill="none" stroke="white" points="1288,-682.5 1416,-682.5 "/>
<text text-anchor="middle" x="1352" y="-667.3" font-family="Times,serif" font-size="14.00" fill="white">LaserCardEvent</text>
</a>
</g>
</g>
<!-- laserctl&#45;&gt;mosquito -->
<g id="edge26" class="edge"><title>laserctl&#45;&gt;mosquito</title>
<path fill="none" stroke="green" d="M1315.83,-659.155C1287.19,-632.366 1247.61,-595.336 1220.32,-569.804"/>
<polygon fill="green" stroke="green" points="1222.66,-567.201 1212.97,-562.925 1217.88,-572.313 1222.66,-567.201"/>
</g>
<!-- olgafreezerarduino -->
<g id="node23" class="node"><title>olgafreezerarduino</title>
<g id="a_node23"><a xlink:href="https://github.com/realraum/olgafreezer_httpPOEtempsensor" xlink:title="{Seeduino (POE, ENC28J60)|olgafreezer.realraum.at|Temperatures&#45;\ldisplay and alert\l}" target="_graphviz">
<polygon fill="DodgerBlue" stroke="black" points="154,-867.5 154,-951.5 326,-951.5 326,-867.5 154,-867.5"/>
<text text-anchor="middle" x="240" y="-936.3" font-family="Times,serif" font-size="14.00">Seeduino (POE, ENC28J60)</text>
<polyline fill="none" stroke="black" points="154,-928.5 326,-928.5 "/>
<text text-anchor="middle" x="240" y="-913.3" font-family="Times,serif" font-size="14.00">olgafreezer.realraum.at</text>
<polyline fill="none" stroke="black" points="154,-905.5 326,-905.5 "/>
<text text-anchor="start" x="162" y="-890.3" font-family="Times,serif" font-size="14.00">Temperatures&#45;</text>
<text text-anchor="start" x="162" y="-875.3" font-family="Times,serif" font-size="14.00">display and alert</text>
</a>
</g>
</g>
<!-- olgafreezerarduino&#45;&gt;olga_freezer_sensordata_forwarder -->
<g id="edge30" class="edge"><title>olgafreezerarduino&#45;&gt;olga_freezer_sensordata_forwarder</title>
<path fill="none" stroke="Blue" d="M288.26,-867.349C309.109,-850.886 334.342,-832.637 359,-819 422.793,-783.719 498.69,-754.081 560.985,-732.637"/>
<polygon fill="Blue" stroke="Blue" points="562.135,-735.942 570.468,-729.399 559.874,-729.318 562.135,-735.942"/>
<text text-anchor="middle" x="376" y="-830.3" font-family="Times,serif" font-size="14.00">HTTP</text>
</g>
<!-- outsidexbee -->
<g id="node25" class="node"><title>outsidexbee</title>
<polygon fill="DodgerBlue" stroke="black" points="344,-879 344,-940 486,-940 486,-879 344,-879"/>
<text text-anchor="middle" x="415" y="-924.8" font-family="Times,serif" font-size="14.00">Xbee TunnelFIO Node</text>
<polyline fill="none" stroke="black" points="344,-917 486,-917 "/>
<text text-anchor="start" x="352" y="-901.8" font-family="Times,serif" font-size="14.00">Temperature</text>
<text text-anchor="start" x="352" y="-886.8" font-family="Times,serif" font-size="14.00">Humidity</text>
</g>
<!-- outsidexbee&#45;&gt;xbeesensors -->
<g id="edge3" class="edge"><title>outsidexbee&#45;&gt;xbeesensors</title>
<path fill="none" stroke="red" stroke-dasharray="1,5" d="M452.953,-878.9C464.322,-871.324 477.188,-863.933 490,-859 621.748,-808.273 687.952,-891.397 804,-811 826.599,-795.344 842.239,-769.15 852.503,-745.612"/>
<polygon fill="red" stroke="red" points="855.862,-746.647 856.444,-736.068 849.392,-743.975 855.862,-746.647"/>
<text text-anchor="start" x="791" y="-837.8" font-family="Times,serif" font-size="14.00">ttyUSB1</text>
<text text-anchor="middle" x="815" y="-822.8" font-family="Times,serif" font-size="14.00">ZigBee</text>
</g>
</g>
</svg>
